UbuntuSans-CondensedThin.ufo
<glyph name="exclam" format="2">
  <advance width="239"/>
  <unicode hex="0021"/>
  <outline>
    <contour>
      <point x="109" y="183" type="curve"/>
      <point x="135" y="183" type="line"/>
      <point x="139.891" y="290.591"/>
      <point x="140" y="389.37"/>
      <point x="140" y="495" type="curve" smooth="yes"/>
      <point x="140" y="693" type="line"/>
      <point x="104" y="693" type="line"/>
      <point x="104" y="495" type="line" smooth="yes"/>
      <point x="104" y="389.37"/>
      <point x="105.088" y="290.589"/>
    </contour>
    <contour>
      <point x="120" y="-5" type="curve" smooth="yes"/>
      <point x="134" y="-5"/>
      <point x="147" y="9"/>
      <point x="147" y="25" type="curve" smooth="yes"/>
      <point x="147" y="42"/>
      <point x="134" y="54"/>
      <point x="120" y="54" type="curve" smooth="yes"/>
      <point x="104" y="54"/>
      <point x="92" y="42"/>
      <point x="92" y="25" type="curve" smooth="yes"/>
      <point x="92" y="9"/>
      <point x="104" y="-5"/>
    </contour>
  </outline>
</glyph>
<glyph name="numbersign" format="2">
  <advance width="540"/>
  <unicode hex="0023"/>
  <outline>
    <contour>
      <point x="108" y="0" type="line"/>
      <point x="137" y="0" type="line"/>
      <point x="164" y="195" type="line"/>
      <point x="333" y="195" type="line"/>
      <point x="306" y="0" type="line"/>
      <point x="335" y="0" type="line"/>
      <point x="362" y="195" type="line"/>
      <point x="498" y="195" type="line"/>
      <point x="498" y="222" type="line"/>
      <point x="366" y="222" type="line"/>
      <point x="401" y="469" type="line"/>
      <point x="498" y="469" type="line"/>
      <point x="498" y="498" type="line"/>
      <point x="405" y="498" type="line"/>
      <point x="432" y="693" type="line"/>
      <point x="402" y="693" type="line"/>
      <point x="375" y="498" type="line"/>
      <point x="207" y="498" type="line"/>
      <point x="234" y="693" type="line"/>
      <point x="204" y="693" type="line"/>
      <point x="177" y="498" type="line"/>
      <point x="42" y="498" type="line"/>
      <point x="42" y="469" type="line"/>
      <point x="173" y="469" type="line"/>
      <point x="139" y="222" type="line"/>
      <point x="42" y="222" type="line"/>
      <point x="42" y="195" type="line"/>
      <point x="135" y="195" type="line"/>
    </contour>
    <contour>
      <point x="168" y="222" type="line"/>
      <point x="203" y="469" type="line"/>
      <point x="371" y="469" type="line"/>
      <point x="337" y="222" type="line"/>
    </contour>
  </outline>
</glyph>
<glyph name="dollar" format="2">
  <advance width="420"/>
  <unicode hex="0024"/>
  <outline>
    <contour>
      <point x="190" y="-109" type="line"/>
      <point x="225" y="-109" type="line"/>
      <point x="225" y="30" type="line"/>
      <point x="299" y="46"/>
      <point x="342" y="106"/>
      <point x="342" y="192" type="curve" smooth="yes"/>
      <point x="342" y="290"/>
      <point x="280" y="329"/>
      <point x="221" y="368" type="curve" smooth="yes"/>
      <point x="167" y="404"/>
      <point x="116" y="436"/>
      <point x="116" y="510" type="curve" smooth="yes"/>
      <point x="116" y="587"/>
      <point x="165" y="626"/>
      <point x="236" y="626" type="curve" smooth="yes"/>
      <point x="264" y="626"/>
      <point x="296" y="620"/>
      <point x="327" y="605" type="curve"/>
      <point x="335" y="635" type="line"/>
      <point x="308" y="648"/>
      <point x="270" y="656"/>
      <point x="235" y="656" type="curve" smooth="yes"/>
      <point x="235" y="776" type="line"/>
      <point x="200" y="776" type="line"/>
      <point x="200" y="653" type="line"/>
      <point x="126" y="641"/>
      <point x="83" y="586"/>
      <point x="83" y="507" type="curve" smooth="yes"/>
      <point x="83" y="417"/>
      <point x="142" y="380"/>
      <point x="199" y="342" type="curve" smooth="yes"/>
      <point x="254" y="306"/>
      <point x="309" y="270"/>
      <point x="309" y="187" type="curve" smooth="yes"/>
      <point x="309" y="104"/>
      <point x="263" y="55"/>
      <point x="180" y="55" type="curve" smooth="yes"/>
      <point x="140" y="55"/>
      <point x="105" y="67"/>
      <point x="75" y="83" type="curve"/>
      <point x="67" y="52" type="line"/>
      <point x="102" y="35"/>
      <point x="145" y="26"/>
      <point x="190" y="25" type="curve"/>
    </contour>
  </outline>
</glyph>
<glyph name="ampersand" format="2">
  <advance width="478"/>
  <unicode hex="0026"/>
  <outline>
    <contour>
      <point x="215" y="-9" type="curve" smooth="yes"/>
      <point x="278" y="-9"/>
      <point x="337" y="32"/>
      <point x="381" y="100" type="curve"/>
      <point x="405" y="65"/>
      <point x="427" y="34"/>
      <point x="445" y="0" type="curve"/>
      <point x="478" y="0" type="line"/>
      <point x="455" y="41"/>
      <point x="428" y="81"/>
      <point x="396" y="125" type="curve"/>
      <point x="428" y="185"/>
      <point x="449" y="261"/>
      <point x="454" y="345" type="curve"/>
      <point x="424" y="348" type="line"/>
      <point x="418" y="272"/>
      <point x="402" y="205"/>
      <point x="377" y="151" type="curve"/>
      <point x="217" y="371" type="line"/>
      <point x="289" y="420"/>
      <point x="346" y="480"/>
      <point x="346" y="565" type="curve" smooth="yes"/>
      <point x="346" y="640"/>
      <point x="312" y="705"/>
      <point x="228" y="705" type="curve" smooth="yes"/>
      <point x="152" y="705"/>
      <point x="105" y="645"/>
      <point x="105" y="554" type="curve" smooth="yes"/>
      <point x="105" y="486"/>
      <point x="139" y="431"/>
      <point x="178" y="377" type="curve"/>
      <point x="102" y="326"/>
      <point x="54" y="270"/>
      <point x="54" y="169" type="curve" smooth="yes"/>
      <point x="54" y="86"/>
      <point x="101" y="-9"/>
    </contour>
    <contour>
      <point x="215" y="21" type="curve" smooth="yes"/>
      <point x="132" y="21"/>
      <point x="86" y="87"/>
      <point x="86" y="171" type="curve" smooth="yes"/>
      <point x="86" y="254"/>
      <point x="123" y="307"/>
      <point x="193" y="355" type="curve"/>
      <point x="363" y="124" type="line"/>
      <point x="326" y="60"/>
      <point x="274" y="21"/>
    </contour>
    <contour>
      <point x="201" y="392" type="curve"/>
      <point x="165" y="443"/>
      <point x="137" y="496"/>
      <point x="137" y="554" type="curve" smooth="yes"/>
      <point x="137" y="629"/>
      <point x="167" y="675"/>
      <point x="228" y="675" type="curve" smooth="yes"/>
      <point x="280" y="675"/>
      <point x="314" y="637"/>
      <point x="314" y="564" type="curve" smooth="yes"/>
      <point x="314" y="493"/>
      <point x="266" y="437"/>
    </contour>
  </outline>
</glyph>
<glyph name="parenleft" format="2">
  <advance width="231"/>
  <unicode hex="0028"/>
  <outline>
    <contour>
      <point x="199" y="-187" type="curve"/>
      <point x="227" y="-174" type="line"/>
      <point x="133" y="3"/>
      <point x="102" y="147"/>
      <point x="102" y="299" type="curve" smooth="yes"/>
      <point x="102" y="451"/>
      <point x="133" y="595"/>
      <point x="227" y="772" type="curve"/>
      <point x="199" y="785" type="line"/>
      <point x="100" y="602"/>
      <point x="66" y="455"/>
      <point x="66" y="299" type="curve" smooth="yes"/>
      <point x="66" y="143"/>
      <point x="100" y="-4"/>
    </contour>
  </outline>
</glyph>
<glyph name="zero" format="2">
  <advance width="420"/>
  <unicode hex="0030"/>
  <outline>
    <contour>
      <point x="210" y="-10" type="curve" smooth="yes"/>
      <point x="315" y="-10"/>
      <point x="363" y="102"/>
      <point x="363" y="348" type="curve" smooth="yes"/>
      <point x="363" y="595"/>
      <point x="315" y="707"/>
      <point x="210" y="707" type="curve" smooth="yes"/>
      <point x="106" y="707"/>
      <point x="57" y="595"/>
      <point x="57" y="348" type="curve" smooth="yes"/>
      <point x="57" y="102"/>
      <point x="106" y="-10"/>
    </contour>
    <contour>
      <point x="210" y="20" type="curve" smooth="yes"/>
      <point x="129" y="20"/>
      <point x="91" y="122"/>
      <point x="91" y="348" type="curve" smooth="yes"/>
      <point x="91" y="574"/>
      <point x="129" y="677"/>
      <point x="210" y="677" type="curve" smooth="yes"/>
      <point x="291" y="677"/>
      <point x="329" y="574"/>
      <point x="329" y="348" type="curve" smooth="yes"/>
      <point x="329" y="122"/>
      <point x="291" y="20"/>
    </contour>
  </outline>
</glyph>
<glyph name="two" format="2">
  <advance width="420"/>
  <unicode hex="0032"/>
  <outline>
    <contour>
      <point x="75" y="0" type="curve"/>
      <point x="357" y="0" type="line"/>
      <point x="357" y="33" type="line"/>
      <point x="108" y="33" type="line"/>
      <point x="111" y="163"/>
      <point x="168" y="246"/>
      <point x="225" y="322" type="curve" smooth="yes"/>
      <point x="277" y="392"/>
      <point x="326" y="457"/>
      <point x="326" y="550" type="curve" smooth="yes"/>
      <point x="326" y="651"/>
      <point x="276" y="707"/>
      <point x="191" y="707" type="curve" smooth="yes"/>
      <point x="138" y="707"/>
      <point x="89" y="689"/>
      <point x="55" y="653" type="curve"/>
      <point x="73" y="630" type="line"/>
      <point x="105" y="660"/>
      <point x="145" y="676"/>
      <point x="190" y="676" type="curve" smooth="yes"/>
      <point x="257" y="676"/>
      <point x="293" y="630"/>
      <point x="293" y="548" type="curve" smooth="yes"/>
      <point x="293" y="460"/>
      <point x="244" y="401"/>
      <point x="191" y="331" type="curve" smooth="yes"/>
      <point x="133" y="255"/>
      <point x="75" y="166"/>
      <point x="75" y="19" type="curve" smooth="yes"/>
      <point x="75" y="13"/>
      <point x="75" y="6"/>
    </contour>
  </outline>
</glyph>
<glyph name="four" format="2">
  <advance width="420"/>
  <unicode hex="0034"/>
  <outline>
    <contour>
      <point x="276" y="0" type="line"/>
      <point x="309" y="0" type="line"/>
      <point x="309" y="182" type="line"/>
      <point x="383" y="182" type="line"/>
      <point x="383" y="213" type="line"/>
      <point x="309" y="213" type="line"/>
      <point x="309" y="693" type="line"/>
      <point x="272" y="693" type="line"/>
      <point x="194" y="565"/>
      <point x="106" y="398"/>
      <point x="51" y="207" type="curve"/>
      <point x="51" y="182" type="line"/>
      <point x="276" y="182" type="line"/>
    </contour>
    <contour>
      <point x="84" y="213" type="line"/>
      <point x="128" y="362"/>
      <point x="198" y="514"/>
      <point x="276" y="646" type="curve"/>
      <point x="276" y="213" type="line"/>
    </contour>
  </outline>
</glyph>
<glyph name="six" format="2">
  <advance width="420"/>
  <unicode hex="0036"/>
  <outline>
    <contour>
      <point x="226" y="-10" type="curve" smooth="yes"/>
      <point x="317" y="-10"/>
      <point x="365" y="75"/>
      <point x="365" y="213" type="curve" smooth="yes"/>
      <point x="365" y="340"/>
      <point x="317" y="418"/>
      <point x="225" y="418" type="curve" smooth="yes"/>
      <point x="181" y="418"/>
      <point x="143" y="406"/>
      <point x="113" y="388" type="curve"/>
      <point x="139" y="601"/>
      <point x="222" y="662"/>
      <point x="330" y="672" type="curve"/>
      <point x="327" y="699" type="line"/>
      <point x="127" y="686"/>
      <point x="76" y="492"/>
      <point x="76" y="295" type="curve" smooth="yes"/>
      <point x="76" y="69"/>
      <point x="126" y="-10"/>
    </contour>
    <contour>
      <point x="225" y="20" type="curve" smooth="yes"/>
      <point x="127" y="20"/>
      <point x="109" y="147"/>
      <point x="109" y="295" type="curve" smooth="yes"/>
      <point x="109" y="308"/>
      <point x="110" y="332"/>
      <point x="112" y="355" type="curve"/>
      <point x="146" y="379"/>
      <point x="186" y="389"/>
      <point x="218" y="389" type="curve" smooth="yes"/>
      <point x="296" y="389"/>
      <point x="332" y="322"/>
      <point x="332" y="209" type="curve" smooth="yes"/>
      <point x="332" y="95"/>
      <point x="299" y="20"/>
    </contour>
  </outline>
</glyph>
<glyph name="question" format="2">
  <advance width="298"/>
  <unicode hex="003F"/>
  <outline>
    <contour>
      <point x="100" y="183" type="curve"/>
      <point x="131" y="183" type="line"/>
      <point x="128" y="201"/>
      <point x="128" y="219"/>
      <point x="128" y="237" type="curve" smooth="yes"/>
      <point x="128" y="396"/>
      <point x="272" y="418"/>
      <point x="272" y="567" type="curve" smooth="yes"/>
      <point x="272" y="644"/>
      <point x="231" y="705"/>
      <point x="136" y="705" type="curve" smooth="yes"/>
      <point x="91" y="705"/>
      <point x="55" y="692"/>
      <point x="22" y="669" type="curve"/>
      <point x="39" y="643" type="line"/>
      <point x="63" y="661"/>
      <point x="95" y="673"/>
      <point x="135" y="673" type="curve" smooth="yes"/>
      <point x="200" y="673"/>
      <point x="237" y="634"/>
      <point x="237" y="567" type="curve" smooth="yes"/>
      <point x="237" y="430"/>
      <point x="96" y="410"/>
      <point x="96" y="242" type="curve" smooth="yes"/>
      <point x="96" y="221"/>
      <point x="98" y="201"/>
    </contour>
    <contour>
      <point x="111" y="-5" type="curve" smooth="yes"/>
      <point x="125" y="-5"/>
      <point x="138" y="9"/>
      <point x="138" y="25" type="curve" smooth="yes"/>
      <point x="138" y="42"/>
      <point x="125" y="54"/>
      <point x="111" y="54" type="curve" smooth="yes"/>
      <point x="95" y="54"/>
      <point x="83" y="42"/>
      <point x="83" y="25" type="curve" smooth="yes"/>
      <point x="83" y="9"/>
      <point x="95" y="-5"/>
    </contour>
  </outline>
</glyph>
<glyph name="A" format="2">
  <advance width="461"/>
  <unicode hex="0041"/>
  <anchor x="231" y="0" name="bottom"/>
  <anchor x="415" y="10" name="ogonek"/>
  <anchor x="229" y="668" name="top"/>
  <outline>
    <contour>
      <point x="28" y="0" type="curve"/>
      <point x="61" y="0" type="line"/>
      <point x="71" y="64"/>
      <point x="83" y="131"/>
      <point x="98" y="200" type="curve"/>
      <point x="361" y="200" type="line"/>
      <point x="376" y="131"/>
      <point x="389" y="64"/>
      <point x="399" y="0" type="curve"/>
      <point x="433" y="0" type="line"/>
      <point x="402" y="213"/>
      <point x="338" y="440"/>
      <point x="249" y="693" type="curve"/>
      <point x="208" y="693" type="line"/>
      <point x="123" y="440"/>
      <point x="59" y="213"/>
    </contour>
    <contour>
      <point x="106" y="232" type="line"/>
      <point x="137" y="369"/>
      <point x="178" y="515"/>
      <point x="229" y="660" type="curve"/>
      <point x="281" y="515"/>
      <point x="322" y="369"/>
      <point x="354" y="232" type="curve"/>
    </contour>
  </outline>
</glyph>
<glyph name="B" format="2">
  <advance width="494"/>
  <unicode hex="0042"/>
  <anchor x="245" y="0" name="bottom"/>
  <anchor x="245" y="347" name="center"/>
  <anchor x="245" y="693" name="top"/>
  <outline>
    <contour>
      <point x="224" y="-2" type="curve" smooth="yes"/>
      <point x="370.355" y="-2"/>
      <point x="440" y="57.736"/>
      <point x="440" y="181" type="curve" smooth="yes"/>
      <point x="440" y="266.793"/>
      <point x="388.394" y="334.887"/>
      <point x="301" y="360" type="curve"/>
      <point x="374" y="383"/>
      <point x="418" y="447"/>
      <point x="418" y="529" type="curve" smooth="yes"/>
      <point x="418" y="641"/>
      <point x="349.343" y="697"/>
      <point x="209" y="697" type="curve" smooth="yes"/>
      <point x="168" y="697"/>
      <point x="123" y="692"/>
      <point x="88" y="683" type="curve"/>
      <point x="88" y="12" type="line"/>
      <point x="128" y="3"/>
      <point x="178" y="-2"/>
    </contour>
    <contour>
      <point x="220" y="30" type="curve" smooth="yes"/>
      <point x="188" y="30"/>
      <point x="149" y="34"/>
      <point x="122" y="39" type="curve"/>
      <point x="122" y="344" type="line"/>
      <point x="221" y="344" type="line" smooth="yes"/>
      <point x="333.227" y="344"/>
      <point x="404" y="279.09"/>
      <point x="404" y="178" type="curve" smooth="yes"/>
      <point x="404" y="75.899"/>
      <point x="347.385" y="30"/>
    </contour>
    <contour>
      <point x="122" y="376" type="line"/>
      <point x="122" y="657" type="line"/>
      <point x="144" y="662"/>
      <point x="176" y="665"/>
      <point x="208" y="665" type="curve" smooth="yes"/>
      <point x="332.422" y="665"/>
      <point x="383" y="625"/>
      <point x="383" y="525" type="curve" smooth="yes"/>
      <point x="383" y="430"/>
      <point x="324.275" y="376"/>
      <point x="221" y="376" type="curve" smooth="yes"/>
    </contour>
  </outline>
</glyph>
<glyph name="C" format="2">
  <advance width="449"/>
  <unicode hex="0043"/>
  <anchor x="260" y="0" name="bottom"/>
  <anchor x="285" y="668" name="top"/>
  <outline>
    <contour>
      <point x="295" y="-9" type="curve" smooth="yes"/>
      <point x="341" y="-9"/>
      <point x="387" y="2"/>
      <point x="424" y="25" type="curve"/>
      <point x="415" y="53" type="line"/>
      <point x="374" y="34"/>
      <point x="337" y="22"/>
      <point x="298" y="22" type="curve" smooth="yes"/>
      <point x="168" y="22"/>
      <point x="98" y="138"/>
      <point x="98" y="340" type="curve" smooth="yes"/>
      <point x="98" y="560"/>
      <point x="160" y="671"/>
      <point x="292" y="671" type="curve" smooth="yes"/>
      <point x="334" y="671"/>
      <point x="377" y="659"/>
      <point x="407" y="644" type="curve"/>
      <point x="417" y="672" type="line"/>
      <point x="380" y="691"/>
      <point x="338" y="702"/>
      <point x="291" y="702" type="curve" smooth="yes"/>
      <point x="141" y="702"/>
      <point x="62" y="575"/>
      <point x="62" y="340" type="curve" smooth="yes"/>
      <point x="62" y="120"/>
      <point x="148" y="-9"/>
    </contour>
  </outline>
</glyph>
<glyph name="D" format="2">
  <advance width="554"/>
  <unicode hex="0044"/>
  <anchor x="276" y="0" name="bottom"/>
  <anchor x="276" y="347" name="center"/>
  <anchor x="249" y="668" name="top"/>
  <outline>
    <contour>
      <point x="229" y="-4" type="curve" smooth="yes"/>
      <point x="403.03" y="-4"/>
      <point x="492" y="114"/>
      <point x="492" y="347" type="curve" smooth="yes"/>
      <point x="492" y="580"/>
      <point x="403.679" y="697"/>
      <point x="229" y="697" type="curve" smooth="yes"/>
      <point x="184" y="697"/>
      <point x="136" y="693"/>
      <point x="88" y="685" type="curve"/>
      <point x="88" y="6" type="line"/>
      <point x="138" y="-2"/>
      <point x="186" y="-4"/>
    </contour>
    <contour>
      <point x="225" y="28" type="curve" smooth="yes"/>
      <point x="184" y="28"/>
      <point x="153" y="29"/>
      <point x="122" y="34" type="curve"/>
      <point x="122" y="659" type="line"/>
      <point x="155" y="663"/>
      <point x="187" y="665"/>
      <point x="225" y="665" type="curve" smooth="yes"/>
      <point x="384.547" y="665"/>
      <point x="456" y="567.386"/>
      <point x="456" y="347" type="curve" smooth="yes"/>
      <point x="456" y="125.612"/>
      <point x="384.547" y="28"/>
    </contour>
  </outline>
</glyph>
<glyph name="E" format="2">
  <advance width="421"/>
  <unicode hex="0045"/>
  <anchor x="210" y="0" name="bottom"/>
  <anchor x="360" y="10" name="ogonek"/>
  <anchor x="223" y="668" name="top"/>
  <anchor x="17" y="693" name="topleft"/>
  <outline>
    <contour>
      <point x="88" y="0" type="line"/>
      <point x="369" y="0" type="line"/>
      <point x="369" y="31" type="line"/>
      <point x="122" y="31" type="line"/>
      <point x="122" y="348" type="line"/>
      <point x="332" y="348" type="line"/>
      <point x="332" y="379" type="line"/>
      <point x="122" y="379" type="line"/>
      <point x="122" y="662" type="line"/>
      <point x="358" y="662" type="line"/>
      <point x="358" y="693" type="line"/>
      <point x="88" y="693" type="line"/>
    </contour>
  </outline>
</glyph>
<glyph name="H" format="2">
  <advance width="548"/>
  <unicode hex="0048"/>
  <anchor x="274" y="0" name="bottom"/>
  <anchor x="274" y="347" name="center"/>
  <anchor x="274" y="668" name="top"/>
  <anchor x="16" y="693" name="topleft"/>
  <outline>
    <contour>
      <point x="88" y="0" type="line"/>
      <point x="122" y="0" type="line"/>
      <point x="122" y="346" type="line"/>
      <point x="426" y="346" type="line"/>
      <point x="426" y="0" type="line"/>
      <point x="460" y="0" type="line"/>
      <point x="460" y="693" type="line"/>
      <point x="426" y="693" type="line"/>
      <point x="426" y="378" type="line"/>
      <point x="122" y="378" type="line"/>
      <point x="122" y="693" type="line"/>
      <point x="88" y="693" type="line"/>
    </contour>
  </outline>
</glyph>
<glyph name="J" format="2">
  <advance width="353"/>
  <unicode hex="004A"/>
  <anchor x="177" y="0" name="bottom"/>
  <anchor x="252" y="668" name="top"/>
  <outline>
    <contour>
      <point x="117" y="-7" type="curve" smooth="yes"/>
      <point x="197.591" y="-7"/>
      <point x="269" y="26.912"/>
      <point x="269" y="179" type="curve" smooth="yes"/>
      <point x="269" y="693" type="line"/>
      <point x="235" y="693" type="line"/>
      <point x="235" y="178" type="line" smooth="yes"/>
      <point x="235" y="67.409"/>
      <point x="195" y="24"/>
      <point x="117" y="24" type="curve" smooth="yes"/>
      <point x="80" y="24"/>
      <point x="44" y="31"/>
      <point x="13" y="48" type="curve"/>
      <point x="6" y="17" type="line"/>
      <point x="43" y="0"/>
      <point x="80.949" y="-7"/>
    </contour>
  </outline>
</glyph>
<glyph name="K" format="2">
  <advance width="454"/>
  <unicode hex="004B"/>
  <anchor x="238" y="0" name="bottom"/>
  <anchor x="241" y="668" name="top"/>
  <outline>
    <contour>
      <point x="88" y="0" type="line"/>
      <point x="122" y="0" type="line"/>
      <point x="122" y="346" type="line"/>
      <point x="233" y="258"/>
      <point x="327" y="127"/>
      <point x="393" y="0" type="curve"/>
      <point x="434" y="0" type="line"/>
      <point x="373" y="124"/>
      <point x="265" y="268"/>
      <point x="156" y="361" type="curve"/>
      <point x="245" y="458"/>
      <point x="323" y="559"/>
      <point x="411" y="693" type="curve"/>
      <point x="374" y="693" type="line"/>
      <point x="299" y="580"/>
      <point x="218" y="476"/>
      <point x="122" y="369" type="curve"/>
      <point x="122" y="693" type="line"/>
      <point x="88" y="693" type="line"/>
    </contour>
  </outline>
</glyph>
<glyph name="U" format="2">
  <advance width="520"/>
  <unicode hex="0055"/>
  <anchor x="260" y="0" name="bottom"/>
  <anchor x="469" y="10" name="ogonek"/>
  <anchor x="260" y="668" name="top"/>
  <anchor x="500" y="693" name="topright"/>
  <outline>
    <contour>
      <point x="260" y="-8" type="curve"/>
      <point x="381" y="-8"/>
      <point x="438" y="62"/>
      <point x="438" y="211" type="curve" smooth="yes"/>
      <point x="438" y="693" type="line"/>
      <point x="404" y="693" type="line"/>
      <point x="404" y="210" type="line" smooth="yes"/>
      <point x="404" y="83"/>
      <point x="358" y="24"/>
      <point x="260" y="24" type="curve"/>
      <point x="162" y="24"/>
      <point x="116" y="83"/>
      <point x="116" y="210" type="curve" smooth="yes"/>
      <point x="116" y="693" type="line"/>
      <point x="82" y="693" type="line"/>
      <point x="82" y="211" type="line" smooth="yes"/>
      <point x="82" y="62"/>
      <point x="139" y="-8"/>
    </contour>
  </outline>
</glyph>
<glyph name="V" format="2">
  <advance width="457"/>
  <unicode hex="0056"/>
  <anchor x="228" y="0" name="bottom"/>
  <anchor x="228" y="693" name="top"/>
  <outline>
    <contour>
      <point x="209" y="0" type="curve"/>
      <point x="252" y="0" type="line"/>
      <point x="337" y="252"/>
      <point x="398" y="480"/>
      <point x="429" y="693" type="curve"/>
      <point x="395" y="693" type="line"/>
      <point x="366" y="496"/>
      <point x="310" y="265"/>
      <point x="231" y="34" type="curve"/>
      <point x="149" y="266"/>
      <point x="93" y="496"/>
      <point x="63" y="693" type="curve"/>
      <point x="28" y="693" type="line"/>
      <point x="59" y="480"/>
      <point x="120" y="253"/>
    </contour>
  </outline>
</glyph>
<glyph name="b" format="2">
  <advance width="434"/>
  <unicode hex="0062"/>
  <anchor x="213" y="0" name="bottom"/>
  <anchor x="213" y="257" name="center"/>
  <anchor x="213" y="517" name="top"/>
  <outline>
    <contour>
      <point x="199" y="-10" type="curve" smooth="yes"/>
      <point x="335" y="-10"/>
      <point x="380" y="100"/>
      <point x="380" y="265" type="curve" smooth="yes"/>
      <point x="380" y="459"/>
      <point x="301" y="529"/>
      <point x="209" y="529" type="curve" smooth="yes"/>
      <point x="169" y="529"/>
      <point x="134" y="515"/>
      <point x="114" y="500" type="curve"/>
      <point x="114" y="776" type="line"/>
      <point x="82" y="768" type="line"/>
      <point x="82" y="18" type="line"/>
      <point x="121" y="0"/>
      <point x="154" y="-10"/>
    </contour>
    <contour>
      <point x="199" y="20" type="curve" smooth="yes"/>
      <point x="165" y="20"/>
      <point x="134" y="27"/>
      <point x="114" y="38" type="curve"/>
      <point x="114" y="468" type="line"/>
      <point x="134" y="486"/>
      <point x="170" y="499"/>
      <point x="209" y="499" type="curve" smooth="yes"/>
      <point x="264" y="499"/>
      <point x="347" y="469"/>
      <point x="347" y="265" type="curve" smooth="yes"/>
      <point x="347" y="78"/>
      <point x="290" y="20"/>
    </contour>
  </outline>
</glyph>
<glyph name="k" format="2">
  <advance width="355"/>
  <unicode hex="006B"/>
  <anchor x="201" y="0" name="bottom"/>
  <anchor x="184" y="776" name="top"/>
  <outline>
    <contour>
      <point x="82" y="0" type="line"/>
      <point x="114" y="0" type="line"/>
      <point x="114" y="265" type="line"/>
      <point x="196" y="198"/>
      <point x="264" y="97"/>
      <point x="315" y="0" type="curve"/>
      <point x="351" y="0" type="line"/>
      <point x="304" y="95"/>
      <point x="227" y="208"/>
      <point x="147" y="278" type="curve"/>
      <point x="211" y="347"/>
      <point x="267" y="421"/>
      <point x="328" y="517" type="curve"/>
      <point x="293" y="517" type="line"/>
      <point x="241" y="436"/>
      <point x="183" y="360"/>
      <point x="114" y="284" type="curve"/>
      <point x="114" y="776" type="line"/>
      <point x="82" y="768" type="line"/>
    </contour>
  </outline>
</glyph>
<glyph name="l" format="2">
  <advance width="202"/>
  <unicode hex="006C"/>
  <anchor x="126" y="0" name="bottom"/>
  <anchor x="96" y="388" name="center"/>
  <anchor x="96" y="776" name="top"/>
  <anchor x="177" y="776" name="topright"/>
  <outline>
    <contour>
      <point x="171" y="-2" type="curve"/>
      <point x="175" y="26" type="line"/>
      <point x="132" y="36"/>
      <point x="112" y="64"/>
      <point x="112" y="117" type="curve" smooth="yes"/>
      <point x="112" y="776" type="line"/>
      <point x="80" y="768" type="line"/>
      <point x="80" y="118" type="line" smooth="yes"/>
      <point x="80" y="49"/>
      <point x="112" y="7"/>
    </contour>
  </outline>
</glyph>
<glyph name="n" format="2">
  <advance width="453"/>
  <unicode hex="006E"/>
  <anchor x="224" y="0" name="bottom"/>
  <anchor x="223" y="517" name="top"/>
  <outline>
    <contour>
      <point x="82" y="0" type="line"/>
      <point x="114" y="0" type="line"/>
      <point x="114" y="477" type="line"/>
      <point x="146" y="491"/>
      <point x="187" y="497"/>
      <point x="219" y="497" type="curve" smooth="yes"/>
      <point x="308" y="497"/>
      <point x="342" y="448"/>
      <point x="342" y="320" type="curve" smooth="yes"/>
      <point x="342" y="0" type="line"/>
      <point x="374" y="0" type="line"/>
      <point x="374" y="327" type="line" smooth="yes"/>
      <point x="374" y="465"/>
      <point x="331" y="527"/>
      <point x="221" y="527" type="curve" smooth="yes"/>
      <point x="172" y="527"/>
      <point x="125" y="515"/>
      <point x="82" y="498" type="curve"/>
    </contour>
  </outline>
</glyph>
<glyph name="s" format="2">
  <advance width="316"/>
  <unicode hex="0073"/>
  <anchor x="136" y="0" name="bottom"/>
  <anchor x="170" y="517" name="top"/>
  <outline>
    <contour>
      <point x="142" y="-10" type="curve" smooth="yes"/>
      <point x="223.194" y="-10"/>
      <point x="278" y="52"/>
      <point x="278" y="130" type="curve" smooth="yes"/>
      <point x="278" y="196"/>
      <point x="249.239" y="236.867"/>
      <point x="175" y="278" type="curve" smooth="yes"/>
      <point x="111.757" y="313.135"/>
      <point x="83" y="349"/>
      <point x="83" y="403" type="curve" smooth="yes"/>
      <point x="83" y="464"/>
      <point x="116" y="499"/>
      <point x="172" y="499" type="curve" smooth="yes"/>
      <point x="198" y="499"/>
      <point x="231.997" y="492.001"/>
      <point x="258" y="482" type="curve"/>
      <point x="262" y="512" type="line"/>
      <point x="236.242" y="522.898"/>
      <point x="201.678" y="529"/>
      <point x="173" y="529" type="curve" smooth="yes"/>
      <point x="97.385" y="529"/>
      <point x="50" y="476"/>
      <point x="50" y="401" type="curve" smooth="yes"/>
      <point x="50" y="340"/>
      <point x="83.645" y="292.197"/>
      <point x="158" y="251" type="curve" smooth="yes"/>
      <point x="230.278" y="210.846"/>
      <point x="245" y="179"/>
      <point x="245" y="126" type="curve" smooth="yes"/>
      <point x="245" y="66"/>
      <point x="201.14" y="20"/>
      <point x="143" y="20" type="curve" smooth="yes"/>
      <point x="110.629" y="20"/>
      <point x="71.478" y="29.212"/>
      <point x="40" y="42" type="curve"/>
      <point x="34" y="12" type="line"/>
      <point x="66.492" y="-1.785"/>
      <point x="105.673" y="-10"/>
    </contour>
  </outline>
</glyph>
<glyph name="v" format="2">
  <advance width="362"/>
  <unicode hex="0076"/>
  <anchor x="181" y="0" name="bottom"/>
  <anchor x="181" y="517" name="top"/>
  <outline>
    <contour>
      <point x="164" y="0" type="curve"/>
      <point x="198" y="0" type="line"/>
      <point x="250" y="106"/>
      <point x="315" y="343"/>
      <point x="340" y="517" type="curve"/>
      <point x="310" y="517" type="line"/>
      <point x="281" y="347"/>
      <point x="238" y="176"/>
      <point x="182" y="29" type="curve"/>
      <point x="125" y="173"/>
      <point x="82" y="347"/>
      <point x="55" y="517" type="curve"/>
      <point x="22" y="517" type="line"/>
      <point x="47" y="343"/>
      <point x="112" y="106"/>
    </contour>
  </outline>
</glyph>
<glyph name="x" format="2">
  <advance width="358"/>
  <unicode hex="0078"/>
  <anchor x="181" y="0" name="bottom"/>
  <anchor x="181" y="517" name="top"/>
  <outline>
    <contour>
      <point x="22" y="0" type="curve"/>
      <point x="54" y="0" type="line"/>
      <point x="77" y="70"/>
      <point x="128" y="169"/>
      <point x="178" y="255" type="curve"/>
      <point x="230" y="166"/>
      <point x="272" y="79"/>
      <point x="302" y="0" type="curve"/>
      <point x="336" y="0" type="line"/>
      <point x="308" y="74"/>
      <point x="260" y="170"/>
      <point x="196" y="283" type="curve"/>
      <point x="321" y="517" type="line"/>
      <point x="289" y="517" type="line"/>
      <point x="181" y="311" type="line"/>
      <point x="72" y="517" type="line"/>
      <point x="36" y="517" type="line"/>
      <point x="162" y="283" type="line"/>
      <point x="99" y="172"/>
      <point x="49" y="75"/>
    </contour>
  </outline>
</glyph>
<glyph name="asciitilde" format="2">
  <advance width="420"/>
  <unicode hex="007E"/>
  <outline>
    <contour>
      <point x="293" y="238" type="curve" smooth="yes"/>
      <point x="332" y="238"/>
      <point x="373" y="261"/>
      <point x="385" y="347" type="curve"/>
      <point x="355" y="355" type="line"/>
      <point x="346" y="279"/>
      <point x="308" y="272"/>
      <point x="291" y="272" type="curve" smooth="yes"/>
      <point x="240" y="272"/>
      <point x="198" y="358"/>
      <point x="128" y="358" type="curve" smooth="yes"/>
      <point x="89" y="358"/>
      <point x="48" y="335"/>
      <point x="36" y="249" type="curve"/>
      <point x="66" y="241" type="line"/>
      <point x="75" y="317"/>
      <point x="113" y="324"/>
      <point x="130" y="324" type="curve" smooth="yes"/>
      <point x="180" y="324"/>
      <point x="224" y="238"/>
    </contour>
  </outline>
</glyph>
<glyph name="sterling" format="2">
  <advance width="420"/>
  <unicode hex="00A3"/>
  <outline>
    <contour>
      <point x="96" y="0" type="curve"/>
      <point x="380" y="0" type="line"/>
      <point x="380" y="32" type="line"/>
      <point x="136" y="32" type="line"/>
      <point x="151" y="124"/>
      <point x="155" y="243"/>
      <point x="155" y="313" type="curve" smooth="yes"/>
      <point x="155" y="322" type="line"/>
      <point x="320" y="322" type="line"/>
      <point x="320" y="354" type="line"/>
      <point x="155" y="354" type="line"/>
      <point x="155" y="505" type="line" smooth="yes"/>
      <point x="155" y="632"/>
      <point x="202" y="671"/>
      <point x="265" y="671" type="curve" smooth="yes"/>
      <point x="298" y="671"/>
      <point x="330" y="662"/>
      <point x="352" y="651" type="curve"/>
      <point x="362" y="681" type="line"/>
      <point x="338" y="693"/>
      <point x="306" y="703"/>
      <point x="266" y="703" type="curve" smooth="yes"/>
      <point x="193" y="703"/>
      <point x="120" y="662"/>
      <point x="120" y="505" type="curve" smooth="yes"/>
      <point x="120" y="354" type="line"/>
      <point x="44" y="354" type="line"/>
      <point x="44" y="322" type="line"/>
      <point x="120" y="322" type="line"/>
      <point x="120" y="314" type="line" smooth="yes"/>
      <point x="120" y="186"/>
      <point x="109" y="88"/>
    </contour>
  </outline>
</glyph>
<glyph name="currency" format="2">
  <advance width="412"/>
  <unicode hex="00A4"/>
  <outline>
    <contour>
      <point x="67" y="121" type="line"/>
      <point x="119" y="196" type="line"/>
      <point x="143" y="174"/>
      <point x="173" y="162"/>
      <point x="207" y="162" type="curve" smooth="yes"/>
      <point x="240" y="162"/>
      <point x="270" y="173"/>
      <point x="294" y="195" type="curve"/>
      <point x="345" y="121" type="line"/>
      <point x="371" y="140" type="line"/>
      <point x="316" y="220" type="line"/>
      <point x="337" y="251"/>
      <point x="349" y="294"/>
      <point x="349" y="347" type="curve" smooth="yes"/>
      <point x="349" y="401"/>
      <point x="336" y="445"/>
      <point x="314" y="476" type="curve"/>
      <point x="371" y="558" type="line"/>
      <point x="345" y="577" type="line"/>
      <point x="292" y="501" type="line"/>
      <point x="269" y="521"/>
      <point x="240" y="532"/>
      <point x="207" y="532" type="curve" smooth="yes"/>
      <point x="174" y="532"/>
      <point x="144" y="521"/>
      <point x="121" y="500" type="curve"/>
      <point x="67" y="577" type="line"/>
      <point x="41" y="558" type="line"/>
      <point x="99" y="475" type="line"/>
      <point x="77" y="444"/>
      <point x="65" y="400"/>
      <point x="65" y="347" type="curve" smooth="yes"/>
      <point x="65" y="295"/>
      <point x="77" y="252"/>
      <point x="98" y="221" type="curve"/>
      <point x="41" y="140" type="line"/>
    </contour>
    <contour>
      <point x="207" y="194" type="curve" smooth="yes"/>
      <point x="145" y="194"/>
      <point x="99" y="244"/>
      <point x="99" y="347" type="curve" smooth="yes"/>
      <point x="99" y="452"/>
      <point x="145" y="500"/>
      <point x="207" y="500" type="curve" smooth="yes"/>
      <point x="269" y="500"/>
      <point x="315" y="452"/>
      <point x="315" y="347" type="curve" smooth="yes"/>
      <point x="315" y="244"/>
      <point x="269" y="194"/>
    </contour>
  </outline>
</glyph>
<glyph name="yen" format="2">
  <advance width="420"/>
  <unicode hex="00A5"/>
  <outline>
    <contour>
      <point x="193" y="0" type="line"/>
      <point x="227" y="0" type="line"/>
      <point x="227" y="137" type="line"/>
      <point x="351" y="137" type="line"/>
      <point x="351" y="167" type="line"/>
      <point x="227" y="167" type="line"/>
      <point x="227" y="300" type="line"/>
      <point x="351" y="300" type="line"/>
      <point x="351" y="330" type="line"/>
      <point x="239" y="330" type="line"/>
      <point x="293" y="434"/>
      <point x="351" y="555"/>
      <point x="398" y="693" type="curve"/>
      <point x="364" y="693" type="line"/>
      <point x="328" y="583"/>
      <point x="274" y="465"/>
      <point x="210" y="338" type="curve"/>
      <point x="146" y="465"/>
      <point x="92" y="583"/>
      <point x="56" y="693" type="curve"/>
      <point x="21" y="693" type="line"/>
      <point x="68" y="555"/>
      <point x="125" y="433"/>
      <point x="179" y="330" type="curve"/>
      <point x="69" y="330" type="line"/>
      <point x="69" y="300" type="line"/>
      <point x="193" y="300" type="line"/>
      <point x="193" y="167" type="line"/>
      <point x="69" y="167" type="line"/>
      <point x="69" y="137" type="line"/>
      <point x="193" y="137" type="line"/>
    </contour>
  </outline>
</glyph>
<glyph name="dieresis" format="2">
  <advance width="314"/>
  <unicode hex="00A8"/>
  <outline>
    <contour>
      <point x="222" y="639" type="curve" smooth="yes"/>
      <point x="237" y="639"/>
      <point x="251" y="653"/>
      <point x="251" y="669" type="curve" smooth="yes"/>
      <point x="251" y="688"/>
      <point x="237" y="701"/>
      <point x="222" y="701" type="curve" smooth="yes"/>
      <point x="206" y="701"/>
      <point x="193" y="688"/>
      <point x="193" y="669" type="curve" smooth="yes"/>
      <point x="193" y="653"/>
      <point x="206" y="639"/>
    </contour>
    <contour>
      <point x="92" y="639" type="curve" smooth="yes"/>
      <point x="107" y="639"/>
      <point x="121" y="653"/>
      <point x="121" y="669" type="curve" smooth="yes"/>
      <point x="121" y="688"/>
      <point x="107" y="701"/>
      <point x="92" y="701" type="curve" smooth="yes"/>
      <point x="76" y="701"/>
      <point x="63" y="688"/>
      <point x="63" y="669" type="curve" smooth="yes"/>
      <point x="63" y="653"/>
      <point x="76" y="639"/>
    </contour>
  </outline>
</glyph>
<glyph name="registered" format="2">
  <advance width="504"/>
  <unicode hex="00AE"/>
  <outline>
    <contour>
      <point x="250" y="268" type="curve" smooth="yes"/>
      <point x="375" y="268"/>
      <point x="449" y="369"/>
      <point x="449" y="507" type="curve" smooth="yes"/>
      <point x="449" y="645"/>
      <point x="375" y="748"/>
      <point x="250" y="748" type="curve" smooth="yes"/>
      <point x="125" y="748"/>
      <point x="50" y="645"/>
      <point x="50" y="507" type="curve" smooth="yes"/>
      <point x="50" y="370"/>
      <point x="125" y="268"/>
    </contour>
    <contour>
      <point x="250" y="293" type="curve" smooth="yes"/>
      <point x="145" y="293"/>
      <point x="77" y="379"/>
      <point x="77" y="507" type="curve" smooth="yes"/>
      <point x="77" y="636"/>
      <point x="145" y="723"/>
      <point x="250" y="723" type="curve" smooth="yes"/>
      <point x="351" y="723"/>
      <point x="422" y="638"/>
      <point x="422" y="507" type="curve" smooth="yes"/>
      <point x="422" y="380"/>
      <point x="353" y="293"/>
    </contour>
    <contour>
      <point x="179" y="379" type="line"/>
      <point x="207" y="379" type="line"/>
      <point x="207" y="485" type="line"/>
      <point x="226" y="485" type="line" smooth="yes"/>
      <point x="233" y="485"/>
      <point x="240" y="485"/>
      <point x="247" y="485" type="curve"/>
      <point x="270" y="453"/>
      <point x="292" y="411"/>
      <point x="308" y="379" type="curve"/>
      <point x="339" y="379" type="line"/>
      <point x="315" y="427"/>
      <point x="291" y="467"/>
      <point x="275" y="491" type="curve"/>
      <point x="309" y="505"/>
      <point x="325" y="530"/>
      <point x="325" y="562" type="curve" smooth="yes"/>
      <point x="325" y="612"/>
      <point x="299" y="640"/>
      <point x="239" y="640" type="curve" smooth="yes"/>
      <point x="219" y="640"/>
      <point x="200" y="637"/>
      <point x="179" y="632" type="curve"/>
    </contour>
    <contour>
      <point x="207" y="508" type="line"/>
      <point x="207" y="614" type="line"/>
      <point x="216" y="615"/>
      <point x="229" y="617"/>
      <point x="239" y="617" type="curve" smooth="yes"/>
      <point x="278" y="617"/>
      <point x="298" y="598"/>
      <point x="298" y="562" type="curve"/>
      <point x="298" y="526"/>
      <point x="277" y="508"/>
      <point x="239" y="508" type="curve" smooth="yes"/>
    </contour>
  </outline>
</glyph>
<glyph name="plusminus" format="2">
  <advance width="420"/>
  <unicode hex="00B1"/>
  <outline>
    <contour>
      <point x="193" y="126" type="line"/>
      <point x="227" y="126" type="line"/>
      <point x="227" y="290" type="line"/>
      <point x="377" y="290" type="line"/>
      <point x="377" y="321" type="line"/>
      <point x="227" y="321" type="line"/>
      <point x="227" y="486" type="line"/>
      <point x="193" y="486" type="line"/>
      <point x="193" y="321" type="line"/>
      <point x="43" y="321" type="line"/>
      <point x="43" y="290" type="line"/>
      <point x="193" y="290" type="line"/>
    </contour>
    <contour>
      <point x="43" y="10" type="line"/>
      <point x="377" y="10" type="line"/>
      <point x="377" y="41" type="line"/>
      <point x="43" y="41" type="line"/>
    </contour>
  </outline>
</glyph>
<glyph name="micro" format="2">
  <advance width="460"/>
  <unicode hex="00B5"/>
  <outline>
    <contour>
      <point x="84" y="-185" type="line"/>
      <point x="116" y="-185" type="line"/>
      <point x="116" y="-71" type="line" smooth="yes"/>
      <point x="116" y="-32"/>
      <point x="116" y="12"/>
      <point x="116" y="51" type="curve"/>
      <point x="140" y="0"/>
      <point x="189" y="-10"/>
      <point x="237" y="-10" type="curve" smooth="yes"/>
      <point x="286" y="-10"/>
      <point x="333" y="2"/>
      <point x="376" y="19" type="curve"/>
      <point x="376" y="517" type="line"/>
      <point x="344" y="517" type="line"/>
      <point x="344" y="40" type="line"/>
      <point x="312" y="26"/>
      <point x="271" y="20"/>
      <point x="239" y="20" type="curve" smooth="yes"/>
      <point x="157" y="20"/>
      <point x="116" y="65"/>
      <point x="116" y="184" type="curve" smooth="yes"/>
      <point x="116" y="517" type="line"/>
      <point x="84" y="517" type="line"/>
    </contour>
  </outline>
</glyph>
<glyph name="questiondown" format="2">
  <advance width="298"/>
  <unicode hex="00BF"/>
  <outline>
    <contour>
      <point x="162" y="-186" type="curve" smooth="yes"/>
      <point x="207" y="-186"/>
      <point x="243" y="-173"/>
      <point x="276" y="-150" type="curve"/>
      <point x="259" y="-124" type="line"/>
      <point x="235" y="-142"/>
      <point x="203" y="-154"/>
      <point x="163" y="-154" type="curve" smooth="yes"/>
      <point x="98" y="-154"/>
      <point x="61" y="-115"/>
      <point x="61" y="-48" type="curve" smooth="yes"/>
      <point x="61" y="89"/>
      <point x="202" y="109"/>
      <point x="202" y="277" type="curve" smooth="yes"/>
      <point x="202" y="298"/>
      <point x="200" y="318"/>
      <point x="198" y="336" type="curve"/>
      <point x="167" y="336" type="line"/>
      <point x="170" y="318"/>
      <point x="170" y="300"/>
      <point x="170" y="282" type="curve" smooth="yes"/>
      <point x="170" y="123"/>
      <point x="26" y="101"/>
      <point x="26" y="-48" type="curve" smooth="yes"/>
      <point x="26" y="-125"/>
      <point x="67" y="-186"/>
    </contour>
    <contour>
      <point x="187" y="465" type="curve" smooth="yes"/>
      <point x="203" y="465"/>
      <point x="215" y="477"/>
      <point x="215" y="494" type="curve" smooth="yes"/>
      <point x="215" y="510"/>
      <point x="203" y="524"/>
      <point x="187" y="524" type="curve" smooth="yes"/>
      <point x="173" y="524"/>
      <point x="160" y="510"/>
      <point x="160" y="494" type="curve" smooth="yes"/>
      <point x="160" y="477"/>
      <point x="173" y="465"/>
    </contour>
  </outline>
</glyph>
<glyph name="AE" format="2">
  <advance width="695"/>
  <unicode hex="00C6"/>
  <anchor x="348" y="0" name="bottom"/>
  <anchor x="449" y="668" name="top"/>
  <outline>
    <contour>
      <point x="28" y="0" type="curve"/>
      <point x="62" y="0" type="line"/>
      <point x="85" y="66"/>
      <point x="111" y="134"/>
      <point x="139" y="200" type="curve"/>
      <point x="368" y="200" type="line"/>
      <point x="368" y="0" type="line"/>
      <point x="643" y="0" type="line"/>
      <point x="643" y="31" type="line"/>
      <point x="402" y="31" type="line"/>
      <point x="402" y="348" type="line"/>
      <point x="606" y="348" type="line"/>
      <point x="606" y="379" type="line"/>
      <point x="402" y="379" type="line"/>
      <point x="402" y="662" type="line"/>
      <point x="632" y="662" type="line"/>
      <point x="632" y="693" type="line"/>
      <point x="367" y="693" type="line"/>
      <point x="252" y="522"/>
      <point x="122" y="267"/>
    </contour>
    <contour>
      <point x="154" y="233" type="line"/>
      <point x="222" y="390"/>
      <point x="301" y="537"/>
      <point x="368" y="641" type="curve"/>
      <point x="368" y="233" type="line"/>
    </contour>
  </outline>
</glyph>
<glyph name="Oslash" format="2">
  <advance width="576"/>
  <unicode hex="00D8"/>
  <anchor x="288" y="0" name="bottom"/>
  <anchor x="288" y="668" name="top"/>
  <outline>
    <contour>
      <point x="96" y="-28" type="line"/>
      <point x="142" y="55" type="line"/>
      <point x="179" y="13"/>
      <point x="228" y="-9"/>
      <point x="288" y="-9" type="curve" smooth="yes"/>
      <point x="432" y="-9"/>
      <point x="514" y="120"/>
      <point x="514" y="344" type="curve" smooth="yes"/>
      <point x="514" y="460"/>
      <point x="493" y="551"/>
      <point x="453" y="612" type="curve"/>
      <point x="508" y="711" type="line"/>
      <point x="480" y="724" type="line"/>
      <point x="433" y="639" type="line"/>
      <point x="396" y="681"/>
      <point x="347" y="703"/>
      <point x="288" y="703" type="curve" smooth="yes"/>
      <point x="144" y="703"/>
      <point x="62" y="572"/>
      <point x="62" y="344" type="curve" smooth="yes"/>
      <point x="62" y="230"/>
      <point x="83" y="141"/>
      <point x="123" y="80" type="curve"/>
      <point x="70" y="-15" type="line"/>
    </contour>
    <contour>
      <point x="142" y="115" type="line"/>
      <point x="113" y="169"/>
      <point x="98" y="247"/>
      <point x="98" y="344" type="curve" smooth="yes"/>
      <point x="98" y="552"/>
      <point x="165" y="672"/>
      <point x="288" y="672" type="curve" smooth="yes"/>
      <point x="341" y="672"/>
      <point x="384" y="650"/>
      <point x="415" y="607" type="curve"/>
    </contour>
    <contour>
      <point x="288" y="22" type="curve" smooth="yes"/>
      <point x="234" y="22"/>
      <point x="191" y="44"/>
      <point x="160" y="87" type="curve"/>
      <point x="434" y="578" type="line"/>
      <point x="463" y="522"/>
      <point x="478" y="443"/>
      <point x="478" y="344" type="curve" smooth="yes"/>
      <point x="478" y="139"/>
      <point x="411" y="22"/>
    </contour>
  </outline>
</glyph>
<glyph name="divide" format="2">
  <advance width="420"/>
  <unicode hex="00F7"/>
  <outline>
    <contour>
      <point x="43" y="284" type="line"/>
      <point x="377" y="284" type="line"/>
      <point x="377" y="315" type="line"/>
      <point x="43" y="315" type="line"/>
    </contour>
    <contour>
      <point x="211" y="127" type="curve" smooth="yes"/>
      <point x="227" y="127"/>
      <point x="241" y="141"/>
      <point x="241" y="158" type="curve" smooth="yes"/>
      <point x="241" y="177"/>
      <point x="227" y="190"/>
      <point x="211" y="190" type="curve" smooth="yes"/>
      <point x="193" y="190"/>
      <point x="180" y="177"/>
      <point x="180" y="158" type="curve" smooth="yes"/>
      <point x="180" y="141"/>
      <point x="193" y="127"/>
    </contour>
    <contour>
      <point x="211" y="409" type="curve" smooth="yes"/>
      <point x="227" y="409"/>
      <point x="241" y="423"/>
      <point x="241" y="440" type="curve" smooth="yes"/>
      <point x="241" y="459"/>
      <point x="227" y="472"/>
      <point x="211" y="472" type="curve" smooth="yes"/>
      <point x="193" y="472"/>
      <point x="180" y="459"/>
      <point x="180" y="440" type="curve" smooth="yes"/>
      <point x="180" y="423"/>
      <point x="193" y="409"/>
    </contour>
  </outline>
</glyph>
<glyph name="Aogonek" format="2">
  <advance width="461"/>
  <unicode hex="0104"/>
  <outline>
    <contour>
      <point x="393" y="-186" type="curve" smooth="yes"/>
      <point x="408" y="-186"/>
      <point x="423" y="-184"/>
      <point x="436" y="-179" type="curve"/>
      <point x="433" y="-153" type="line"/>
      <point x="420" y="-157"/>
      <point x="409" y="-158"/>
      <point x="399" y="-158" type="curve" smooth="yes"/>
      <point x="370" y="-158"/>
      <point x="357" y="-142"/>
      <point x="357" y="-110" type="curve" smooth="yes"/>
      <point x="357" y="-75"/>
      <point x="388" y="-37"/>
      <point x="433" y="0" type="curve"/>
      <point x="402" y="213"/>
      <point x="338" y="440"/>
      <point x="249" y="693" type="curve"/>
      <point x="208" y="693" type="line"/>
      <point x="123" y="440"/>
      <point x="59" y="213"/>
      <point x="28" y="0" type="curve"/>
      <point x="61" y="0" type="line"/>
      <point x="71" y="64"/>
      <point x="83" y="131"/>
      <point x="98" y="200" type="curve"/>
      <point x="361" y="200" type="line"/>
      <point x="376" y="132"/>
      <point x="389" y="64"/>
      <point x="399" y="0" type="curve"/>
      <point x="399" y="0" type="line"/>
      <point x="356" y="-37"/>
      <point x="326" y="-77"/>
      <point x="326" y="-114" type="curve" smooth="yes"/>
      <point x="326" y="-158"/>
      <point x="352" y="-186"/>
    </contour>
    <contour>
      <point x="106" y="233" type="line"/>
      <point x="137" y="370"/>
      <point x="178" y="515"/>
      <point x="229" y="660" type="curve"/>
      <point x="281" y="515"/>
      <point x="322" y="370"/>
      <point x="354" y="233" type="curve"/>
    </contour>
  </outline>
</glyph>
<glyph name="Iogonek" format="2">
  <advance width="210"/>
  <unicode hex="012E"/>
  <outline>
    <contour>
      <point x="83" y="-186" type="curve" smooth="yes"/>
      <point x="98" y="-186"/>
      <point x="113" y="-184"/>
      <point x="126" y="-179" type="curve"/>
      <point x="123" y="-153" type="line"/>
      <point x="110" y="-157"/>
      <point x="99" y="-158"/>
      <point x="89" y="-158" type="curve" smooth="yes"/>
      <point x="60" y="-158"/>
      <point x="47" y="-142"/>
      <point x="47" y="-110" type="curve" smooth="yes"/>
      <point x="47" y="-74"/>
      <point x="74" y="-40"/>
      <point x="122" y="0" type="curve"/>
      <point x="122" y="693" type="line"/>
      <point x="88" y="693" type="line"/>
      <point x="88" y="0" type="line"/>
      <point x="88" y="0" type="line"/>
      <point x="42" y="-39"/>
      <point x="16" y="-76"/>
      <point x="16" y="-114" type="curve" smooth="yes"/>
      <point x="16" y="-158"/>
      <point x="42" y="-186"/>
    </contour>
  </outline>
</glyph>
<glyph name="iogonek" format="2">
  <advance width="196"/>
  <unicode hex="012F"/>
  <outline>
    <contour>
      <point x="83" y="-186" type="curve" smooth="yes"/>
      <point x="98" y="-186"/>
      <point x="113" y="-184"/>
      <point x="126" y="-179" type="curve"/>
      <point x="123" y="-153" type="line"/>
      <point x="110" y="-157"/>
      <point x="99" y="-158"/>
      <point x="89" y="-158" type="curve" smooth="yes"/>
      <point x="60" y="-158"/>
      <point x="47" y="-142"/>
      <point x="47" y="-110" type="curve" smooth="yes"/>
      <point x="47" y="-74"/>
      <point x="70" y="-37"/>
      <point x="114" y="0" type="curve"/>
      <point x="114" y="517" type="line"/>
      <point x="82" y="517" type="line"/>
      <point x="82" y="3" type="line"/>
      <point x="82" y="3" type="line"/>
      <point x="38" y="-35"/>
      <point x="16" y="-76"/>
      <point x="16" y="-114" type="curve" smooth="yes"/>
      <point x="16" y="-158"/>
      <point x="42" y="-186"/>
    </contour>
    <contour>
      <point x="99" y="638" type="curve" smooth="yes"/>
      <point x="116" y="638"/>
      <point x="128" y="651"/>
      <point x="128" y="668" type="curve" smooth="yes"/>
      <point x="128" y="685"/>
      <point x="116" y="698"/>
      <point x="99" y="698" type="curve" smooth="yes"/>
      <point x="81" y="698"/>
      <point x="69" y="685"/>
      <point x="69" y="668" type="curve" smooth="yes"/>
      <point x="69" y="651"/>
      <point x="81" y="638"/>
    </contour>
  </outline>
</glyph>
<glyph name="kgreenlandic" format="2">
  <advance width="365"/>
  <unicode hex="0138"/>
  <anchor x="183" y="0" name="bottom"/>
  <anchor x="183" y="517" name="top"/>
  <outline>
    <contour>
      <point x="82" y="0" type="line"/>
      <point x="114" y="0" type="line"/>
      <point x="114" y="265" type="line"/>
      <point x="197" y="197"/>
      <point x="272" y="97"/>
      <point x="323" y="0" type="curve"/>
      <point x="359" y="0" type="line"/>
      <point x="312" y="95"/>
      <point x="228" y="207"/>
      <point x="147" y="278" type="curve"/>
      <point x="213" y="348"/>
      <point x="275" y="421"/>
      <point x="336" y="517" type="curve"/>
      <point x="301" y="517" type="line"/>
      <point x="249" y="436"/>
      <point x="186" y="361"/>
      <point x="114" y="284" type="curve"/>
      <point x="114" y="517" type="line"/>
      <point x="82" y="517" type="line"/>
    </contour>
  </outline>
</glyph>
<glyph name="eng" format="2">
  <advance width="453"/>
  <unicode hex="014B"/>
  <anchor x="227" y="0" name="bottom"/>
  <anchor x="227" y="517" name="top"/>
  <outline>
    <contour>
      <point x="281" y="-188" type="curve" smooth="yes"/>
      <point x="354" y="-188"/>
      <point x="374" y="-129"/>
      <point x="374" y="-66" type="curve" smooth="yes"/>
      <point x="374" y="327" type="line" smooth="yes"/>
      <point x="374" y="465"/>
      <point x="331" y="527"/>
      <point x="221" y="527" type="curve" smooth="yes"/>
      <point x="172" y="527"/>
      <point x="125" y="515"/>
      <point x="82" y="498" type="curve"/>
      <point x="82" y="0" type="line"/>
      <point x="114" y="0" type="line"/>
      <point x="114" y="477" type="line"/>
      <point x="146" y="491"/>
      <point x="187" y="497"/>
      <point x="219" y="497" type="curve" smooth="yes"/>
      <point x="308" y="497"/>
      <point x="342" y="448"/>
      <point x="342" y="320" type="curve" smooth="yes"/>
      <point x="342" y="-65" type="line" smooth="yes"/>
      <point x="342" y="-125"/>
      <point x="329" y="-158"/>
      <point x="274" y="-158" type="curve" smooth="yes"/>
      <point x="267" y="-158"/>
      <point x="253" y="-157"/>
      <point x="243" y="-154" type="curve"/>
      <point x="240" y="-182" type="line"/>
      <point x="254" y="-186"/>
      <point x="266" y="-188"/>
    </contour>
  </outline>
</glyph>
<glyph name="Tbar" format="2">
  <advance width="399"/>
  <unicode hex="0166"/>
  <outline>
    <contour>
      <point x="182" y="0" type="line"/>
      <point x="216" y="0" type="line"/>
      <point x="216" y="334" type="line"/>
      <point x="296" y="334" type="line"/>
      <point x="296" y="365" type="line"/>
      <point x="216" y="365" type="line"/>
      <point x="216" y="661" type="line"/>
      <point x="379" y="661" type="line"/>
      <point x="379" y="693" type="line"/>
      <point x="20" y="693" type="line"/>
      <point x="20" y="661" type="line"/>
      <point x="182" y="661" type="line"/>
      <point x="182" y="365" type="line"/>
      <point x="102" y="365" type="line"/>
      <point x="102" y="334" type="line"/>
      <point x="182" y="334" type="line"/>
    </contour>
  </outline>
</glyph>
<glyph name="Btopbar" format="2">
  <advance width="476"/>
  <unicode hex="0182"/>
  <outline>
    <contour>
      <point x="200" y="-2" type="curve" smooth="yes"/>
      <point x="348" y="-2"/>
      <point x="432" y="67"/>
      <point x="432" y="205" type="curve" smooth="yes"/>
      <point x="432" y="372"/>
      <point x="337" y="414"/>
      <point x="205" y="414" type="curve" smooth="yes"/>
      <point x="122" y="414" type="line"/>
      <point x="122" y="661" type="line"/>
      <point x="371" y="661" type="line"/>
      <point x="371" y="693" type="line"/>
      <point x="88" y="693" type="line"/>
      <point x="88" y="12" type="line"/>
      <point x="117" y="5"/>
      <point x="161" y="-2"/>
    </contour>
    <contour>
      <point x="198" y="30" type="curve" smooth="yes"/>
      <point x="177" y="30"/>
      <point x="147" y="33"/>
      <point x="122" y="39" type="curve"/>
      <point x="122" y="382" type="line"/>
      <point x="215" y="382" type="line" smooth="yes"/>
      <point x="343" y="382"/>
      <point x="396" y="326"/>
      <point x="396" y="206" type="curve" smooth="yes"/>
      <point x="396" y="86"/>
      <point x="329" y="30"/>
    </contour>
  </outline>
</glyph>
<glyph name="tonesix" format="2">
  <advance width="462"/>
  <unicode hex="0185"/>
  <outline>
    <contour>
      <point x="219" y="-2" type="curve" smooth="yes"/>
      <point x="362" y="-2"/>
      <point x="430" y="68"/>
      <point x="430" y="209" type="curve" smooth="yes"/>
      <point x="430" y="323"/>
      <point x="386" y="421"/>
      <point x="219" y="421" type="curve" smooth="yes"/>
      <point x="188" y="421"/>
      <point x="157" y="420"/>
      <point x="126" y="417" type="curve"/>
      <point x="126" y="695" type="line"/>
      <point x="103" y="689"/>
      <point x="69" y="670"/>
      <point x="51" y="656" type="curve"/>
      <point x="92" y="586" type="line"/>
      <point x="92" y="12" type="line"/>
      <point x="130" y="3"/>
      <point x="176" y="-2"/>
    </contour>
    <contour>
      <point x="215" y="30" type="curve" smooth="yes"/>
      <point x="187" y="30"/>
      <point x="151" y="34"/>
      <point x="126" y="39" type="curve"/>
      <point x="126" y="385" type="line"/>
      <point x="156" y="388"/>
      <point x="185" y="389"/>
      <point x="215" y="389" type="curve"/>
      <point x="359" y="389"/>
      <point x="394" y="313"/>
      <point x="394" y="206" type="curve" smooth="yes"/>
      <point x="394" y="86"/>
      <point x="339" y="30"/>
    </contour>
  </outline>
</glyph>
<glyph name="Dtopbar" format="2">
  <advance width="476"/>
  <unicode hex="018B"/>
  <anchor x="238" y="0" name="bottom"/>
  <anchor x="238" y="693" name="top"/>
  <outline>
    <contour>
      <point x="276" y="-2" type="curve" smooth="yes"/>
      <point x="315" y="-2"/>
      <point x="359" y="5"/>
      <point x="388" y="12" type="curve"/>
      <point x="388" y="693" type="line"/>
      <point x="105" y="693" type="line"/>
      <point x="105" y="661" type="line"/>
      <point x="354" y="661" type="line"/>
      <point x="354" y="414" type="line"/>
      <point x="271" y="414" type="line" smooth="yes"/>
      <point x="139" y="414"/>
      <point x="44" y="372"/>
      <point x="44" y="205" type="curve" smooth="yes"/>
      <point x="44" y="67"/>
      <point x="128" y="-2"/>
    </contour>
    <contour>
      <point x="278" y="30" type="curve" smooth="yes"/>
      <point x="147" y="30"/>
      <point x="80" y="86"/>
      <point x="80" y="206" type="curve" smooth="yes"/>
      <point x="80" y="326"/>
      <point x="133" y="382"/>
      <point x="261" y="382" type="curve" smooth="yes"/>
      <point x="354" y="382" type="line"/>
      <point x="354" y="39" type="line"/>
      <point x="329" y="33"/>
      <point x="299" y="30"/>
    </contour>
  </outline>
</glyph>
<glyph name="deltaturned" format="2">
  <advance width="432"/>
  <unicode hex="018D"/>
  <outline>
    <contour>
      <point x="191" y="-185" type="curve" smooth="yes"/>
      <point x="279" y="-185"/>
      <point x="331" y="-149"/>
      <point x="331" y="-80" type="curve" smooth="yes"/>
      <point x="331" y="-20"/>
      <point x="294" y="6"/>
      <point x="249" y="32" type="curve"/>
      <point x="346" y="83"/>
      <point x="382" y="183"/>
      <point x="382" y="289" type="curve" smooth="yes"/>
      <point x="382" y="432"/>
      <point x="319" y="529"/>
      <point x="216" y="529" type="curve" smooth="yes"/>
      <point x="116" y="529"/>
      <point x="50" y="438"/>
      <point x="50" y="289" type="curve" smooth="yes"/>
      <point x="50" y="111"/>
      <point x="138" y="59"/>
      <point x="209" y="19" type="curve" smooth="yes"/>
      <point x="258" y="-8"/>
      <point x="298" y="-30"/>
      <point x="298" y="-81" type="curve" smooth="yes"/>
      <point x="298" y="-131"/>
      <point x="259" y="-155"/>
      <point x="191" y="-155" type="curve" smooth="yes"/>
      <point x="153" y="-155"/>
      <point x="127" y="-145"/>
      <point x="103" y="-136" type="curve"/>
      <point x="94" y="-165" type="line"/>
      <point x="116" y="-174"/>
      <point x="151" y="-185"/>
    </contour>
    <contour>
      <point x="221" y="48" type="curve"/>
      <point x="154" y="85"/>
      <point x="83" y="136"/>
      <point x="83" y="289" type="curve" smooth="yes"/>
      <point x="83" y="425"/>
      <point x="134" y="499"/>
      <point x="216" y="499" type="curve" smooth="yes"/>
      <point x="300" y="499"/>
      <point x="349" y="419"/>
      <point x="349" y="289" type="curve" smooth="yes"/>
      <point x="349" y="186"/>
      <point x="308" y="89"/>
    </contour>
  </outline>
</glyph>
<glyph name="Schwa" format="2">
  <advance width="509"/>
  <unicode hex="018F"/>
  <anchor x="255" y="0" name="bottom"/>
  <anchor x="241" y="668" name="top"/>
  <outline>
    <contour>
      <point x="243" y="-10" type="curve" smooth="yes"/>
      <point x="373" y="-10"/>
      <point x="447" y="120"/>
      <point x="447" y="347" type="curve" smooth="yes"/>
      <point x="447" y="572"/>
      <point x="363" y="703"/>
      <point x="218" y="703" type="curve" smooth="yes"/>
      <point x="174" y="703"/>
      <point x="130" y="694"/>
      <point x="81" y="672" type="curve"/>
      <point x="88" y="642" type="line"/>
      <point x="126" y="662"/>
      <point x="173" y="672"/>
      <point x="214" y="672" type="curve" smooth="yes"/>
      <point x="349" y="672"/>
      <point x="411" y="551"/>
      <point x="411" y="351" type="curve"/>
      <point x="61" y="351" type="line"/>
      <point x="59" y="328"/>
      <point x="58" y="303"/>
      <point x="58" y="290" type="curve" smooth="yes"/>
      <point x="58" y="89"/>
      <point x="132" y="-10"/>
    </contour>
    <contour>
      <point x="244" y="21" type="curve" smooth="yes"/>
      <point x="142" y="21"/>
      <point x="86" y="121"/>
      <point x="92" y="320" type="curve"/>
      <point x="411" y="320" type="line"/>
      <point x="411" y="141"/>
      <point x="350" y="21"/>
    </contour>
  </outline>
</glyph>
<glyph name="Fhook" format="2">
  <advance width="390"/>
  <unicode hex="0191"/>
  <outline>
    <contour>
      <point x="31" y="-189" type="curve" smooth="yes"/>
      <point x="92" y="-189"/>
      <point x="122" y="-151"/>
      <point x="122" y="-67" type="curve" smooth="yes"/>
      <point x="122" y="346" type="line"/>
      <point x="327" y="346" type="line"/>
      <point x="327" y="377" type="line"/>
      <point x="122" y="377" type="line"/>
      <point x="122" y="662" type="line"/>
      <point x="352" y="662" type="line"/>
      <point x="352" y="693" type="line"/>
      <point x="88" y="693" type="line"/>
      <point x="88" y="-68" type="line" smooth="yes"/>
      <point x="88" y="-130"/>
      <point x="71" y="-158"/>
      <point x="32" y="-158" type="curve" smooth="yes"/>
      <point x="16" y="-158"/>
      <point x="2" y="-156"/>
      <point x="-9" y="-152" type="curve"/>
      <point x="-17" y="-181" type="line"/>
      <point x="-5" y="-186"/>
      <point x="10" y="-189"/>
    </contour>
  </outline>
</glyph>
<glyph name="florin" format="2">
  <advance width="325"/>
  <unicode hex="0192"/>
  <outline>
    <contour>
      <point x="38" y="-189" type="curve" smooth="yes"/>
      <point x="106" y="-189"/>
      <point x="133" y="-151"/>
      <point x="133" y="-55" type="curve" smooth="yes"/>
      <point x="133" y="487" type="line"/>
      <point x="279" y="487" type="line"/>
      <point x="279" y="517" type="line"/>
      <point x="133" y="517" type="line"/>
      <point x="133" y="618" type="line" smooth="yes"/>
      <point x="133" y="704"/>
      <point x="166" y="746"/>
      <point x="233" y="746" type="curve" smooth="yes"/>
      <point x="253" y="746"/>
      <point x="274" y="741"/>
      <point x="294" y="731" type="curve"/>
      <point x="306" y="758" type="line"/>
      <point x="287" y="768"/>
      <point x="257" y="776"/>
      <point x="233" y="776" type="curve" smooth="yes"/>
      <point x="149" y="776"/>
      <point x="99" y="717"/>
      <point x="99" y="617" type="curve" smooth="yes"/>
      <point x="99" y="-55" type="line" smooth="yes"/>
      <point x="99" y="-133"/>
      <point x="84" y="-159"/>
      <point x="38" y="-159" type="curve" smooth="yes"/>
      <point x="21" y="-159"/>
      <point x="4" y="-156"/>
      <point x="-11" y="-151" type="curve"/>
      <point x="-16" y="-180" type="line"/>
      <point x="0" y="-186"/>
      <point x="22" y="-189"/>
    </contour>
  </outline>
</glyph>
<glyph name="lambdastroke" format="2">
  <advance width="371"/>
  <unicode hex="019B"/>
  <anchor x="186" y="0" name="bottom"/>
  <anchor x="186" y="776" name="top"/>
  <outline>
    <contour>
      <point x="13" y="0" type="curve"/>
      <point x="44" y="0" type="line"/>
      <point x="83" y="184"/>
      <point x="138" y="361"/>
      <point x="197" y="492" type="curve"/>
      <point x="240" y="348"/>
      <point x="277" y="200"/>
      <point x="322" y="0" type="curve"/>
      <point x="355" y="0" type="line"/>
      <point x="306" y="219"/>
      <point x="262" y="390"/>
      <point x="193" y="608" type="curve"/>
      <point x="296" y="640" type="line"/>
      <point x="287" y="668" type="line"/>
      <point x="184" y="635" type="line"/>
      <point x="151" y="744"/>
      <point x="116" y="776"/>
      <point x="64" y="776" type="curve" smooth="yes"/>
      <point x="49" y="776"/>
      <point x="34" y="774"/>
      <point x="16" y="769" type="curve"/>
      <point x="24" y="741" type="line"/>
      <point x="35" y="745"/>
      <point x="45" y="747"/>
      <point x="56" y="747" type="curve" smooth="yes"/>
      <point x="104" y="747"/>
      <point x="131" y="702"/>
      <point x="155" y="626" type="curve"/>
      <point x="63" y="597" type="line"/>
      <point x="72" y="570" type="line"/>
      <point x="164" y="599" type="line"/>
      <point x="171" y="577"/>
      <point x="177" y="556"/>
      <point x="184" y="535" type="curve"/>
      <point x="113" y="378"/>
      <point x="49" y="184"/>
    </contour>
  </outline>
</glyph>
<glyph name="oi" format="2">
  <advance width="632"/>
  <unicode hex="01A3"/>
  <outline>
    <contour>
      <point x="521" y="-185" type="line"/>
      <point x="553" y="-185" type="line"/>
      <point x="553" y="352" type="line" smooth="yes"/>
      <point x="553" y="479"/>
      <point x="516" y="529"/>
      <point x="431" y="529" type="curve" smooth="yes"/>
      <point x="392" y="529"/>
      <point x="352" y="511"/>
      <point x="323" y="479" type="curve"/>
      <point x="296" y="512"/>
      <point x="260" y="529"/>
      <point x="217" y="529" type="curve" smooth="yes"/>
      <point x="114" y="529"/>
      <point x="54" y="430"/>
      <point x="54" y="259" type="curve" smooth="yes"/>
      <point x="54" y="88"/>
      <point x="114" y="-10"/>
      <point x="217" y="-10" type="curve" smooth="yes"/>
      <point x="320" y="-10"/>
      <point x="380" y="88"/>
      <point x="380" y="259" type="curve" smooth="yes"/>
      <point x="380" y="342"/>
      <point x="366" y="408"/>
      <point x="339" y="454" type="curve"/>
      <point x="366" y="483"/>
      <point x="395" y="499"/>
      <point x="431" y="499" type="curve" smooth="yes"/>
      <point x="502" y="499"/>
      <point x="521" y="447"/>
      <point x="521" y="334" type="curve" smooth="yes"/>
    </contour>
    <contour>
      <point x="217" y="20" type="curve" smooth="yes"/>
      <point x="136" y="20"/>
      <point x="87" y="108"/>
      <point x="87" y="259" type="curve" smooth="yes"/>
      <point x="87" y="410"/>
      <point x="136" y="499"/>
      <point x="217" y="499" type="curve" smooth="yes"/>
      <point x="298" y="499"/>
      <point x="347" y="410"/>
      <point x="347" y="259" type="curve" smooth="yes"/>
      <point x="347" y="108"/>
      <point x="298" y="20"/>
    </contour>
  </outline>
</glyph>
<glyph name="Uhorn" format="2">
  <advance width="523"/>
  <unicode hex="01AF"/>
  <anchor x="262" y="0" name="bottom"/>
  <anchor x="262" y="693" name="top"/>
  <outline>
    <contour>
      <point x="260" y="-8" type="curve"/>
      <point x="381" y="-8"/>
      <point x="438" y="62"/>
      <point x="438" y="211" type="curve" smooth="yes"/>
      <point x="438" y="663" type="line"/>
      <point x="507" y="666"/>
      <point x="532" y="703"/>
      <point x="532" y="752" type="curve" smooth="yes"/>
      <point x="532" y="765"/>
      <point x="531" y="779"/>
      <point x="528" y="794" type="curve"/>
      <point x="495" y="794" type="line"/>
      <point x="498" y="780"/>
      <point x="499" y="766"/>
      <point x="499" y="752" type="curve" smooth="yes"/>
      <point x="499" y="711"/>
      <point x="482" y="693"/>
      <point x="423" y="693" type="curve"/>
      <point x="404" y="693" type="line"/>
      <point x="404" y="210" type="line" smooth="yes"/>
      <point x="404" y="83"/>
      <point x="358" y="24"/>
      <point x="260" y="24" type="curve"/>
      <point x="162" y="24"/>
      <point x="116" y="83"/>
      <point x="116" y="210" type="curve" smooth="yes"/>
      <point x="116" y="693" type="line"/>
      <point x="82" y="693" type="line"/>
      <point x="82" y="211" type="line" smooth="yes"/>
      <point x="82" y="62"/>
      <point x="139" y="-8"/>
    </contour>
  </outline>
</glyph>
<glyph name="Upsilon-latin" format="2">
  <advance width="580"/>
  <unicode hex="01B1"/>
  <anchor x="290" y="0" name="bottom"/>
  <anchor x="290" y="693" name="top"/>
  <outline>
    <contour>
      <point x="290" y="-10" type="curve" smooth="yes"/>
      <point x="431" y="-10"/>
      <point x="512" y="113"/>
      <point x="512" y="327" type="curve" smooth="yes"/>
      <point x="512" y="469"/>
      <point x="458" y="596"/>
      <point x="393" y="662" type="curve"/>
      <point x="529" y="662" type="line"/>
      <point x="529" y="693" type="line"/>
      <point x="331" y="693" type="line"/>
      <point x="331" y="678" type="line"/>
      <point x="401" y="631"/>
      <point x="476" y="488"/>
      <point x="476" y="327" type="curve" smooth="yes"/>
      <point x="476" y="133"/>
      <point x="410" y="21"/>
      <point x="290" y="21" type="curve" smooth="yes"/>
      <point x="170" y="21"/>
      <point x="104" y="133"/>
      <point x="104" y="327" type="curve" smooth="yes"/>
      <point x="104" y="488"/>
      <point x="179" y="631"/>
      <point x="249" y="678" type="curve"/>
      <point x="249" y="693" type="line"/>
      <point x="51" y="693" type="line"/>
      <point x="51" y="662" type="line"/>
      <point x="187" y="662" type="line"/>
      <point x="123" y="597"/>
      <point x="68" y="469"/>
      <point x="68" y="327" type="curve" smooth="yes"/>
      <point x="68" y="113"/>
      <point x="149" y="-10"/>
    </contour>
  </outline>
</glyph>
<glyph name="Vhook" format="2">
  <advance width="523"/>
  <unicode hex="01B2"/>
  <anchor x="262" y="0" name="bottom"/>
  <anchor x="262" y="693" name="top"/>
  <outline>
    <contour>
      <point x="260" y="-8" type="curve" smooth="yes"/>
      <point x="386" y="-8"/>
      <point x="450" y="111"/>
      <point x="450" y="348" type="curve" smooth="yes"/>
      <point x="450" y="593"/>
      <point x="409" y="705"/>
      <point x="316" y="705" type="curve" smooth="yes"/>
      <point x="301" y="705"/>
      <point x="287" y="703"/>
      <point x="272" y="698" type="curve"/>
      <point x="279" y="670" type="line"/>
      <point x="292" y="674"/>
      <point x="302" y="675"/>
      <point x="316" y="675" type="curve" smooth="yes"/>
      <point x="382" y="675"/>
      <point x="416" y="565"/>
      <point x="416" y="345" type="curve" smooth="yes"/>
      <point x="416" y="139"/>
      <point x="369" y="24"/>
      <point x="260" y="24" type="curve" smooth="yes"/>
      <point x="162" y="24"/>
      <point x="116" y="83"/>
      <point x="116" y="210" type="curve" smooth="yes"/>
      <point x="116" y="693" type="line"/>
      <point x="82" y="693" type="line"/>
      <point x="82" y="211" type="line" smooth="yes"/>
      <point x="82" y="62"/>
      <point x="139" y="-8"/>
    </contour>
  </outline>
</glyph>
<glyph name="Yhook" format="2">
  <advance width="485"/>
  <unicode hex="01B3"/>
  <anchor x="243" y="0" name="bottom"/>
  <anchor x="243" y="693" name="top"/>
  <outline>
    <contour>
      <point x="180" y="0" type="line"/>
      <point x="214" y="0" type="line"/>
      <point x="214" y="274" type="line"/>
      <point x="257" y="388"/>
      <point x="322" y="540"/>
      <point x="361" y="624" type="curve" smooth="yes"/>
      <point x="379" y="663"/>
      <point x="400" y="670"/>
      <point x="420" y="670" type="curve" smooth="yes"/>
      <point x="438" y="670"/>
      <point x="457" y="664"/>
      <point x="473" y="651" type="curve"/>
      <point x="489" y="678" type="line"/>
      <point x="468" y="694"/>
      <point x="448" y="701"/>
      <point x="420" y="701" type="curve" smooth="yes"/>
      <point x="392" y="701"/>
      <point x="358" y="692"/>
      <point x="335" y="641" type="curve" smooth="yes"/>
      <point x="290" y="538"/>
      <point x="247" y="439"/>
      <point x="196" y="309" type="curve"/>
      <point x="129" y="445"/>
      <point x="82" y="574"/>
      <point x="43" y="693" type="curve"/>
      <point x="8" y="693" type="line"/>
      <point x="62" y="532"/>
      <point x="120" y="387"/>
      <point x="180" y="272" type="curve"/>
    </contour>
  </outline>
</glyph>
<glyph name="Zstroke" format="2">
  <advance width="400"/>
  <unicode hex="01B5"/>
  <outline>
    <contour>
      <point x="40" y="0" type="line"/>
      <point x="362" y="0" type="line"/>
      <point x="362" y="32" type="line"/>
      <point x="76" y="32" type="line"/>
      <point x="115" y="144"/>
      <point x="157" y="248"/>
      <point x="201" y="349" type="curve"/>
      <point x="338" y="349" type="line"/>
      <point x="338" y="379" type="line"/>
      <point x="215" y="379" type="line"/>
      <point x="259" y="476"/>
      <point x="305" y="570"/>
      <point x="355" y="664" type="curve"/>
      <point x="355" y="693" type="line"/>
      <point x="51" y="693" type="line"/>
      <point x="51" y="661" type="line"/>
      <point x="315" y="661" type="line"/>
      <point x="265" y="565"/>
      <point x="220" y="472"/>
      <point x="179" y="379" type="curve"/>
      <point x="84" y="379" type="line"/>
      <point x="84" y="349" type="line"/>
      <point x="165" y="349" type="line"/>
      <point x="119" y="242"/>
      <point x="77" y="136"/>
      <point x="40" y="29" type="curve"/>
    </contour>
  </outline>
</glyph>
<glyph name="Hwair" format="2">
  <advance width="814"/>
  <unicode hex="01F6"/>
  <outline>
    <contour>
      <point x="579" y="-10" type="curve" smooth="yes"/>
      <point x="690" y="-10"/>
      <point x="740" y="49"/>
      <point x="740" y="179" type="curve" smooth="yes"/>
      <point x="740" y="509" type="line"/>
      <point x="706" y="509" type="line"/>
      <point x="706" y="179" type="line" smooth="yes"/>
      <point x="706" y="71"/>
      <point x="670" y="22"/>
      <point x="579" y="22" type="curve" smooth="yes"/>
      <point x="488" y="22"/>
      <point x="452" y="71"/>
      <point x="452" y="179" type="curve" smooth="yes"/>
      <point x="452" y="693" type="line"/>
      <point x="418" y="693" type="line"/>
      <point x="418" y="378" type="line"/>
      <point x="120" y="378" type="line"/>
      <point x="120" y="693" type="line"/>
      <point x="86" y="693" type="line"/>
      <point x="86" y="0" type="line"/>
      <point x="120" y="0" type="line"/>
      <point x="120" y="346" type="line"/>
      <point x="418" y="346" type="line"/>
      <point x="418" y="179" type="line" smooth="yes"/>
      <point x="418" y="49"/>
      <point x="468" y="-10"/>
    </contour>
  </outline>
</glyph>
<glyph name="Aringacute" format="2">
  <advance width="461"/>
  <unicode hex="01FA"/>
  <outline>
    <contour>
      <point x="28" y="0" type="curve"/>
      <point x="61" y="0" type="line"/>
      <point x="71" y="64"/>
      <point x="83" y="131"/>
      <point x="98" y="200" type="curve"/>
      <point x="361" y="200" type="line"/>
      <point x="376" y="131"/>
      <point x="389" y="64"/>
      <point x="399" y="0" type="curve"/>
      <point x="433" y="0" type="line"/>
      <point x="403" y="208"/>
      <point x="341" y="429"/>
      <point x="256" y="674" type="curve"/>
      <point x="283" y="683"/>
      <point x="305" y="707"/>
      <point x="305" y="748" type="curve" smooth="yes"/>
      <point x="305" y="792"/>
      <point x="274" y="826"/>
      <point x="231" y="826" type="curve" smooth="yes"/>
      <point x="186" y="826"/>
      <point x="154" y="793"/>
      <point x="154" y="748" type="curve" smooth="yes"/>
      <point x="154" y="709"/>
      <point x="175" y="684"/>
      <point x="202" y="675" type="curve"/>
      <point x="120" y="429"/>
      <point x="58" y="208"/>
    </contour>
    <contour>
      <point x="106" y="233" type="line"/>
      <point x="137" y="370"/>
      <point x="178" y="517"/>
      <point x="229" y="662" type="curve"/>
      <point x="281" y="517"/>
      <point x="322" y="370"/>
      <point x="354" y="233" type="curve"/>
    </contour>
    <contour>
      <point x="230" y="695" type="curve" smooth="yes"/>
      <point x="200" y="695"/>
      <point x="181" y="718"/>
      <point x="181" y="748" type="curve" smooth="yes"/>
      <point x="181" y="778"/>
      <point x="202" y="801"/>
      <point x="230" y="801" type="curve" smooth="yes"/>
      <point x="257" y="801"/>
      <point x="278" y="778"/>
      <point x="278" y="748" type="curve" smooth="yes"/>
      <point x="278" y="718"/>
      <point x="257" y="695"/>
    </contour>
    <contour>
      <point x="147" y="842" type="line"/>
      <point x="304" y="922" type="line"/>
      <point x="290" y="953" type="line"/>
      <point x="136" y="861" type="line"/>
    </contour>
  </outline>
</glyph>
<glyph name="Yogh" format="2">
  <advance width="392"/>
  <unicode hex="021C"/>
  <outline>
    <contour>
      <point x="85" y="-185" type="curve" smooth="yes"/>
      <point x="251" y="-185"/>
      <point x="351" y="-84"/>
      <point x="351" y="80" type="curve" smooth="yes"/>
      <point x="351" y="195"/>
      <point x="294" y="280"/>
      <point x="198" y="299" type="curve"/>
      <point x="270" y="318"/>
      <point x="322" y="409"/>
      <point x="322" y="508" type="curve" smooth="yes"/>
      <point x="322" y="629"/>
      <point x="257" y="703"/>
      <point x="146" y="703" type="curve" smooth="yes"/>
      <point x="97" y="703"/>
      <point x="53" y="691"/>
      <point x="7" y="664" type="curve"/>
      <point x="21" y="636" type="line"/>
      <point x="61" y="660"/>
      <point x="102" y="671"/>
      <point x="144" y="671" type="curve" smooth="yes"/>
      <point x="236" y="671"/>
      <point x="288" y="611"/>
      <point x="288" y="508" type="curve" smooth="yes"/>
      <point x="288" y="391"/>
      <point x="226" y="312"/>
      <point x="142" y="312" type="curve" smooth="yes"/>
      <point x="98" y="312" type="line"/>
      <point x="98" y="280" type="line"/>
      <point x="142" y="280" type="line" smooth="yes"/>
      <point x="245" y="280"/>
      <point x="317" y="201"/>
      <point x="317" y="80" type="curve" smooth="yes"/>
      <point x="317" y="-66"/>
      <point x="227" y="-153"/>
      <point x="85" y="-153" type="curve" smooth="yes"/>
      <point x="61" y="-153"/>
      <point x="39" y="-152"/>
      <point x="19" y="-149" type="curve"/>
      <point x="17" y="-179" type="line"/>
      <point x="39" y="-183"/>
      <point x="67" y="-185"/>
    </contour>
  </outline>
</glyph>
<glyph name="Ecedilla" format="2">
  <advance width="421"/>
  <unicode hex="0228"/>
  <outline>
    <contour>
      <point x="219" y="-185" type="curve" smooth="yes"/>
      <point x="265" y="-185"/>
      <point x="299" y="-156"/>
      <point x="299" y="-113" type="curve" smooth="yes"/>
      <point x="299" y="-80"/>
      <point x="281" y="-54"/>
      <point x="239" y="-38" type="curve"/>
      <point x="244" y="-25"/>
      <point x="250" y="-13"/>
      <point x="256" y="0" type="curve"/>
      <point x="369" y="0" type="line"/>
      <point x="369" y="31" type="line"/>
      <point x="122" y="31" type="line"/>
      <point x="122" y="348" type="line"/>
      <point x="332" y="348" type="line"/>
      <point x="332" y="379" type="line"/>
      <point x="122" y="379" type="line"/>
      <point x="122" y="662" type="line"/>
      <point x="358" y="662" type="line"/>
      <point x="358" y="693" type="line"/>
      <point x="88" y="693" type="line"/>
      <point x="88" y="0" type="line"/>
      <point x="226" y="0" type="line"/>
      <point x="218" y="-15"/>
      <point x="210" y="-33"/>
      <point x="202" y="-52" type="curve"/>
      <point x="251" y="-67"/>
      <point x="267" y="-86"/>
      <point x="267" y="-114" type="curve" smooth="yes"/>
      <point x="267" y="-143"/>
      <point x="250" y="-158"/>
      <point x="219" y="-158" type="curve" smooth="yes"/>
      <point x="203" y="-158"/>
      <point x="182" y="-155"/>
      <point x="166" y="-150" type="curve"/>
      <point x="162" y="-176" type="line"/>
      <point x="179" y="-182"/>
      <point x="198" y="-185"/>
    </contour>
  </outline>
</glyph>
<glyph name="ecedilla" format="2">
  <advance width="412"/>
  <unicode hex="0229"/>
  <outline>
    <contour>
      <point x="203" y="-185" type="curve" smooth="yes"/>
      <point x="249" y="-185"/>
      <point x="283" y="-156"/>
      <point x="283" y="-113" type="curve" smooth="yes"/>
      <point x="283" y="-80"/>
      <point x="265" y="-54"/>
      <point x="223" y="-38" type="curve"/>
      <point x="227" y="-29"/>
      <point x="231" y="-19"/>
      <point x="235" y="-10" type="curve"/>
      <point x="270" y="-10"/>
      <point x="303.912" y="-2.529"/>
      <point x="342" y="16" type="curve"/>
      <point x="336" y="43" type="line"/>
      <point x="307" y="28"/>
      <point x="272" y="20"/>
      <point x="240" y="20" type="curve" smooth="yes"/>
      <point x="135" y="20"/>
      <point x="87" y="109"/>
      <point x="87" y="257" type="curve"/>
      <point x="358" y="257" type="line"/>
      <point x="359" y="274"/>
      <point x="360" y="293"/>
      <point x="360" y="303" type="curve" smooth="yes"/>
      <point x="360" y="454"/>
      <point x="301" y="529"/>
      <point x="215" y="529" type="curve" smooth="yes"/>
      <point x="112" y="529"/>
      <point x="54" y="431"/>
      <point x="54" y="260" type="curve" smooth="yes"/>
      <point x="54" y="105"/>
      <point x="109" y="9"/>
      <point x="206" y="-7" type="curve"/>
      <point x="200" y="-21"/>
      <point x="193" y="-36"/>
      <point x="186" y="-52" type="curve"/>
      <point x="235" y="-67"/>
      <point x="251" y="-86"/>
      <point x="251" y="-114" type="curve" smooth="yes"/>
      <point x="251" y="-143"/>
      <point x="234" y="-158"/>
      <point x="203" y="-158" type="curve" smooth="yes"/>
      <point x="187" y="-158"/>
      <point x="166" y="-155"/>
      <point x="150" y="-150" type="curve"/>
      <point x="146" y="-176" type="line"/>
      <point x="163" y="-182"/>
      <point x="182" y="-185"/>
    </contour>
    <contour>
      <point x="87" y="285" type="line"/>
      <point x="87" y="413"/>
      <point x="133" y="499"/>
      <point x="214" y="499" type="curve" smooth="yes"/>
      <point x="289" y="499"/>
      <point x="332" y="427"/>
      <point x="327" y="285" type="curve"/>
    </contour>
  </outline>
</glyph>
<glyph name="qpdigraph" format="2">
  <advance width="675"/>
  <unicode hex="0239"/>
  <outline>
    <contour>
      <point x="318" y="-185" type="line"/>
      <point x="350" y="-185" type="line"/>
      <point x="350" y="30" type="line"/>
      <point x="373" y="4"/>
      <point x="408" y="-10"/>
      <point x="448" y="-10" type="curve" smooth="yes"/>
      <point x="553" y="-10"/>
      <point x="614" y="89"/>
      <point x="614" y="260" type="curve" smooth="yes"/>
      <point x="614" y="431"/>
      <point x="556" y="529"/>
      <point x="439" y="529" type="curve" smooth="yes"/>
      <point x="398" y="529"/>
      <point x="367" y="520"/>
      <point x="334" y="505" type="curve"/>
      <point x="302" y="520"/>
      <point x="271" y="529"/>
      <point x="229" y="529" type="curve" smooth="yes"/>
      <point x="112" y="529"/>
      <point x="54" y="431"/>
      <point x="54" y="260" type="curve" smooth="yes"/>
      <point x="54" y="89"/>
      <point x="115" y="-10"/>
      <point x="220" y="-10" type="curve" smooth="yes"/>
      <point x="260" y="-10"/>
      <point x="295" y="4"/>
      <point x="318" y="30" type="curve"/>
    </contour>
    <contour>
      <point x="220" y="20" type="curve" smooth="yes"/>
      <point x="137" y="20"/>
      <point x="87" y="109"/>
      <point x="87" y="260" type="curve" smooth="yes"/>
      <point x="87" y="411"/>
      <point x="134" y="499"/>
      <point x="229" y="499" type="curve" smooth="yes"/>
      <point x="263" y="499"/>
      <point x="294" y="491"/>
      <point x="318" y="479" type="curve"/>
      <point x="318" y="72" type="line"/>
      <point x="296" y="43"/>
      <point x="265" y="20"/>
    </contour>
    <contour>
      <point x="448" y="20" type="curve" smooth="yes"/>
      <point x="404" y="20"/>
      <point x="374" y="42"/>
      <point x="350" y="72" type="curve"/>
      <point x="350" y="479" type="line"/>
      <point x="374" y="491"/>
      <point x="405" y="499"/>
      <point x="439" y="499" type="curve" smooth="yes"/>
      <point x="534" y="499"/>
      <point x="581" y="411"/>
      <point x="581" y="260" type="curve" smooth="yes"/>
      <point x="581" y="109"/>
      <point x="531" y="20"/>
    </contour>
  </outline>
</glyph>
<glyph name="Astroke" format="2">
  <advance width="461"/>
  <unicode hex="023A"/>
  <outline>
    <contour>
      <point x="146" y="-112" type="line"/>
      <point x="217" y="200" type="line"/>
      <point x="361" y="200" type="line"/>
      <point x="376" y="131"/>
      <point x="389" y="64"/>
      <point x="399" y="0" type="curve"/>
      <point x="433" y="0" type="line"/>
      <point x="408" y="172"/>
      <point x="361" y="354"/>
      <point x="297" y="551" type="curve"/>
      <point x="345" y="761" type="line"/>
      <point x="317" y="766" type="line"/>
      <point x="280" y="603" type="line"/>
      <point x="270" y="633"/>
      <point x="260" y="663"/>
      <point x="249" y="693" type="curve"/>
      <point x="208" y="693" type="line"/>
      <point x="123" y="440"/>
      <point x="59" y="213"/>
      <point x="28" y="0" type="curve"/>
      <point x="61" y="0" type="line"/>
      <point x="71" y="64"/>
      <point x="83" y="131"/>
      <point x="98" y="200" type="curve"/>
      <point x="188" y="200" type="line"/>
      <point x="118" y="-107" type="line"/>
    </contour>
    <contour>
      <point x="106" y="233" type="line"/>
      <point x="137" y="370"/>
      <point x="178" y="515"/>
      <point x="229" y="660" type="curve"/>
      <point x="242" y="622"/>
      <point x="255" y="585"/>
      <point x="267" y="548" type="curve"/>
      <point x="196" y="233" type="line"/>
    </contour>
    <contour>
      <point x="225" y="233" type="line"/>
      <point x="284" y="494" type="line"/>
      <point x="311" y="405"/>
      <point x="334" y="317"/>
      <point x="354" y="233" type="curve"/>
    </contour>
  </outline>
</glyph>
<glyph name="qhooktail" format="2">
  <advance width="425"/>
  <unicode hex="024B"/>
  <anchor x="213" y="0" name="bottom"/>
  <anchor x="213" y="517" name="top"/>
  <outline>
    <contour>
      <point x="411" y="-189" type="curve" smooth="yes"/>
      <point x="430" y="-189"/>
      <point x="443" y="-186"/>
      <point x="455" y="-181" type="curve"/>
      <point x="450" y="-154" type="line"/>
      <point x="439" y="-158"/>
      <point x="424" y="-160"/>
      <point x="410" y="-160" type="curve" smooth="yes"/>
      <point x="371" y="-160"/>
      <point x="352" y="-132"/>
      <point x="352" y="-72" type="curve" smooth="yes"/>
      <point x="352" y="501" type="line"/>
      <point x="313" y="519"/>
      <point x="280" y="529"/>
      <point x="235" y="529" type="curve" smooth="yes"/>
      <point x="99" y="529"/>
      <point x="54" y="419"/>
      <point x="54" y="254" type="curve" smooth="yes"/>
      <point x="54" y="60"/>
      <point x="133" y="-10"/>
      <point x="225" y="-10" type="curve" smooth="yes"/>
      <point x="265" y="-10"/>
      <point x="300" y="4"/>
      <point x="320" y="19" type="curve"/>
      <point x="320" y="-71" type="line" smooth="yes"/>
      <point x="320" y="-152"/>
      <point x="350" y="-189"/>
    </contour>
    <contour>
      <point x="225" y="20" type="curve" smooth="yes"/>
      <point x="170" y="20"/>
      <point x="87" y="50"/>
      <point x="87" y="254" type="curve" smooth="yes"/>
      <point x="87" y="441"/>
      <point x="144" y="499"/>
      <point x="235" y="499" type="curve" smooth="yes"/>
      <point x="269" y="499"/>
      <point x="300" y="492"/>
      <point x="320" y="481" type="curve"/>
      <point x="320" y="51" type="line"/>
      <point x="300" y="33"/>
      <point x="264" y="20"/>
    </contour>
  </outline>
</glyph>
<glyph name="Rstroke" format="2">
  <advance width="468"/>
  <unicode hex="024C"/>
  <anchor x="234" y="0" name="bottom"/>
  <anchor x="234" y="693" name="top"/>
  <outline>
    <contour>
      <point x="80" y="0" type="line"/>
      <point x="114" y="0" type="line"/>
      <point x="114" y="285" type="line"/>
      <point x="187" y="285" type="line" smooth="yes"/>
      <point x="206" y="285"/>
      <point x="227" y="287"/>
      <point x="247" y="290" type="curve"/>
      <point x="304" y="196"/>
      <point x="352" y="99"/>
      <point x="393" y="0" type="curve"/>
      <point x="434" y="0" type="line"/>
      <point x="373" y="132"/>
      <point x="327" y="222"/>
      <point x="281" y="301" type="curve"/>
      <point x="354" y="325"/>
      <point x="396" y="393"/>
      <point x="396" y="489" type="curve" smooth="yes"/>
      <point x="396" y="622"/>
      <point x="321" y="699"/>
      <point x="190" y="699" type="curve" smooth="yes"/>
      <point x="152" y="699"/>
      <point x="114" y="694"/>
      <point x="80" y="688" type="curve"/>
      <point x="80" y="317" type="line"/>
      <point x="22" y="317" type="line"/>
      <point x="22" y="285" type="line"/>
      <point x="80" y="285" type="line"/>
    </contour>
    <contour>
      <point x="114" y="317" type="line"/>
      <point x="114" y="661" type="line"/>
      <point x="136" y="665"/>
      <point x="166" y="667"/>
      <point x="190" y="667" type="curve" smooth="yes"/>
      <point x="303" y="667"/>
      <point x="361" y="608"/>
      <point x="361" y="489" type="curve" smooth="yes"/>
      <point x="361" y="376"/>
      <point x="302" y="317"/>
      <point x="187" y="317" type="curve" smooth="yes"/>
    </contour>
  </outline>
</glyph>
<glyph name="rstroke" format="2">
  <advance width="287"/>
  <unicode hex="024D"/>
  <anchor x="144" y="0" name="bottom"/>
  <anchor x="144" y="517" name="top"/>
  <outline>
    <contour>
      <point x="82" y="0" type="line"/>
      <point x="114" y="0" type="line"/>
      <point x="114" y="231" type="line"/>
      <point x="248" y="231" type="line"/>
      <point x="248" y="259" type="line"/>
      <point x="114" y="259" type="line"/>
      <point x="114" y="477" type="line"/>
      <point x="141" y="490"/>
      <point x="171" y="497"/>
      <point x="205" y="497" type="curve" smooth="yes"/>
      <point x="232" y="497"/>
      <point x="255" y="494"/>
      <point x="274" y="488" type="curve"/>
      <point x="279" y="517" type="line"/>
      <point x="260" y="524"/>
      <point x="236" y="527"/>
      <point x="207" y="527" type="curve" smooth="yes"/>
      <point x="165" y="527"/>
      <point x="123" y="516"/>
      <point x="82" y="495" type="curve"/>
      <point x="82" y="259" type="line"/>
      <point x="12" y="259" type="line"/>
      <point x="12" y="231" type="line"/>
      <point x="82" y="231" type="line"/>
    </contour>
  </outline>
</glyph>
<glyph name="ezh" format="2">
  <advance width="314"/>
  <unicode hex="0292"/>
  <anchor x="157" y="0" name="bottom"/>
  <anchor x="145" y="517" name="top"/>
  <outline>
    <contour>
      <point x="123" y="-188" type="curve"/>
      <point x="215" y="-188"/>
      <point x="296" y="-120"/>
      <point x="296" y="9" type="curve" smooth="yes"/>
      <point x="296" y="114"/>
      <point x="245" y="206"/>
      <point x="111" y="210" type="curve"/>
      <point x="176" y="319"/>
      <point x="227" y="409"/>
      <point x="272" y="487" type="curve"/>
      <point x="272" y="517" type="line"/>
      <point x="15" y="517" type="line"/>
      <point x="15" y="487" type="line"/>
      <point x="240" y="487" type="line"/>
      <point x="191" y="402"/>
      <point x="132" y="298"/>
      <point x="77" y="207" type="curve"/>
      <point x="77" y="183" type="line"/>
      <point x="105" y="183" type="line" smooth="yes"/>
      <point x="210" y="183"/>
      <point x="264" y="119"/>
      <point x="264" y="9" type="curve" smooth="yes"/>
      <point x="264" y="-116"/>
      <point x="185" y="-158"/>
      <point x="123" y="-158" type="curve" smooth="yes"/>
      <point x="82" y="-158"/>
      <point x="47" y="-151"/>
      <point x="9" y="-129" type="curve"/>
      <point x="-2" y="-155" type="line"/>
      <point x="37" y="-178"/>
      <point x="81" y="-188"/>
    </contour>
  </outline>
</glyph>
<glyph name="caron" format="2">
  <advance width="314"/>
  <unicode hex="02C7"/>
  <outline>
    <contour>
      <point x="157" y="595" type="line"/>
      <point x="265" y="737" type="line"/>
      <point x="245" y="753" type="line"/>
      <point x="157" y="646" type="line"/>
      <point x="69" y="753" type="line"/>
      <point x="49" y="737" type="line"/>
    </contour>
  </outline>
</glyph>
<glyph name="breve" format="2">
  <advance width="302"/>
  <unicode hex="02D8"/>
  <outline>
    <contour>
      <point x="151" y="631" type="curve" smooth="yes"/>
      <point x="216" y="631"/>
      <point x="246" y="676"/>
      <point x="246" y="746" type="curve"/>
      <point x="221" y="746" type="line"/>
      <point x="218" y="690"/>
      <point x="197" y="659"/>
      <point x="151" y="659" type="curve" smooth="yes"/>
      <point x="105" y="659"/>
      <point x="84" y="690"/>
      <point x="81" y="746" type="curve"/>
      <point x="56" y="746" type="line"/>
      <point x="56" y="676"/>
      <point x="86" y="631"/>
    </contour>
  </outline>
</glyph>
<glyph name="dotaccent" format="2">
  <advance width="314"/>
  <unicode hex="02D9"/>
  <outline>
    <contour>
      <point x="158" y="637" type="curve" smooth="yes"/>
      <point x="173" y="637"/>
      <point x="187" y="652"/>
      <point x="187" y="669" type="curve" smooth="yes"/>
      <point x="187" y="688"/>
      <point x="173" y="702"/>
      <point x="158" y="702" type="curve" smooth="yes"/>
      <point x="140" y="702"/>
      <point x="127" y="688"/>
      <point x="127" y="669" type="curve" smooth="yes"/>
      <point x="127" y="652"/>
      <point x="140" y="637"/>
    </contour>
  </outline>
</glyph>
<glyph name="acutecomb" format="2">
  <unicode hex="0301"/>
  <anchor x="0" y="517" name="_top"/>
  <anchor x="0" y="774" name="top"/>
  <outline>
    <contour>
      <point x="-28" y="596" type="line"/>
      <point x="110" y="751" type="line"/>
      <point x="83" y="774" type="line"/>
      <point x="-46" y="612" type="line"/>
    </contour>
  </outline>
</glyph>
<glyph name="circumflexcomb" format="2">
  <unicode hex="0302"/>
  <anchor x="0" y="517" name="_top"/>
  <anchor x="0" y="751" name="top"/>
  <outline>
    <contour>
      <point x="-88" y="593" type="line"/>
      <point x="0" y="700" type="line"/>
      <point x="88" y="593" type="line"/>
      <point x="108" y="609" type="line"/>
      <point x="0" y="751" type="line"/>
      <point x="-108" y="609" type="line"/>
    </contour>
  </outline>
</glyph>
<glyph name="dieresiscomb" format="2">
  <unicode hex="0308"/>
  <anchor x="0" y="517" name="_top"/>
  <anchor x="0" y="701" name="top"/>
  <outline>
    <contour>
      <point x="65" y="639" type="curve" smooth="yes"/>
      <point x="80" y="639"/>
      <point x="94" y="653"/>
      <point x="94" y="669" type="curve" smooth="yes"/>
      <point x="94" y="688"/>
      <point x="80" y="701"/>
      <point x="65" y="701" type="curve" smooth="yes"/>
      <point x="49" y="701"/>
      <point x="36" y="688"/>
      <point x="36" y="669" type="curve" smooth="yes"/>
      <point x="36" y="653"/>
      <point x="49" y="639"/>
    </contour>
    <contour>
      <point x="-65" y="639" type="curve" smooth="yes"/>
      <point x="-50" y="639"/>
      <point x="-36" y="653"/>
      <point x="-36" y="669" type="curve" smooth="yes"/>
      <point x="-36" y="688"/>
      <point x="-50" y="701"/>
      <point x="-65" y="701" type="curve" smooth="yes"/>
      <point x="-81" y="701"/>
      <point x="-94" y="688"/>
      <point x="-94" y="669" type="curve" smooth="yes"/>
      <point x="-94" y="653"/>
      <point x="-81" y="639"/>
    </contour>
  </outline>
</glyph>
<glyph name="ringcomb" format="2">
  <unicode hex="030A"/>
  <anchor x="0" y="517" name="_top"/>
  <anchor x="0" y="762" name="top"/>
  <outline>
    <contour>
      <point x="0" y="606" type="curve" smooth="yes"/>
      <point x="38" y="606"/>
      <point x="76" y="631"/>
      <point x="76" y="684" type="curve" smooth="yes"/>
      <point x="76" y="728"/>
      <point x="44" y="762"/>
      <point x="0" y="762" type="curve" smooth="yes"/>
      <point x="-44" y="762"/>
      <point x="-76" y="729"/>
      <point x="-76" y="684" type="curve" smooth="yes"/>
      <point x="-76" y="632"/>
      <point x="-40" y="606"/>
    </contour>
    <contour>
      <point x="0" y="632" type="curve" smooth="yes"/>
      <point x="-30" y="632"/>
      <point x="-48" y="654"/>
      <point x="-48" y="684" type="curve" smooth="yes"/>
      <point x="-48" y="714"/>
      <point x="-28" y="736"/>
      <point x="0" y="736" type="curve" smooth="yes"/>
      <point x="27" y="736"/>
      <point x="48" y="714"/>
      <point x="48" y="684" type="curve" smooth="yes"/>
      <point x="48" y="654"/>
      <point x="27" y="632"/>
    </contour>
  </outline>
</glyph>
<glyph name="breveinvertedcomb" format="2">
  <unicode hex="0311"/>
  <anchor x="0" y="517" name="_top"/>
  <anchor x="0" y="746" name="top"/>
  <outline>
    <contour>
      <point x="-95" y="631" type="curve"/>
      <point x="-70" y="631" type="line"/>
      <point x="-67" y="687"/>
      <point x="-46" y="718"/>
      <point x="0" y="718" type="curve" smooth="yes"/>
      <point x="46" y="718"/>
      <point x="67" y="687"/>
      <point x="70" y="631" type="curve"/>
      <point x="95" y="631" type="line"/>
      <point x="95" y="701"/>
      <point x="65" y="746"/>
      <point x="0" y="746" type="curve" smooth="yes"/>
      <point x="-65" y="746"/>
      <point x="-95" y="701"/>
    </contour>
  </outline>
</glyph>
<glyph name="commaturnedabovecomb" format="2">
  <unicode hex="0312"/>
  <anchor x="0" y="517" name="_top"/>
  <anchor x="0" y="775" name="top"/>
  <outline>
    <contour>
      <point x="-35" y="616" type="curve"/>
      <point x="-3" y="616" type="line"/>
      <point x="-3" y="623"/>
      <point x="-3" y="632"/>
      <point x="-3" y="639" type="curve" smooth="yes"/>
      <point x="-3" y="670"/>
      <point x="-3" y="719"/>
      <point x="59" y="752" type="curve"/>
      <point x="45" y="775" type="line"/>
      <point x="-20" y="746"/>
      <point x="-36" y="685"/>
      <point x="-36" y="639" type="curve" smooth="yes"/>
      <point x="-36" y="633"/>
      <point x="-36" y="625"/>
    </contour>
  </outline>
</glyph>
<glyph name="Theta" format="2">
  <advance width="576"/>
  <unicode hex="0398"/>
  <outline>
    <contour>
      <point x="288" y="-9" type="curve" smooth="yes"/>
      <point x="432" y="-9"/>
      <point x="514" y="120"/>
      <point x="514" y="344" type="curve" smooth="yes"/>
      <point x="514" y="572"/>
      <point x="432" y="703"/>
      <point x="288" y="703" type="curve" smooth="yes"/>
      <point x="144" y="703"/>
      <point x="62" y="572"/>
      <point x="62" y="344" type="curve" smooth="yes"/>
      <point x="62" y="120"/>
      <point x="144" y="-9"/>
    </contour>
    <contour>
      <point x="288" y="22" type="curve" smooth="yes"/>
      <point x="165" y="22"/>
      <point x="98" y="139"/>
      <point x="98" y="344" type="curve" smooth="yes"/>
      <point x="98" y="552"/>
      <point x="165" y="672"/>
      <point x="288" y="672" type="curve" smooth="yes"/>
      <point x="411" y="672"/>
      <point x="478" y="552"/>
      <point x="478" y="344" type="curve" smooth="yes"/>
      <point x="478" y="139"/>
      <point x="411" y="22"/>
    </contour>
    <contour>
      <point x="166" y="331" type="line"/>
      <point x="410" y="331" type="line"/>
      <point x="410" y="363" type="line"/>
      <point x="166" y="363" type="line"/>
    </contour>
  </outline>
</glyph>
<glyph name="Lambda" format="2">
  <advance width="457"/>
  <unicode hex="039B"/>
  <outline>
    <contour>
      <point x="28" y="1" type="curve"/>
      <point x="62" y="1" type="line"/>
      <point x="91" y="198"/>
      <point x="147" y="428"/>
      <point x="226" y="659" type="curve"/>
      <point x="308" y="427"/>
      <point x="364" y="197"/>
      <point x="394" y="0" type="curve"/>
      <point x="429" y="0" type="line"/>
      <point x="398" y="213"/>
      <point x="337" y="440"/>
      <point x="248" y="693" type="curve"/>
      <point x="205" y="693" type="line"/>
      <point x="120" y="441"/>
      <point x="59" y="214"/>
    </contour>
  </outline>
</glyph>
<glyph name="Xi" format="2">
  <advance width="411"/>
  <unicode hex="039E"/>
  <outline>
    <contour>
      <point x="38" y="0" type="line"/>
      <point x="373" y="0" type="line"/>
      <point x="373" y="31" type="line"/>
      <point x="38" y="31" type="line"/>
    </contour>
    <contour>
      <point x="83" y="348" type="line"/>
      <point x="331" y="348" type="line"/>
      <point x="331" y="379" type="line"/>
      <point x="83" y="379" type="line"/>
    </contour>
    <contour>
      <point x="52" y="662" type="line"/>
      <point x="359" y="662" type="line"/>
      <point x="359" y="693" type="line"/>
      <point x="52" y="693" type="line"/>
    </contour>
  </outline>
</glyph>
<glyph name="Sigma" format="2">
  <advance width="421"/>
  <unicode hex="03A3"/>
  <outline>
    <contour>
      <point x="41" y="0" type="line"/>
      <point x="381" y="0" type="line"/>
      <point x="381" y="32" type="line"/>
      <point x="77" y="32" type="line"/>
      <point x="134" y="144"/>
      <point x="196" y="257"/>
      <point x="262" y="367" type="curve"/>
      <point x="201" y="465"/>
      <point x="142" y="563"/>
      <point x="88" y="661" type="curve"/>
      <point x="373" y="661" type="line"/>
      <point x="373" y="693" type="line"/>
      <point x="52" y="693" type="line"/>
      <point x="52" y="661" type="line"/>
      <point x="106" y="563"/>
      <point x="165" y="465"/>
      <point x="226" y="367" type="curve"/>
      <point x="160" y="256"/>
      <point x="99" y="144"/>
      <point x="41" y="32" type="curve"/>
    </contour>
  </outline>
</glyph>
<glyph name="epsilon" format="2">
  <advance width="360"/>
  <unicode hex="03B5"/>
  <anchor x="208" y="517" name="top"/>
  <outline>
    <contour>
      <point x="210" y="-9" type="curve" smooth="yes"/>
      <point x="251" y="-9"/>
      <point x="293" y="-2"/>
      <point x="330" y="14" type="curve"/>
      <point x="323" y="42" type="line"/>
      <point x="287" y="27"/>
      <point x="248" y="21"/>
      <point x="209" y="21" type="curve" smooth="yes"/>
      <point x="130" y="21"/>
      <point x="77" y="58"/>
      <point x="77" y="139" type="curve" smooth="yes"/>
      <point x="77" y="204"/>
      <point x="129" y="258"/>
      <point x="229" y="258" type="curve" smooth="yes"/>
      <point x="272" y="258" type="line"/>
      <point x="272" y="288" type="line"/>
      <point x="229" y="288" type="line" smooth="yes"/>
      <point x="146" y="288"/>
      <point x="96" y="328"/>
      <point x="96" y="399" type="curve" smooth="yes"/>
      <point x="96" y="470"/>
      <point x="145" y="499"/>
      <point x="209" y="499" type="curve" smooth="yes"/>
      <point x="248" y="499"/>
      <point x="280" y="493"/>
      <point x="314" y="476" type="curve"/>
      <point x="321" y="502" type="line"/>
      <point x="283" y="522"/>
      <point x="247" y="529"/>
      <point x="208" y="529" type="curve" smooth="yes"/>
      <point x="123" y="529"/>
      <point x="63" y="487"/>
      <point x="63" y="402" type="curve" smooth="yes"/>
      <point x="63" y="339"/>
      <point x="100" y="288"/>
      <point x="160" y="274" type="curve"/>
      <point x="97" y="256"/>
      <point x="44" y="217"/>
      <point x="44" y="141" type="curve" smooth="yes"/>
      <point x="44" y="41"/>
      <point x="111" y="-9"/>
    </contour>
  </outline>
</glyph>
<glyph name="zeta" format="2">
  <advance width="327"/>
  <unicode hex="03B6"/>
  <outline>
    <contour>
      <point x="295" y="-179" type="line"/>
      <point x="318" y="-150"/>
      <point x="339" y="-92"/>
      <point x="339" y="-60" type="curve" smooth="yes"/>
      <point x="339" y="-4"/>
      <point x="307" y="24"/>
      <point x="229" y="47" type="curve" smooth="yes"/>
      <point x="182" y="61"/>
      <point x="151" y="74"/>
      <point x="129" y="92" type="curve" smooth="yes"/>
      <point x="94" y="121"/>
      <point x="87" y="160"/>
      <point x="87" y="225" type="curve" smooth="yes"/>
      <point x="87" y="372"/>
      <point x="175" y="574"/>
      <point x="321" y="743" type="curve"/>
      <point x="321" y="769" type="line"/>
      <point x="79" y="769" type="line"/>
      <point x="79" y="739" type="line"/>
      <point x="282" y="739" type="line"/>
      <point x="163" y="599"/>
      <point x="54" y="394"/>
      <point x="54" y="228" type="curve" smooth="yes"/>
      <point x="54" y="102"/>
      <point x="81" y="59"/>
      <point x="219" y="18" type="curve" smooth="yes"/>
      <point x="279" y="0"/>
      <point x="306" y="-19"/>
      <point x="306" y="-59" type="curve" smooth="yes"/>
      <point x="306" y="-90"/>
      <point x="290" y="-135"/>
      <point x="267" y="-166" type="curve"/>
    </contour>
  </outline>
</glyph>
<glyph name="iota" format="2">
  <advance width="205"/>
  <unicode hex="03B9"/>
  <anchor x="102" y="517" name="top"/>
  <outline>
    <contour>
      <point x="176" y="-5" type="curve"/>
      <point x="181" y="23" type="line"/>
      <point x="104" y="33"/>
      <point x="110" y="78"/>
      <point x="110" y="144" type="curve" smooth="yes"/>
      <point x="110" y="517" type="line"/>
      <point x="78" y="517" type="line"/>
      <point x="78" y="129" type="line" smooth="yes"/>
      <point x="78" y="47"/>
      <point x="88" y="7"/>
    </contour>
  </outline>
</glyph>
<glyph name="nu" format="2">
  <advance width="355"/>
  <unicode hex="03BD"/>
  <outline>
    <contour>
      <point x="144" y="0" type="curve"/>
      <point x="176" y="0" type="line"/>
      <point x="252" y="151"/>
      <point x="304" y="312"/>
      <point x="335" y="517" type="curve"/>
      <point x="302" y="517" type="line"/>
      <point x="275" y="344"/>
      <point x="233" y="191"/>
      <point x="169" y="51" type="curve"/>
      <point x="144" y="215"/>
      <point x="105" y="376"/>
      <point x="49" y="517" type="curve"/>
      <point x="15" y="517" type="line"/>
      <point x="81" y="346"/>
      <point x="123" y="169"/>
    </contour>
  </outline>
</glyph>
<glyph name="xi" format="2">
  <advance width="343"/>
  <unicode hex="03BE"/>
  <outline>
    <contour>
      <point x="295" y="-178" type="line"/>
      <point x="318" y="-149"/>
      <point x="339" y="-92"/>
      <point x="339" y="-60" type="curve" smooth="yes"/>
      <point x="339" y="-4"/>
      <point x="307" y="23"/>
      <point x="229" y="47" type="curve" smooth="yes"/>
      <point x="110" y="83"/>
      <point x="87" y="125"/>
      <point x="87" y="212" type="curve" smooth="yes"/>
      <point x="87" y="318"/>
      <point x="163" y="401"/>
      <point x="278" y="401" type="curve" smooth="yes"/>
      <point x="295" y="401" type="line"/>
      <point x="295" y="431" type="line"/>
      <point x="279" y="431" type="line" smooth="yes"/>
      <point x="165" y="431"/>
      <point x="105" y="488"/>
      <point x="105" y="594" type="curve" smooth="yes"/>
      <point x="105" y="689"/>
      <point x="150" y="746"/>
      <point x="232" y="746" type="curve" smooth="yes"/>
      <point x="261" y="746"/>
      <point x="291" y="741"/>
      <point x="318" y="730" type="curve"/>
      <point x="326" y="756" type="line"/>
      <point x="300" y="770"/>
      <point x="266" y="776"/>
      <point x="233" y="776" type="curve" smooth="yes"/>
      <point x="134" y="776"/>
      <point x="72" y="707"/>
      <point x="72" y="594" type="curve" smooth="yes"/>
      <point x="72" y="505"/>
      <point x="123" y="433"/>
      <point x="196" y="415" type="curve"/>
      <point x="107" y="386"/>
      <point x="54" y="300"/>
      <point x="54" y="212" type="curve" smooth="yes"/>
      <point x="54" y="115"/>
      <point x="82" y="59"/>
      <point x="219" y="18" type="curve" smooth="yes"/>
      <point x="279" y="0"/>
      <point x="306" y="-19"/>
      <point x="306" y="-59" type="curve" smooth="yes"/>
      <point x="306" y="-90"/>
      <point x="290" y="-135"/>
      <point x="267" y="-166" type="curve"/>
    </contour>
  </outline>
</glyph>
<glyph name="rho" format="2">
  <advance width="445"/>
  <unicode hex="03C1"/>
  <anchor x="232" y="517" name="top"/>
  <outline>
    <contour>
      <point x="77" y="-185" type="line"/>
      <point x="109" y="-185" type="line"/>
      <point x="109" y="19" type="line"/>
      <point x="134" y="1"/>
      <point x="168" y="-10"/>
      <point x="206" y="-10" type="curve" smooth="yes"/>
      <point x="324" y="-10"/>
      <point x="391" y="88"/>
      <point x="391" y="259" type="curve" smooth="yes"/>
      <point x="391" y="438"/>
      <point x="333" y="529"/>
      <point x="232" y="529" type="curve" smooth="yes"/>
      <point x="141" y="529"/>
      <point x="77" y="465"/>
      <point x="77" y="327" type="curve" smooth="yes"/>
    </contour>
    <contour>
      <point x="206" y="20" type="curve" smooth="yes"/>
      <point x="177" y="20"/>
      <point x="139" y="27"/>
      <point x="109" y="52" type="curve"/>
      <point x="109" y="332" type="line" smooth="yes"/>
      <point x="109" y="447"/>
      <point x="160" y="499"/>
      <point x="232" y="499" type="curve" smooth="yes"/>
      <point x="311" y="499"/>
      <point x="358" y="418"/>
      <point x="358" y="259" type="curve" smooth="yes"/>
      <point x="358" y="108"/>
      <point x="302" y="20"/>
    </contour>
  </outline>
</glyph>
<glyph name="chi" format="2">
  <advance width="330"/>
  <unicode hex="03C7"/>
  <outline>
    <contour>
      <point x="6" y="-185" type="curve"/>
      <point x="39" y="-185" type="line"/>
      <point x="64" y="-86"/>
      <point x="106" y="28"/>
      <point x="166" y="157" type="curve"/>
      <point x="226" y="28"/>
      <point x="259" y="-76"/>
      <point x="291" y="-185" type="curve"/>
      <point x="324" y="-185" type="line"/>
      <point x="296" y="-82"/>
      <point x="255" y="33"/>
      <point x="182" y="190" type="curve"/>
      <point x="309" y="517" type="line"/>
      <point x="276" y="517" type="line"/>
      <point x="165" y="221" type="line"/>
      <point x="55" y="517" type="line"/>
      <point x="20" y="517" type="line"/>
      <point x="148" y="189" type="line"/>
      <point x="76" y="35"/>
      <point x="36" y="-82"/>
    </contour>
  </outline>
</glyph>
<glyph name="psi" format="2">
  <advance width="576"/>
  <unicode hex="03C8"/>
  <outline>
    <contour>
      <point x="272" y="-185" type="line"/>
      <point x="304" y="-185" type="line"/>
      <point x="304" y="-8" type="line"/>
      <point x="430" y="1"/>
      <point x="497" y="68"/>
      <point x="497" y="209" type="curve" smooth="yes"/>
      <point x="497" y="517" type="line"/>
      <point x="465" y="517" type="line"/>
      <point x="465" y="207" type="line" smooth="yes"/>
      <point x="465" y="91"/>
      <point x="419" y="31"/>
      <point x="304" y="22" type="curve"/>
      <point x="304" y="517" type="line"/>
      <point x="272" y="517" type="line"/>
      <point x="272" y="22" type="line"/>
      <point x="154" y="31"/>
      <point x="111" y="91"/>
      <point x="111" y="207" type="curve" smooth="yes"/>
      <point x="111" y="517" type="line"/>
      <point x="79" y="517" type="line"/>
      <point x="79" y="209" type="line" smooth="yes"/>
      <point x="79" y="65"/>
      <point x="143" y="1"/>
      <point x="272" y="-8" type="curve"/>
    </contour>
  </outline>
</glyph>
<glyph name="omega" format="2">
  <advance width="662"/>
  <unicode hex="03C9"/>
  <anchor x="319" y="0" name="bottom"/>
  <anchor x="331" y="517" name="top"/>
  <outline>
    <contour>
      <point x="200" y="-9" type="curve" smooth="yes"/>
      <point x="270" y="-9"/>
      <point x="310" y="24"/>
      <point x="330" y="107" type="curve"/>
      <point x="353" y="23"/>
      <point x="395" y="-9"/>
      <point x="462" y="-9" type="curve" smooth="yes"/>
      <point x="554" y="-9"/>
      <point x="604" y="81"/>
      <point x="604" y="244" type="curve" smooth="yes"/>
      <point x="604" y="342"/>
      <point x="583" y="432"/>
      <point x="532" y="530" type="curve"/>
      <point x="504" y="515" type="line"/>
      <point x="549" y="429"/>
      <point x="572" y="333"/>
      <point x="572" y="246" type="curve" smooth="yes"/>
      <point x="572" y="100"/>
      <point x="535" y="21"/>
      <point x="461" y="21" type="curve" smooth="yes"/>
      <point x="385" y="21"/>
      <point x="347" y="82"/>
      <point x="347" y="202" type="curve" smooth="yes"/>
      <point x="347" y="412" type="line"/>
      <point x="315" y="412" type="line"/>
      <point x="315" y="202" type="line" smooth="yes"/>
      <point x="315" y="82"/>
      <point x="277" y="21"/>
      <point x="201" y="21" type="curve" smooth="yes"/>
      <point x="128" y="21"/>
      <point x="90" y="100"/>
      <point x="90" y="246" type="curve" smooth="yes"/>
      <point x="90" y="333"/>
      <point x="113" y="429"/>
      <point x="158" y="515" type="curve"/>
      <point x="130" y="530" type="line"/>
      <point x="79" y="432"/>
      <point x="58" y="342"/>
      <point x="58" y="244" type="curve" smooth="yes"/>
      <point x="58" y="81"/>
      <point x="107" y="-9"/>
    </contour>
  </outline>
</glyph>
<glyph name="De-cy" format="2">
  <advance width="510"/>
  <unicode hex="0414"/>
  <outline>
    <contour>
      <point x="9" y="-185" type="line"/>
      <point x="43" y="-185" type="line"/>
      <point x="43" y="0" type="line"/>
      <point x="421" y="0" type="line"/>
      <point x="421" y="-185" type="line"/>
      <point x="455" y="-185" type="line"/>
      <point x="455" y="32" type="line"/>
      <point x="420" y="32" type="line"/>
      <point x="420" y="693" type="line"/>
      <point x="156" y="693" type="line"/>
      <point x="156" y="279"/>
      <point x="134" y="112"/>
      <point x="35" y="32" type="curve"/>
      <point x="9" y="32" type="line"/>
    </contour>
    <contour>
      <point x="85" y="32" type="line"/>
      <point x="178" y="138"/>
      <point x="189" y="320"/>
      <point x="189" y="661" type="curve"/>
      <point x="386" y="661" type="line"/>
      <point x="386" y="32" type="line"/>
    </contour>
  </outline>
</glyph>
<glyph name="Ze-cy" format="2">
  <advance width="412"/>
  <unicode hex="0417"/>
  <anchor x="206" y="0" name="bottom"/>
  <anchor x="193" y="668" name="top"/>
  <outline>
    <contour>
      <point x="175" y="-9" type="curve" smooth="yes"/>
      <point x="285" y="-9"/>
      <point x="358" y="60"/>
      <point x="358" y="184" type="curve" smooth="yes"/>
      <point x="358" y="283"/>
      <point x="313" y="345"/>
      <point x="229" y="371" type="curve"/>
      <point x="302" y="397"/>
      <point x="335" y="464"/>
      <point x="335" y="543" type="curve" smooth="yes"/>
      <point x="335" y="641"/>
      <point x="267" y="703"/>
      <point x="174" y="703" type="curve" smooth="yes"/>
      <point x="131" y="703"/>
      <point x="81" y="693"/>
      <point x="47" y="668" type="curve"/>
      <point x="60" y="641" type="line"/>
      <point x="92" y="661"/>
      <point x="136" y="672"/>
      <point x="174" y="672" type="curve" smooth="yes"/>
      <point x="247" y="672"/>
      <point x="301" y="621"/>
      <point x="301" y="543" type="curve" smooth="yes"/>
      <point x="301" y="470"/>
      <point x="271" y="386"/>
      <point x="156" y="386" type="curve" smooth="yes"/>
      <point x="96" y="386" type="line"/>
      <point x="96" y="355" type="line"/>
      <point x="156" y="355" type="line" smooth="yes"/>
      <point x="264" y="355"/>
      <point x="324" y="293"/>
      <point x="324" y="184" type="curve"/>
      <point x="324" y="65"/>
      <point x="247" y="23"/>
      <point x="173" y="23" type="curve" smooth="yes"/>
      <point x="126" y="23"/>
      <point x="87" y="30"/>
      <point x="46" y="51" type="curve"/>
      <point x="35" y="22" type="line"/>
      <point x="78" y="1"/>
      <point x="126" y="-9"/>
    </contour>
  </outline>
</glyph>
<glyph name="Ii-cy" format="2">
  <advance width="561"/>
  <unicode hex="0418"/>
  <anchor x="541" y="0" name="bottomright"/>
  <anchor x="281" y="668" name="top"/>
  <outline>
    <contour>
      <point x="88" y="0" type="line"/>
      <point x="123" y="0" type="line"/>
      <point x="222" y="234"/>
      <point x="336" y="465"/>
      <point x="439" y="639" type="curve"/>
      <point x="439" y="0" type="line"/>
      <point x="473" y="0" type="line"/>
      <point x="473" y="693" type="line"/>
      <point x="435" y="693" type="line"/>
      <point x="327" y="513"/>
      <point x="210" y="283"/>
      <point x="122" y="78" type="curve"/>
      <point x="122" y="693" type="line"/>
      <point x="88" y="693" type="line"/>
    </contour>
  </outline>
</glyph>
<glyph name="El-cy" format="2">
  <advance width="520"/>
  <unicode hex="041B"/>
  <outline>
    <contour>
      <point x="5" y="-6" type="line"/>
      <point x="106" y="17"/>
      <point x="155" y="91"/>
      <point x="179" y="220" type="curve" smooth="yes"/>
      <point x="199" y="328"/>
      <point x="201" y="473"/>
      <point x="201" y="661" type="curve"/>
      <point x="398" y="661" type="line"/>
      <point x="398" y="0" type="line"/>
      <point x="432" y="0" type="line"/>
      <point x="432" y="693" type="line"/>
      <point x="168" y="693" type="line"/>
      <point x="168" y="482"/>
      <point x="164" y="329"/>
      <point x="143" y="222" type="curve" smooth="yes"/>
      <point x="121" y="108"/>
      <point x="79" y="47"/>
      <point x="0" y="24" type="curve"/>
    </contour>
  </outline>
</glyph>
<glyph name="Che-cy" format="2">
  <advance width="466"/>
  <unicode hex="0427"/>
  <anchor x="446" y="0" name="bottomright"/>
  <anchor x="218" y="668" name="top"/>
  <outline>
    <contour>
      <point x="344" y="0" type="line"/>
      <point x="378" y="0" type="line"/>
      <point x="378" y="693" type="line"/>
      <point x="344" y="693" type="line"/>
      <point x="344" y="321" type="line"/>
      <point x="301" y="304"/>
      <point x="254" y="298"/>
      <point x="209" y="298" type="curve" smooth="yes"/>
      <point x="122" y="298"/>
      <point x="88" y="345"/>
      <point x="88" y="458" type="curve" smooth="yes"/>
      <point x="88" y="693" type="line"/>
      <point x="54" y="693" type="line"/>
      <point x="54" y="451" type="line" smooth="yes"/>
      <point x="54" y="329"/>
      <point x="98" y="266"/>
      <point x="206" y="266" type="curve" smooth="yes"/>
      <point x="256" y="266"/>
      <point x="302" y="274"/>
      <point x="344" y="289" type="curve"/>
    </contour>
  </outline>
</glyph>
<glyph name="Shcha-cy" format="2">
  <advance width="743"/>
  <unicode hex="0429"/>
  <outline>
    <contour>
      <point x="649" y="-185" type="line"/>
      <point x="683" y="-185" type="line"/>
      <point x="683" y="32" type="line"/>
      <point x="648" y="32" type="line"/>
      <point x="648" y="693" type="line"/>
      <point x="614" y="693" type="line"/>
      <point x="614" y="32" type="line"/>
      <point x="385" y="32" type="line"/>
      <point x="385" y="693" type="line"/>
      <point x="351" y="693" type="line"/>
      <point x="351" y="32" type="line"/>
      <point x="122" y="32" type="line"/>
      <point x="122" y="693" type="line"/>
      <point x="88" y="693" type="line"/>
      <point x="88" y="0" type="line"/>
      <point x="649" y="0" type="line"/>
    </contour>
  </outline>
</glyph>
<glyph name="Yeru-cy" format="2">
  <advance width="670"/>
  <unicode hex="042B"/>
  <anchor x="333" y="668" name="top"/>
  <outline>
    <contour>
      <point x="215" y="-2" type="curve" smooth="yes"/>
      <point x="361" y="-2"/>
      <point x="432" y="67"/>
      <point x="432" y="206" type="curve" smooth="yes"/>
      <point x="432" y="311"/>
      <point x="388" y="403"/>
      <point x="219" y="401" type="curve" smooth="yes"/>
      <point x="187" y="401"/>
      <point x="154" y="398"/>
      <point x="122" y="394" type="curve"/>
      <point x="122" y="693" type="line"/>
      <point x="88" y="693" type="line"/>
      <point x="88" y="12" type="line"/>
      <point x="126" y="3"/>
      <point x="172" y="-2"/>
    </contour>
    <contour>
      <point x="211" y="30" type="curve" smooth="yes"/>
      <point x="182" y="30"/>
      <point x="147" y="34"/>
      <point x="122" y="39" type="curve"/>
      <point x="122" y="362" type="line"/>
      <point x="151" y="366"/>
      <point x="185" y="369"/>
      <point x="219" y="369" type="curve" smooth="yes"/>
      <point x="362" y="370"/>
      <point x="396" y="299"/>
      <point x="396" y="203" type="curve" smooth="yes"/>
      <point x="396" y="85"/>
      <point x="338" y="30"/>
    </contour>
    <contour>
      <point x="548" y="0" type="line"/>
      <point x="582" y="0" type="line"/>
      <point x="582" y="693" type="line"/>
      <point x="548" y="693" type="line"/>
    </contour>
  </outline>
</glyph>
<glyph name="Ereversed-cy" format="2">
  <advance width="445"/>
  <unicode hex="042D"/>
  <anchor x="175" y="668" name="top"/>
  <outline>
    <contour>
      <point x="158" y="-9" type="curve" smooth="yes"/>
      <point x="305" y="-9"/>
      <point x="383" y="120"/>
      <point x="383" y="340" type="curve" smooth="yes"/>
      <point x="383" y="575"/>
      <point x="311" y="702"/>
      <point x="161" y="702" type="curve" smooth="yes"/>
      <point x="113" y="702"/>
      <point x="71" y="691"/>
      <point x="33" y="672" type="curve"/>
      <point x="43" y="644" type="line"/>
      <point x="74" y="659"/>
      <point x="117" y="671"/>
      <point x="160" y="671" type="curve" smooth="yes"/>
      <point x="282" y="671"/>
      <point x="340" y="573"/>
      <point x="346" y="377" type="curve"/>
      <point x="126" y="377" type="line"/>
      <point x="126" y="345" type="line"/>
      <point x="347" y="345" type="line"/>
      <point x="347" y="136"/>
      <point x="283" y="22"/>
      <point x="155" y="22" type="curve" smooth="yes"/>
      <point x="115" y="22"/>
      <point x="74" y="30"/>
      <point x="35" y="51" type="curve"/>
      <point x="26" y="23" type="line"/>
      <point x="63" y="0"/>
      <point x="111" y="-9"/>
    </contour>
  </outline>
</glyph>
<glyph name="de-cy" format="2">
  <advance width="438"/>
  <unicode hex="0434"/>
  <outline>
    <contour>
      <point x="4" y="-145" type="line"/>
      <point x="36" y="-145" type="line"/>
      <point x="36" y="0" type="line"/>
      <point x="370" y="0" type="line"/>
      <point x="370" y="-145" type="line"/>
      <point x="402" y="-145" type="line"/>
      <point x="402" y="30" type="line"/>
      <point x="351" y="30" type="line"/>
      <point x="351" y="517" type="line"/>
      <point x="126" y="517" type="line"/>
      <point x="126" y="240"/>
      <point x="83" y="95"/>
      <point x="40" y="30" type="curve"/>
      <point x="4" y="30" type="line"/>
    </contour>
    <contour>
      <point x="76" y="30" type="line"/>
      <point x="115" y="100"/>
      <point x="157" y="225"/>
      <point x="157" y="487" type="curve"/>
      <point x="319" y="487" type="line"/>
      <point x="319" y="30" type="line"/>
    </contour>
  </outline>
</glyph>
<glyph name="ka-cy" format="2">
  <advance width="367"/>
  <unicode hex="043A"/>
  <anchor x="347" y="0" name="bottomright"/>
  <anchor x="200" y="517" name="top"/>
  <outline>
    <contour>
      <point x="84" y="0" type="line"/>
      <point x="116" y="0" type="line"/>
      <point x="116" y="265" type="line"/>
      <point x="199" y="197"/>
      <point x="274" y="97"/>
      <point x="325" y="0" type="curve"/>
      <point x="361" y="0" type="line"/>
      <point x="314" y="95"/>
      <point x="230" y="207"/>
      <point x="149" y="278" type="curve"/>
      <point x="215" y="348"/>
      <point x="277" y="421"/>
      <point x="338" y="517" type="curve"/>
      <point x="303" y="517" type="line"/>
      <point x="251" y="436"/>
      <point x="188" y="361"/>
      <point x="116" y="284" type="curve"/>
      <point x="116" y="517" type="line"/>
      <point x="84" y="517" type="line"/>
    </contour>
  </outline>
</glyph>
<glyph name="el-cy" format="2">
  <advance width="453"/>
  <unicode hex="043B"/>
  <outline>
    <contour>
      <point x="14" y="-7" type="line"/>
      <point x="73" y="14"/>
      <point x="111" y="47"/>
      <point x="140" y="120" type="curve" smooth="yes"/>
      <point x="167" y="188"/>
      <point x="175" y="287"/>
      <point x="175" y="415" type="curve" smooth="yes"/>
      <point x="175" y="487" type="line"/>
      <point x="337" y="487" type="line"/>
      <point x="337" y="0" type="line"/>
      <point x="369" y="0" type="line"/>
      <point x="369" y="517" type="line"/>
      <point x="143" y="517" type="line"/>
      <point x="143" y="434" type="line" smooth="yes"/>
      <point x="143" y="298"/>
      <point x="137" y="198"/>
      <point x="112" y="133" type="curve" smooth="yes"/>
      <point x="88" y="71"/>
      <point x="52" y="40"/>
      <point x="4" y="20" type="curve"/>
    </contour>
  </outline>
</glyph>
<glyph name="em-cy" format="2">
  <advance width="586"/>
  <unicode hex="043C"/>
  <outline>
    <contour>
      <point x="74" y="0" type="curve"/>
      <point x="107" y="0" type="line"/>
      <point x="110" y="161"/>
      <point x="116" y="327"/>
      <point x="126" y="473" type="curve"/>
      <point x="185" y="341"/>
      <point x="232" y="211"/>
      <point x="274" y="77" type="curve"/>
      <point x="313" y="77" type="line"/>
      <point x="354" y="212"/>
      <point x="401" y="342"/>
      <point x="460" y="475" type="curve"/>
      <point x="469" y="328"/>
      <point x="476" y="161"/>
      <point x="479" y="0" type="curve"/>
      <point x="512" y="0" type="line"/>
      <point x="507" y="181"/>
      <point x="501" y="358"/>
      <point x="486" y="517" type="curve"/>
      <point x="449" y="517" type="line"/>
      <point x="392" y="393"/>
      <point x="339" y="261"/>
      <point x="293" y="112" type="curve"/>
      <point x="248" y="261"/>
      <point x="194" y="393"/>
      <point x="137" y="517" type="curve"/>
      <point x="99" y="517" type="line"/>
      <point x="85" y="358"/>
      <point x="79" y="181"/>
    </contour>
  </outline>
</glyph>
<glyph name="en-cy" format="2">
  <advance width="478"/>
  <unicode hex="043D"/>
  <anchor x="458" y="0" name="bottomright"/>
  <outline>
    <contour>
      <point x="84" y="0" type="line"/>
      <point x="116" y="0" type="line"/>
      <point x="116" y="255" type="line"/>
      <point x="362" y="255" type="line"/>
      <point x="362" y="0" type="line"/>
      <point x="394" y="0" type="line"/>
      <point x="394" y="517" type="line"/>
      <point x="362" y="517" type="line"/>
      <point x="362" y="285" type="line"/>
      <point x="116" y="285" type="line"/>
      <point x="116" y="517" type="line"/>
      <point x="84" y="517" type="line"/>
    </contour>
  </outline>
</glyph>
<glyph name="yu-cy" format="2">
  <advance width="593"/>
  <unicode hex="044E"/>
  <anchor x="297" y="517" name="top"/>
  <outline>
    <contour>
      <point x="377" y="-10" type="curve" smooth="yes"/>
      <point x="479" y="-10"/>
      <point x="539" y="88"/>
      <point x="539" y="259" type="curve" smooth="yes"/>
      <point x="539" y="430"/>
      <point x="479" y="529"/>
      <point x="377" y="529" type="curve" smooth="yes"/>
      <point x="280" y="529"/>
      <point x="221" y="440"/>
      <point x="215" y="285" type="curve"/>
      <point x="116" y="285" type="line"/>
      <point x="116" y="517" type="line"/>
      <point x="84" y="517" type="line"/>
      <point x="84" y="0" type="line"/>
      <point x="116" y="0" type="line"/>
      <point x="116" y="255" type="line"/>
      <point x="215" y="255" type="line"/>
      <point x="215" y="88"/>
      <point x="275" y="-10"/>
    </contour>
    <contour>
      <point x="377" y="20" type="curve" smooth="yes"/>
      <point x="296" y="20"/>
      <point x="248" y="108"/>
      <point x="248" y="259" type="curve" smooth="yes"/>
      <point x="248" y="410"/>
      <point x="296" y="499"/>
      <point x="377" y="499" type="curve" smooth="yes"/>
      <point x="458" y="499"/>
      <point x="506" y="410"/>
      <point x="506" y="259" type="curve" smooth="yes"/>
      <point x="506" y="108"/>
      <point x="458" y="20"/>
    </contour>
  </outline>
</glyph>
<glyph name="Yat-cy" format="2">
  <advance width="524"/>
  <unicode hex="0462"/>
  <outline>
    <contour>
      <point x="271" y="-2" type="curve" smooth="yes"/>
      <point x="418" y="-2"/>
      <point x="492" y="67"/>
      <point x="492" y="205" type="curve" smooth="yes"/>
      <point x="492" y="347"/>
      <point x="432" y="414"/>
      <point x="270" y="414" type="curve" smooth="yes"/>
      <point x="241" y="414"/>
      <point x="211" y="414"/>
      <point x="182" y="414" type="curve"/>
      <point x="182" y="652" type="line"/>
      <point x="319" y="652" type="line"/>
      <point x="319" y="682" type="line"/>
      <point x="182" y="682" type="line"/>
      <point x="182" y="742" type="line"/>
      <point x="148" y="742" type="line"/>
      <point x="148" y="682" type="line"/>
      <point x="30" y="682" type="line"/>
      <point x="30" y="652" type="line"/>
      <point x="148" y="652" type="line"/>
      <point x="148" y="12" type="line"/>
      <point x="182" y="3"/>
      <point x="234" y="-2"/>
    </contour>
    <contour>
      <point x="269" y="30" type="curve" smooth="yes"/>
      <point x="237" y="30"/>
      <point x="208" y="34"/>
      <point x="182" y="39" type="curve"/>
      <point x="182" y="382" type="line"/>
      <point x="212" y="382"/>
      <point x="245" y="382"/>
      <point x="275" y="382" type="curve" smooth="yes"/>
      <point x="410" y="382"/>
      <point x="457" y="325"/>
      <point x="457" y="206" type="curve" smooth="yes"/>
      <point x="457" y="90"/>
      <point x="395" y="30"/>
    </contour>
  </outline>
</glyph>
<glyph name="fita-cy" format="2">
  <advance width="440"/>
  <unicode hex="0473"/>
  <outline>
    <contour>
      <point x="220" y="-10" type="curve" smooth="yes"/>
      <point x="325" y="-10"/>
      <point x="386" y="88"/>
      <point x="386" y="259" type="curve" smooth="yes"/>
      <point x="386" y="430"/>
      <point x="325" y="529"/>
      <point x="220" y="529" type="curve" smooth="yes"/>
      <point x="115" y="529"/>
      <point x="54" y="430"/>
      <point x="54" y="259" type="curve" smooth="yes"/>
      <point x="54" y="88"/>
      <point x="115" y="-10"/>
    </contour>
    <contour>
      <point x="220" y="20" type="curve" smooth="yes"/>
      <point x="141" y="20"/>
      <point x="92" y="99"/>
      <point x="87" y="237" type="curve"/>
      <point x="103" y="262"/>
      <point x="126" y="277"/>
      <point x="157" y="277" type="curve" smooth="yes"/>
      <point x="198" y="277"/>
      <point x="237" y="232"/>
      <point x="289" y="232" type="curve" smooth="yes"/>
      <point x="314" y="232"/>
      <point x="335" y="240"/>
      <point x="353" y="258" type="curve"/>
      <point x="353" y="108"/>
      <point x="303" y="20"/>
    </contour>
    <contour>
      <point x="289" y="261" type="curve" smooth="yes"/>
      <point x="246" y="261"/>
      <point x="204" y="306"/>
      <point x="156" y="306" type="curve" smooth="yes"/>
      <point x="128" y="306"/>
      <point x="105" y="295"/>
      <point x="87" y="273" type="curve"/>
      <point x="90" y="416"/>
      <point x="140" y="499"/>
      <point x="220" y="499" type="curve" smooth="yes"/>
      <point x="297" y="499"/>
      <point x="345" y="423"/>
      <point x="352" y="292" type="curve"/>
      <point x="336" y="273"/>
      <point x="315" y="261"/>
    </contour>
  </outline>
</glyph>
<glyph name="Semisoftsign-cy" format="2">
  <advance width="472"/>
  <unicode hex="048C"/>
  <outline>
    <contour>
      <point x="223" y="-2" type="curve" smooth="yes"/>
      <point x="369" y="-2"/>
      <point x="440" y="67"/>
      <point x="440" y="206" type="curve" smooth="yes"/>
      <point x="440" y="311"/>
      <point x="396" y="403"/>
      <point x="227" y="401" type="curve" smooth="yes"/>
      <point x="195" y="401"/>
      <point x="162" y="398"/>
      <point x="130" y="394" type="curve"/>
      <point x="130" y="568" type="line"/>
      <point x="242" y="568" type="line"/>
      <point x="242" y="600" type="line"/>
      <point x="130" y="600" type="line"/>
      <point x="130" y="693" type="line"/>
      <point x="96" y="693" type="line"/>
      <point x="96" y="600" type="line"/>
      <point x="25" y="600" type="line"/>
      <point x="25" y="568" type="line"/>
      <point x="96" y="568" type="line"/>
      <point x="96" y="12" type="line"/>
      <point x="134" y="3"/>
      <point x="180" y="-2"/>
    </contour>
    <contour>
      <point x="219" y="30" type="curve" smooth="yes"/>
      <point x="190" y="30"/>
      <point x="155" y="34"/>
      <point x="130" y="39" type="curve"/>
      <point x="130" y="362" type="line"/>
      <point x="159" y="366"/>
      <point x="193" y="369"/>
      <point x="227" y="369" type="curve" smooth="yes"/>
      <point x="370" y="370"/>
      <point x="404" y="299"/>
      <point x="404" y="203" type="curve" smooth="yes"/>
      <point x="404" y="85"/>
      <point x="346" y="30"/>
    </contour>
  </outline>
</glyph>
<glyph name="gestroke-cy" format="2">
  <advance width="296"/>
  <unicode hex="0493"/>
  <outline>
    <contour>
      <point x="82" y="0" type="line"/>
      <point x="114" y="0" type="line"/>
      <point x="114" y="234" type="line"/>
      <point x="234" y="234" type="line"/>
      <point x="234" y="262" type="line"/>
      <point x="114" y="262" type="line"/>
      <point x="114" y="487" type="line"/>
      <point x="282" y="487" type="line"/>
      <point x="282" y="517" type="line"/>
      <point x="82" y="517" type="line"/>
      <point x="82" y="262" type="line"/>
      <point x="0" y="262" type="line"/>
      <point x="0" y="234" type="line"/>
      <point x="82" y="234" type="line"/>
    </contour>
  </outline>
</glyph>
<glyph name="zhedescender-cy" format="2">
  <advance width="512"/>
  <unicode hex="0497"/>
  <outline>
    <contour>
      <point x="486" y="-145" type="line"/>
      <point x="518" y="-145" type="line"/>
      <point x="518" y="28" type="line"/>
      <point x="490" y="28" type="line"/>
      <point x="443" y="115"/>
      <point x="370" y="211"/>
      <point x="302" y="279" type="curve"/>
      <point x="361" y="346"/>
      <point x="424" y="422"/>
      <point x="482" y="517" type="curve"/>
      <point x="447" y="517" type="line"/>
      <point x="398" y="437"/>
      <point x="337" y="358"/>
      <point x="272" y="284" type="curve"/>
      <point x="272" y="517" type="line"/>
      <point x="240" y="517" type="line"/>
      <point x="240" y="284" type="line"/>
      <point x="175" y="358"/>
      <point x="114" y="437"/>
      <point x="65" y="517" type="curve"/>
      <point x="30" y="517" type="line"/>
      <point x="88" y="422"/>
      <point x="151" y="346"/>
      <point x="210" y="279" type="curve"/>
      <point x="135" y="204"/>
      <point x="53" y="94"/>
      <point x="8" y="0" type="curve"/>
      <point x="44" y="0" type="line"/>
      <point x="92" y="96"/>
      <point x="164" y="194"/>
      <point x="240" y="265" type="curve"/>
      <point x="240" y="0" type="line"/>
      <point x="272" y="0" type="line"/>
      <point x="272" y="265" type="line"/>
      <point x="348" y="194"/>
      <point x="420" y="96"/>
      <point x="468" y="0" type="curve"/>
      <point x="486" y="0" type="line"/>
    </contour>
  </outline>
</glyph>
<glyph name="zedescender-cy" format="2">
  <advance width="359"/>
  <unicode hex="0499"/>
  <outline>
    <contour>
      <point x="147" y="-185" type="curve" smooth="yes"/>
      <point x="193" y="-185"/>
      <point x="227" y="-156"/>
      <point x="227" y="-113" type="curve" smooth="yes"/>
      <point x="227" y="-80"/>
      <point x="209" y="-54"/>
      <point x="167" y="-38" type="curve"/>
      <point x="171" y="-28"/>
      <point x="176" y="-18"/>
      <point x="180" y="-8" type="curve"/>
      <point x="262" y="0"/>
      <point x="315" y="50"/>
      <point x="315" y="141" type="curve" smooth="yes"/>
      <point x="315" y="217"/>
      <point x="262" y="256"/>
      <point x="199" y="274" type="curve"/>
      <point x="259" y="288"/>
      <point x="296" y="339"/>
      <point x="296" y="402" type="curve" smooth="yes"/>
      <point x="296" y="487"/>
      <point x="239" y="529"/>
      <point x="158" y="529" type="curve" smooth="yes"/>
      <point x="120" y="529"/>
      <point x="83" y="522"/>
      <point x="45" y="502" type="curve"/>
      <point x="52" y="476" type="line"/>
      <point x="86" y="493"/>
      <point x="119" y="499"/>
      <point x="157" y="499" type="curve" smooth="yes"/>
      <point x="217" y="499"/>
      <point x="263" y="470"/>
      <point x="263" y="399" type="curve" smooth="yes"/>
      <point x="263" y="328"/>
      <point x="213" y="288"/>
      <point x="130" y="288" type="curve" smooth="yes"/>
      <point x="87" y="288" type="line"/>
      <point x="87" y="258" type="line"/>
      <point x="130" y="258" type="line" smooth="yes"/>
      <point x="230" y="258"/>
      <point x="282" y="204"/>
      <point x="282" y="139" type="curve" smooth="yes"/>
      <point x="282" y="58"/>
      <point x="232" y="21"/>
      <point x="157" y="21" type="curve" smooth="yes"/>
      <point x="119" y="21"/>
      <point x="79" y="27"/>
      <point x="43" y="42" type="curve"/>
      <point x="36" y="14" type="line"/>
      <point x="71" y="-1"/>
      <point x="111" y="-8"/>
      <point x="149" y="-9" type="curve"/>
      <point x="143" y="-22"/>
      <point x="137" y="-37"/>
      <point x="130" y="-52" type="curve"/>
      <point x="179" y="-67"/>
      <point x="195" y="-86"/>
      <point x="195" y="-114" type="curve" smooth="yes"/>
      <point x="195" y="-143"/>
      <point x="178" y="-158"/>
      <point x="147" y="-158" type="curve" smooth="yes"/>
      <point x="131" y="-158"/>
      <point x="110" y="-155"/>
      <point x="94" y="-150" type="curve"/>
      <point x="90" y="-176" type="line"/>
      <point x="107" y="-182"/>
      <point x="126" y="-185"/>
    </contour>
  </outline>
</glyph>
<glyph name="Kadescender-cy" format="2">
  <advance width="470"/>
  <unicode hex="049A"/>
  <outline>
    <contour>
      <point x="418" y="-185" type="line"/>
      <point x="452" y="-185" type="line"/>
      <point x="452" y="34" type="line"/>
      <point x="417" y="34" type="line"/>
      <point x="354" y="149"/>
      <point x="255" y="276"/>
      <point x="156" y="361" type="curve"/>
      <point x="245" y="458"/>
      <point x="323" y="559"/>
      <point x="411" y="693" type="curve"/>
      <point x="374" y="693" type="line"/>
      <point x="299" y="580"/>
      <point x="218" y="476"/>
      <point x="122" y="369" type="curve"/>
      <point x="122" y="693" type="line"/>
      <point x="88" y="693" type="line"/>
      <point x="88" y="0" type="line"/>
      <point x="122" y="0" type="line"/>
      <point x="122" y="346" type="line"/>
      <point x="233" y="258"/>
      <point x="327" y="127"/>
      <point x="393" y="0" type="curve"/>
      <point x="418" y="0" type="line"/>
    </contour>
  </outline>
</glyph>
<glyph name="Kaverticalstroke-cy" format="2">
  <advance width="492"/>
  <unicode hex="049C"/>
  <outline>
    <contour>
      <point x="88" y="0" type="line"/>
      <point x="122" y="0" type="line"/>
      <point x="122" y="344" type="line"/>
      <point x="164" y="344" type="line"/>
      <point x="164" y="171" type="line"/>
      <point x="194" y="171" type="line"/>
      <point x="194" y="344" type="line"/>
      <point x="279" y="258"/>
      <point x="368" y="123"/>
      <point x="429" y="0" type="curve"/>
      <point x="468" y="0" type="line"/>
      <point x="411" y="123"/>
      <point x="307" y="272"/>
      <point x="221" y="363" type="curve"/>
      <point x="293" y="454"/>
      <point x="366" y="565"/>
      <point x="445" y="693" type="curve"/>
      <point x="410" y="693" type="line"/>
      <point x="344" y="586"/>
      <point x="271" y="476"/>
      <point x="194" y="376" type="curve"/>
      <point x="194" y="545" type="line"/>
      <point x="164" y="545" type="line"/>
      <point x="164" y="376" type="line"/>
      <point x="122" y="376" type="line"/>
      <point x="122" y="693" type="line"/>
      <point x="88" y="693" type="line"/>
    </contour>
  </outline>
</glyph>
<glyph name="Kabashkir-cy" format="2">
  <advance width="508"/>
  <unicode hex="04A0"/>
  <outline>
    <contour>
      <point x="142" y="0" type="line"/>
      <point x="176" y="0" type="line"/>
      <point x="176" y="346" type="line"/>
      <point x="287" y="258"/>
      <point x="381" y="127"/>
      <point x="447" y="0" type="curve"/>
      <point x="488" y="0" type="line"/>
      <point x="427" y="124"/>
      <point x="319" y="268"/>
      <point x="210" y="361" type="curve"/>
      <point x="299" y="458"/>
      <point x="377" y="559"/>
      <point x="465" y="693" type="curve"/>
      <point x="428" y="693" type="line"/>
      <point x="353" y="580"/>
      <point x="272" y="476"/>
      <point x="176" y="369" type="curve"/>
      <point x="176" y="693" type="line"/>
      <point x="14" y="693" type="line"/>
      <point x="14" y="661" type="line"/>
      <point x="142" y="661" type="line"/>
    </contour>
  </outline>
</glyph>
<glyph name="kabashkir-cy" format="2">
  <advance width="375"/>
  <unicode hex="04A1"/>
  <outline>
    <contour>
      <point x="92" y="0" type="line"/>
      <point x="124" y="0" type="line"/>
      <point x="124" y="265" type="line"/>
      <point x="207" y="197"/>
      <point x="282" y="97"/>
      <point x="333" y="0" type="curve"/>
      <point x="369" y="0" type="line"/>
      <point x="322" y="95"/>
      <point x="238" y="207"/>
      <point x="157" y="278" type="curve"/>
      <point x="223" y="348"/>
      <point x="285" y="421"/>
      <point x="346" y="517" type="curve"/>
      <point x="311" y="517" type="line"/>
      <point x="259" y="436"/>
      <point x="196" y="361"/>
      <point x="124" y="284" type="curve"/>
      <point x="124" y="517" type="line"/>
      <point x="2" y="517" type="line"/>
      <point x="2" y="487" type="line"/>
      <point x="92" y="487" type="line"/>
    </contour>
  </outline>
</glyph>
<glyph name="Pemiddlehook-cy" format="2">
  <advance width="784"/>
  <unicode hex="04A6"/>
  <outline>
    <contour>
      <point x="592" y="-185" type="curve" smooth="yes"/>
      <point x="690" y="-185"/>
      <point x="746" y="-77"/>
      <point x="746" y="121" type="curve" smooth="yes"/>
      <point x="746" y="320"/>
      <point x="684" y="431"/>
      <point x="571" y="431" type="curve" smooth="yes"/>
      <point x="520" y="431"/>
      <point x="482" y="420"/>
      <point x="449" y="403" type="curve"/>
      <point x="449" y="693" type="line"/>
      <point x="88" y="693" type="line"/>
      <point x="88" y="0" type="line"/>
      <point x="122" y="0" type="line"/>
      <point x="122" y="661" type="line"/>
      <point x="415" y="661" type="line"/>
      <point x="415" y="0" type="line"/>
      <point x="449" y="0" type="line"/>
      <point x="449" y="369" type="line"/>
      <point x="477" y="385"/>
      <point x="524" y="399"/>
      <point x="570" y="399" type="curve" smooth="yes"/>
      <point x="659" y="399"/>
      <point x="712" y="299"/>
      <point x="712" y="121" type="curve" smooth="yes"/>
      <point x="712" y="-68"/>
      <point x="665" y="-153"/>
      <point x="592" y="-153" type="curve" smooth="yes"/>
      <point x="576" y="-153"/>
      <point x="565" y="-153"/>
      <point x="551" y="-149" type="curve"/>
      <point x="548" y="-179" type="line"/>
      <point x="562" y="-184"/>
      <point x="578" y="-185"/>
    </contour>
  </outline>
</glyph>
<glyph name="Haabkhasian-cy" format="2">
  <advance width="584"/>
  <unicode hex="04A8"/>
  <guideline x="402" y="-7" angle="0"/>
  <outline>
    <contour>
      <point x="567" y="-6" type="curve"/>
      <point x="567" y="25" type="line"/>
      <point x="555" y="23"/>
      <point x="544" y="22"/>
      <point x="532" y="22" type="curve" smooth="yes"/>
      <point x="501" y="22"/>
      <point x="469" y="29"/>
      <point x="440" y="43" type="curve"/>
      <point x="501" y="91"/>
      <point x="543" y="176"/>
      <point x="543" y="302" type="curve" smooth="yes"/>
      <point x="543" y="444"/>
      <point x="498" y="515"/>
      <point x="410" y="515" type="curve" smooth="yes"/>
      <point x="320" y="515"/>
      <point x="274" y="444"/>
      <point x="274" y="303" type="curve" smooth="yes"/>
      <point x="274" y="175"/>
      <point x="319" y="89"/>
      <point x="382" y="41" type="curve"/>
      <point x="357" y="30"/>
      <point x="329" y="24"/>
      <point x="302" y="24" type="curve" smooth="yes"/>
      <point x="203" y="24"/>
      <point x="106" y="108"/>
      <point x="106" y="347" type="curve" smooth="yes"/>
      <point x="106" y="535"/>
      <point x="200" y="672"/>
      <point x="331" y="672" type="curve" smooth="yes"/>
      <point x="364" y="672"/>
      <point x="392" y="665"/>
      <point x="415" y="655" type="curve"/>
      <point x="425" y="684" type="line"/>
      <point x="399" y="696"/>
      <point x="367" y="703"/>
      <point x="331" y="703" type="curve" smooth="yes"/>
      <point x="177" y="703"/>
      <point x="70" y="554"/>
      <point x="70" y="347" type="curve" smooth="yes"/>
      <point x="70" y="83"/>
      <point x="182" y="-7"/>
      <point x="295" y="-7" type="curve" smooth="yes"/>
      <point x="335" y="-7"/>
      <point x="375" y="4"/>
      <point x="410" y="23" type="curve"/>
      <point x="447" y="1"/>
      <point x="488" y="-9"/>
      <point x="530" y="-9" type="curve" smooth="yes"/>
      <point x="542" y="-9"/>
      <point x="555" y="-8"/>
    </contour>
    <contour>
      <point x="414" y="58" type="curve"/>
      <point x="353" y="100"/>
      <point x="309" y="179"/>
      <point x="309" y="303" type="curve" smooth="yes"/>
      <point x="309" y="423"/>
      <point x="343" y="484"/>
      <point x="411" y="484" type="curve" smooth="yes"/>
      <point x="475" y="484"/>
      <point x="508" y="423"/>
      <point x="508" y="301" type="curve" smooth="yes"/>
      <point x="508" y="176"/>
      <point x="471" y="99"/>
    </contour>
  </outline>
</glyph>
<glyph name="haabkhasian-cy" format="2">
  <advance width="452"/>
  <unicode hex="04A9"/>
  <outline>
    <contour>
      <point x="419" y="-10" type="curve"/>
      <point x="419" y="18" type="line"/>
      <point x="417" y="18"/>
      <point x="415" y="18"/>
      <point x="413" y="18" type="curve" smooth="yes"/>
      <point x="378" y="18"/>
      <point x="347" y="26"/>
      <point x="322" y="41" type="curve"/>
      <point x="364" y="83"/>
      <point x="395" y="151"/>
      <point x="395" y="240" type="curve" smooth="yes"/>
      <point x="395" y="342"/>
      <point x="358" y="396"/>
      <point x="299" y="396" type="curve" smooth="yes"/>
      <point x="240" y="396"/>
      <point x="203" y="350"/>
      <point x="203" y="240" type="curve" smooth="yes"/>
      <point x="203" y="152"/>
      <point x="229" y="82"/>
      <point x="276" y="37" type="curve"/>
      <point x="256" y="26"/>
      <point x="234" y="21"/>
      <point x="213" y="21" type="curve" smooth="yes"/>
      <point x="143" y="21"/>
      <point x="78" y="86"/>
      <point x="78" y="249" type="curve" smooth="yes"/>
      <point x="78" y="401"/>
      <point x="130" y="498"/>
      <point x="237" y="498" type="curve" smooth="yes"/>
      <point x="254" y="498"/>
      <point x="277" y="494"/>
      <point x="290" y="490" type="curve"/>
      <point x="295" y="517" type="line"/>
      <point x="281" y="523"/>
      <point x="262" y="527"/>
      <point x="234" y="527" type="curve" smooth="yes"/>
      <point x="111" y="527"/>
      <point x="45" y="418"/>
      <point x="45" y="250" type="curve" smooth="yes"/>
      <point x="45" y="76"/>
      <point x="121" y="-7"/>
      <point x="209" y="-7" type="curve" smooth="yes"/>
      <point x="238" y="-7"/>
      <point x="269" y="2"/>
      <point x="298" y="20" type="curve"/>
      <point x="328" y="0"/>
      <point x="364" y="-10"/>
      <point x="407" y="-10" type="curve" smooth="yes"/>
      <point x="411" y="-10"/>
      <point x="415" y="-10"/>
    </contour>
    <contour>
      <point x="299" y="59" type="curve"/>
      <point x="258" y="95"/>
      <point x="235" y="156"/>
      <point x="235" y="240" type="curve" smooth="yes"/>
      <point x="235" y="329"/>
      <point x="257" y="366"/>
      <point x="299" y="366" type="curve" smooth="yes"/>
      <point x="339" y="366"/>
      <point x="363" y="326"/>
      <point x="363" y="240" type="curve" smooth="yes"/>
      <point x="363" y="157"/>
      <point x="336" y="95"/>
    </contour>
  </outline>
</glyph>
<glyph name="Shha-cy" format="2">
  <advance width="481"/>
  <unicode hex="04BA"/>
  <anchor x="461" y="0" name="bottomright"/>
  <outline>
    <contour>
      <point x="88" y="0" type="line"/>
      <point x="122" y="0" type="line"/>
      <point x="122" y="393" type="line"/>
      <point x="161" y="408"/>
      <point x="208" y="415"/>
      <point x="251" y="415" type="curve" smooth="yes"/>
      <point x="338" y="415"/>
      <point x="372" y="368"/>
      <point x="372" y="255" type="curve" smooth="yes"/>
      <point x="372" y="0" type="line"/>
      <point x="406" y="0" type="line"/>
      <point x="406" y="262" type="line" smooth="yes"/>
      <point x="406" y="384"/>
      <point x="362" y="447"/>
      <point x="254" y="447" type="curve" smooth="yes"/>
      <point x="207" y="447"/>
      <point x="162" y="438"/>
      <point x="122" y="425" type="curve"/>
      <point x="122" y="693" type="line"/>
      <point x="88" y="693" type="line"/>
    </contour>
  </outline>
</glyph>
<glyph name="Enhook-cy" format="2">
  <advance width="548"/>
  <unicode hex="04C7"/>
  <outline>
    <contour>
      <point x="360" y="-187" type="curve" smooth="yes"/>
      <point x="426" y="-187"/>
      <point x="460" y="-149"/>
      <point x="460" y="-65" type="curve" smooth="yes"/>
      <point x="460" y="693" type="line"/>
      <point x="426" y="693" type="line"/>
      <point x="426" y="378" type="line"/>
      <point x="122" y="378" type="line"/>
      <point x="122" y="693" type="line"/>
      <point x="88" y="693" type="line"/>
      <point x="88" y="0" type="line"/>
      <point x="122" y="0" type="line"/>
      <point x="122" y="346" type="line"/>
      <point x="426" y="346" type="line"/>
      <point x="426" y="-66" type="line" smooth="yes"/>
      <point x="426" y="-128"/>
      <point x="405" y="-156"/>
      <point x="361" y="-156" type="curve" smooth="yes"/>
      <point x="343" y="-156"/>
      <point x="327" y="-154"/>
      <point x="314" y="-150" type="curve"/>
      <point x="308" y="-178" type="line"/>
      <point x="322" y="-183"/>
      <point x="337" y="-187"/>
    </contour>
  </outline>
</glyph>
<glyph name="Gedescender-cy" format="2">
  <advance width="360"/>
  <unicode hex="04F6"/>
  <outline>
    <contour>
      <point x="120" y="-185" type="line"/>
      <point x="154" y="-185" type="line"/>
      <point x="154" y="35" type="line"/>
      <point x="122" y="35" type="line"/>
      <point x="122" y="661" type="line"/>
      <point x="332" y="661" type="line"/>
      <point x="332" y="693" type="line"/>
      <point x="88" y="693" type="line"/>
      <point x="88" y="0" type="line"/>
      <point x="120" y="0" type="line"/>
    </contour>
  </outline>
</glyph>
<glyph name="Germandbls" format="2">
  <advance width="511"/>
  <unicode hex="1E9E"/>
  <outline>
    <contour>
      <point x="80" y="0" type="line"/>
      <point x="117" y="0" type="line"/>
      <point x="117" y="464" type="line" smooth="yes"/>
      <point x="117" y="578"/>
      <point x="180" y="668"/>
      <point x="285" y="668" type="curve" smooth="yes"/>
      <point x="333" y="668"/>
      <point x="381" y="663"/>
      <point x="419" y="637" type="curve"/>
      <point x="241" y="352" type="line"/>
      <point x="345" y="326"/>
      <point x="438" y="280"/>
      <point x="438" y="173" type="curve" smooth="yes"/>
      <point x="438" y="95"/>
      <point x="395" y="23"/>
      <point x="302" y="23" type="curve" smooth="yes"/>
      <point x="260" y="23"/>
      <point x="222" y="31"/>
      <point x="182" y="48" type="curve"/>
      <point x="173" y="17" type="line"/>
      <point x="215" y="-1"/>
      <point x="258" y="-10"/>
      <point x="302" y="-10" type="curve" smooth="yes"/>
      <point x="413" y="-10"/>
      <point x="473" y="75"/>
      <point x="473" y="173" type="curve" smooth="yes"/>
      <point x="473" y="278"/>
      <point x="396" y="340"/>
      <point x="294" y="371" type="curve"/>
      <point x="465" y="643" type="line"/>
      <point x="418" y="687"/>
      <point x="352" y="702"/>
      <point x="285" y="702" type="curve" smooth="yes"/>
      <point x="159" y="702"/>
      <point x="80" y="599"/>
      <point x="80" y="464" type="curve" smooth="yes"/>
    </contour>
  </outline>
</glyph>
<glyph name="prosgegrammeni" format="2">
  <advance width="503"/>
  <unicode hex="1FBE"/>
  <anchor x="187" y="0" name="_bottom"/>
  <outline>
    <contour>
      <point x="261" y="-184" type="curve" smooth="yes"/>
      <point x="269" y="-184"/>
      <point x="277" y="-183"/>
      <point x="283" y="-181" type="curve"/>
      <point x="283" y="-154" type="line"/>
      <point x="220" y="-154"/>
      <point x="204" y="-131"/>
      <point x="204" y="-78" type="curve" smooth="yes"/>
      <point x="204" y="-61" type="line"/>
      <point x="175" y="-61" type="line"/>
      <point x="173" y="-70"/>
      <point x="172" y="-81"/>
      <point x="172" y="-89" type="curve"/>
      <point x="172" y="-155"/>
      <point x="211" y="-184"/>
    </contour>
  </outline>
</glyph>
<glyph name="psilivaria" format="2">
  <advance width="164"/>
  <unicode hex="1FCD"/>
  <anchor x="164" y="517" name="_top"/>
  <outline>
    <contour>
      <point x="259" y="601" type="line"/>
      <point x="278" y="608" type="line"/>
      <point x="213" y="780" type="line"/>
      <point x="184" y="767" type="line"/>
    </contour>
    <contour>
      <point x="53" y="612" type="line"/>
      <point x="101" y="649"/>
      <point x="134" y="696"/>
      <point x="134" y="749" type="curve" smooth="yes"/>
      <point x="134" y="769"/>
      <point x="125" y="781"/>
      <point x="107" y="781" type="curve" smooth="yes"/>
      <point x="91" y="781"/>
      <point x="80" y="770"/>
      <point x="80" y="752" type="curve" smooth="yes"/>
      <point x="80" y="742"/>
      <point x="85" y="726"/>
      <point x="104" y="721" type="curve"/>
      <point x="97" y="679"/>
      <point x="62" y="651"/>
      <point x="36" y="627" type="curve"/>
    </contour>
  </outline>
</glyph>
<glyph name="psilioxia" format="2">
  <advance width="322"/>
  <unicode hex="1FCE"/>
  <anchor x="164" y="517" name="_top"/>
  <outline>
    <contour>
      <point x="217" y="601" type="line"/>
      <point x="292" y="767" type="line"/>
      <point x="263" y="780" type="line"/>
      <point x="198" y="608" type="line"/>
    </contour>
    <contour>
      <point x="86" y="612" type="line"/>
      <point x="134" y="649"/>
      <point x="167" y="696"/>
      <point x="167" y="749" type="curve" smooth="yes"/>
      <point x="167" y="769"/>
      <point x="158" y="781"/>
      <point x="140" y="781" type="curve" smooth="yes"/>
      <point x="124" y="781"/>
      <point x="113" y="770"/>
      <point x="113" y="752" type="curve" smooth="yes"/>
      <point x="113" y="742"/>
      <point x="118" y="726"/>
      <point x="137" y="721" type="curve"/>
      <point x="130" y="679"/>
      <point x="95" y="651"/>
      <point x="69" y="627" type="curve"/>
    </contour>
  </outline>
</glyph>
<glyph name="varia" format="2">
  <advance width="312"/>
  <unicode hex="1FEF"/>
  <anchor x="151" y="517" name="_top"/>
  <outline>
    <contour>
      <point x="197" y="606" type="line"/>
      <point x="210" y="623" type="line"/>
      <point x="70" y="755" type="line"/>
      <point x="47" y="729" type="line"/>
    </contour>
  </outline>
</glyph>
<glyph name="dagger" format="2">
  <advance width="361"/>
  <unicode hex="2020"/>
  <outline>
    <contour>
      <point x="171" y="-145" type="curve"/>
      <point x="188" y="-145" type="line"/>
      <point x="193" y="12"/>
      <point x="196" y="146"/>
      <point x="196" y="237" type="curve" smooth="yes"/>
      <point x="196" y="431" type="line"/>
      <point x="323" y="431" type="line"/>
      <point x="323" y="462" type="line"/>
      <point x="196" y="462" type="line"/>
      <point x="196" y="693" type="line"/>
      <point x="163" y="693" type="line"/>
      <point x="163" y="462" type="line"/>
      <point x="38" y="462" type="line"/>
      <point x="38" y="431" type="line"/>
      <point x="163" y="431" type="line"/>
      <point x="163" y="237" type="line" smooth="yes"/>
      <point x="163" y="146"/>
      <point x="166" y="11"/>
    </contour>
  </outline>
</glyph>
<glyph name="bullet" format="2">
  <advance width="328"/>
  <unicode hex="2022"/>
  <outline>
    <contour>
      <point x="164" y="258" type="curve" smooth="yes"/>
      <point x="212" y="258"/>
      <point x="256" y="292"/>
      <point x="256" y="353" type="curve" smooth="yes"/>
      <point x="256" y="412"/>
      <point x="216" y="444"/>
      <point x="164" y="444" type="curve" smooth="yes"/>
      <point x="112" y="444"/>
      <point x="72" y="414"/>
      <point x="72" y="353" type="curve" smooth="yes"/>
      <point x="72" y="292"/>
      <point x="112" y="258"/>
    </contour>
  </outline>
</glyph>
<glyph name="euro" format="2">
  <advance width="420"/>
  <unicode hex="20AC"/>
  <outline>
    <contour>
      <point x="296" y="-9" type="curve" smooth="yes"/>
      <point x="334" y="-9"/>
      <point x="367" y="0"/>
      <point x="391" y="17" type="curve"/>
      <point x="382" y="44" type="line"/>
      <point x="356" y="29"/>
      <point x="326" y="21"/>
      <point x="296" y="21" type="curve" smooth="yes"/>
      <point x="200" y="21"/>
      <point x="158" y="83"/>
      <point x="148" y="253" type="curve"/>
      <point x="280" y="253" type="line"/>
      <point x="286" y="283" type="line"/>
      <point x="147" y="283" type="line"/>
      <point x="146" y="301"/>
      <point x="146" y="320"/>
      <point x="146" y="340" type="curve" smooth="yes"/>
      <point x="146" y="367"/>
      <point x="147" y="393"/>
      <point x="148" y="416" type="curve"/>
      <point x="313" y="416" type="line"/>
      <point x="319" y="446" type="line"/>
      <point x="149" y="446" type="line"/>
      <point x="161" y="607"/>
      <point x="205" y="674"/>
      <point x="292" y="674" type="curve" smooth="yes"/>
      <point x="324" y="674"/>
      <point x="357" y="666"/>
      <point x="377" y="654" type="curve"/>
      <point x="388" y="680" type="line"/>
      <point x="366" y="695"/>
      <point x="331" y="704"/>
      <point x="293" y="704" type="curve" smooth="yes"/>
      <point x="183" y="704"/>
      <point x="129" y="629"/>
      <point x="116" y="446" type="curve"/>
      <point x="19" y="446" type="line"/>
      <point x="19" y="416" type="line"/>
      <point x="114" y="416" type="line"/>
      <point x="113" y="392"/>
      <point x="112" y="367"/>
      <point x="112" y="340" type="curve" smooth="yes"/>
      <point x="112" y="320"/>
      <point x="112" y="301"/>
      <point x="113" y="283" type="curve"/>
      <point x="19" y="283" type="line"/>
      <point x="19" y="253" type="line"/>
      <point x="114" y="253" type="line"/>
      <point x="125" y="61"/>
      <point x="177" y="-9"/>
    </contour>
  </outline>
</glyph>
<glyph name="hryvnia" format="2">
  <advance width="420"/>
  <unicode hex="20B4"/>
  <outline>
    <contour>
      <point x="247" y="-10" type="curve" smooth="yes"/>
      <point x="290" y="-10"/>
      <point x="334" y="1"/>
      <point x="374" y="20" type="curve"/>
      <point x="365" y="53" type="line"/>
      <point x="331" y="35"/>
      <point x="292" y="22"/>
      <point x="247" y="22" type="curve" smooth="yes"/>
      <point x="152" y="22"/>
      <point x="99" y="78"/>
      <point x="99" y="173" type="curve" smooth="yes"/>
      <point x="99" y="203"/>
      <point x="105" y="227"/>
      <point x="116" y="248" type="curve"/>
      <point x="387" y="248" type="line"/>
      <point x="387" y="278" type="line"/>
      <point x="137" y="278" type="line"/>
      <point x="175" y="326"/>
      <point x="244" y="353"/>
      <point x="318" y="415" type="curve"/>
      <point x="387" y="415" type="line"/>
      <point x="387" y="445" type="line"/>
      <point x="343" y="445" type="line"/>
      <point x="358" y="469"/>
      <point x="368" y="497"/>
      <point x="368" y="534" type="curve" smooth="yes"/>
      <point x="368" y="637"/>
      <point x="304" y="703"/>
      <point x="194" y="703" type="curve" smooth="yes"/>
      <point x="155" y="703"/>
      <point x="114" y="693"/>
      <point x="84" y="679" type="curve"/>
      <point x="92" y="647" type="line"/>
      <point x="127" y="664"/>
      <point x="162" y="671"/>
      <point x="194" y="671" type="curve" smooth="yes"/>
      <point x="275" y="671"/>
      <point x="333" y="625"/>
      <point x="333" y="538" type="curve" smooth="yes"/>
      <point x="333" y="498"/>
      <point x="319" y="469"/>
      <point x="299" y="445" type="curve"/>
      <point x="33" y="445" type="line"/>
      <point x="33" y="415" type="line"/>
      <point x="266" y="415" type="line"/>
      <point x="208" y="373"/>
      <point x="144" y="344"/>
      <point x="92" y="278" type="curve"/>
      <point x="33" y="278" type="line"/>
      <point x="33" y="248" type="line"/>
      <point x="76" y="248" type="line"/>
      <point x="69" y="228"/>
      <point x="64" y="205"/>
      <point x="64" y="178" type="curve" smooth="yes"/>
      <point x="64" y="63"/>
      <point x="128" y="-10"/>
    </contour>
  </outline>
</glyph>
<glyph name="literSign" format="2">
  <advance width="300"/>
  <unicode hex="2113"/>
  <outline>
    <contour>
      <point x="201" y="-15" type="curve" smooth="yes"/>
      <point x="232" y="-15"/>
      <point x="264" y="-5"/>
      <point x="285" y="9" type="curve"/>
      <point x="271" y="35" type="line"/>
      <point x="254" y="25"/>
      <point x="233" y="15"/>
      <point x="202" y="15" type="curve" smooth="yes"/>
      <point x="148" y="15"/>
      <point x="121" y="55"/>
      <point x="121" y="171" type="curve" smooth="yes"/>
      <point x="121" y="242" type="line"/>
      <point x="242" y="360"/>
      <point x="273" y="482"/>
      <point x="273" y="620" type="curve" smooth="yes"/>
      <point x="273" y="719"/>
      <point x="246" y="776"/>
      <point x="183" y="776" type="curve" smooth="yes"/>
      <point x="120" y="776"/>
      <point x="89" y="730"/>
      <point x="89" y="639" type="curve" smooth="yes"/>
      <point x="89" y="251" type="line"/>
      <point x="7" y="176" type="line"/>
      <point x="26" y="155" type="line"/>
      <point x="89" y="212" type="line"/>
      <point x="89" y="171" type="line" smooth="yes"/>
      <point x="89" y="28"/>
      <point x="130" y="-15"/>
    </contour>
    <contour>
      <point x="121" y="282" type="curve"/>
      <point x="121" y="627" type="line" smooth="yes"/>
      <point x="121" y="709"/>
      <point x="142" y="746"/>
      <point x="183" y="746" type="curve" smooth="yes"/>
      <point x="222" y="746"/>
      <point x="242" y="699"/>
      <point x="242" y="613" type="curve" smooth="yes"/>
      <point x="242" y="497"/>
      <point x="209" y="374"/>
    </contour>
  </outline>
</glyph>
<glyph name="numero" format="2">
  <advance width="854"/>
  <unicode hex="2116"/>
  <outline>
    <contour>
      <point x="88" y="0" type="line"/>
      <point x="121" y="0" type="line"/>
      <point x="121" y="637" type="line"/>
      <point x="218" y="456"/>
      <point x="319" y="231"/>
      <point x="417" y="0" type="curve"/>
      <point x="451" y="0" type="line"/>
      <point x="451" y="694" type="line"/>
      <point x="418" y="694" type="line"/>
      <point x="418" y="80" type="line"/>
      <point x="331" y="282"/>
      <point x="227" y="506"/>
      <point x="125" y="693" type="curve"/>
      <point x="88" y="693" type="line"/>
    </contour>
    <contour>
      <point x="570" y="181" type="line"/>
      <point x="792" y="181" type="line"/>
      <point x="792" y="209" type="line"/>
      <point x="570" y="209" type="line"/>
    </contour>
    <contour>
      <point x="680" y="331" type="curve" smooth="yes"/>
      <point x="757" y="331"/>
      <point x="799" y="398"/>
      <point x="799" y="516" type="curve" smooth="yes"/>
      <point x="799" y="633"/>
      <point x="757" y="701"/>
      <point x="680" y="701" type="curve" smooth="yes"/>
      <point x="604" y="701"/>
      <point x="561" y="633"/>
      <point x="561" y="516" type="curve" smooth="yes"/>
      <point x="561" y="398"/>
      <point x="604" y="331"/>
    </contour>
    <contour>
      <point x="680" y="358" type="curve" smooth="yes"/>
      <point x="623" y="358"/>
      <point x="590" y="416"/>
      <point x="590" y="516" type="curve" smooth="yes"/>
      <point x="590" y="615"/>
      <point x="623" y="674"/>
      <point x="680" y="674" type="curve" smooth="yes"/>
      <point x="738" y="674"/>
      <point x="770" y="615"/>
      <point x="770" y="516" type="curve" smooth="yes"/>
      <point x="770" y="416"/>
      <point x="738" y="358"/>
    </contour>
  </outline>
</glyph>
<glyph name="increment" format="2">
  <advance width="461"/>
  <unicode hex="2206"/>
  <outline>
    <contour>
      <point x="28" y="0" type="curve"/>
      <point x="433" y="0" type="line"/>
      <point x="402" y="213"/>
      <point x="338" y="440"/>
      <point x="249" y="693" type="curve"/>
      <point x="208" y="693" type="line"/>
      <point x="123" y="440"/>
      <point x="59" y="213"/>
    </contour>
    <contour>
      <point x="65" y="30" type="line"/>
      <point x="95" y="217"/>
      <point x="156" y="453"/>
      <point x="229" y="660" type="curve"/>
      <point x="303" y="453"/>
      <point x="365" y="218"/>
      <point x="395" y="30" type="curve"/>
    </contour>
  </outline>
</glyph>
<glyph name="summation" format="2">
  <advance width="407"/>
  <unicode hex="2211"/>
  <outline>
    <contour>
      <point x="38" y="-109" type="line"/>
      <point x="354" y="-109" type="line"/>
      <point x="354" y="-77" type="line"/>
      <point x="71" y="-77" type="line"/>
      <point x="129" y="68"/>
      <point x="197" y="200"/>
      <point x="254" y="308" type="curve"/>
      <point x="179" y="449"/>
      <point x="149" y="498"/>
      <point x="77" y="661" type="curve"/>
      <point x="354" y="661" type="line"/>
      <point x="354" y="693" type="line"/>
      <point x="42" y="693" type="line"/>
      <point x="42" y="661" type="line"/>
      <point x="115" y="496"/>
      <point x="139" y="456"/>
      <point x="219" y="308" type="curve"/>
      <point x="145" y="168"/>
      <point x="79" y="30"/>
      <point x="38" y="-77" type="curve"/>
    </contour>
  </outline>
</glyph>
<glyph name="radical" format="2">
  <advance width="418"/>
  <unicode hex="221A"/>
  <outline>
    <contour>
      <point x="203" y="-15" type="curve"/>
      <point x="255" y="-15" type="line"/>
      <point x="411" y="783" type="line"/>
      <point x="377" y="783" type="line"/>
      <point x="228" y="18" type="line"/>
      <point x="193" y="151"/>
      <point x="157" y="276"/>
      <point x="124" y="376" type="curve"/>
      <point x="26" y="354" type="line"/>
      <point x="34" y="325" type="line"/>
      <point x="100" y="339" type="line"/>
      <point x="136" y="237"/>
      <point x="162" y="147"/>
    </contour>
  </outline>
</glyph>
<glyph name="integral" format="2">
  <advance width="267"/>
  <unicode hex="222B"/>
  <outline>
    <contour>
      <point x="36" y="-185" type="curve" smooth="yes"/>
      <point x="118" y="-185"/>
      <point x="150" y="-111"/>
      <point x="150" y="-36" type="curve" smooth="yes"/>
      <point x="150" y="628" type="line" smooth="yes"/>
      <point x="150" y="713"/>
      <point x="187" y="745"/>
      <point x="230" y="745" type="curve" smooth="yes"/>
      <point x="258" y="745" type="line"/>
      <point x="258" y="775" type="line"/>
      <point x="250" y="776"/>
      <point x="239" y="776"/>
      <point x="230" y="776" type="curve" smooth="yes"/>
      <point x="148" y="776"/>
      <point x="116" y="702"/>
      <point x="116" y="627" type="curve" smooth="yes"/>
      <point x="116" y="-37" type="line" smooth="yes"/>
      <point x="116" y="-122"/>
      <point x="79" y="-154"/>
      <point x="36" y="-154" type="curve" smooth="yes"/>
      <point x="8" y="-154" type="line"/>
      <point x="8" y="-184" type="line"/>
      <point x="16" y="-185"/>
      <point x="27" y="-185"/>
    </contour>
  </outline>
</glyph>
<glyph name="greaterequal" format="2">
  <advance width="420"/>
  <unicode hex="2265"/>
  <outline>
    <contour>
      <point x="64" y="168" type="line"/>
      <point x="371" y="339" type="line"/>
      <point x="371" y="359" type="line"/>
      <point x="64" y="530" type="line"/>
      <point x="48" y="503" type="line"/>
      <point x="328" y="349" type="line"/>
      <point x="48" y="194" type="line"/>
    </contour>
    <contour>
      <point x="44" y="0" type="line"/>
      <point x="378" y="0" type="line"/>
      <point x="378" y="31" type="line"/>
      <point x="44" y="31" type="line"/>
    </contour>
  </outline>
</glyph>
<glyph name="acute.asc" format="2">
  <advance width="314"/>
  <outline>
    <contour>
      <point x="85" y="827" type="line"/>
      <point x="235" y="889" type="line"/>
      <point x="219" y="921" type="line"/>
      <point x="75" y="847" type="line"/>
    </contour>
  </outline>
</glyph>
<glyph name="ae.sc" format="2">
  <advance width="597"/>
  <anchor x="299" y="0" name="bottom"/>
  <anchor x="379" y="575" name="top"/>
  <outline>
    <contour>
      <point x="15" y="0" type="curve"/>
      <point x="50" y="0" type="line"/>
      <point x="65" y="39"/>
      <point x="90" y="97"/>
      <point x="121" y="167" type="curve"/>
      <point x="305" y="167" type="line"/>
      <point x="305" y="0" type="line"/>
      <point x="545" y="0" type="line"/>
      <point x="545" y="30" type="line"/>
      <point x="332" y="30" type="line"/>
      <point x="332" y="288" type="line"/>
      <point x="518" y="288" type="line"/>
      <point x="518" y="318" type="line"/>
      <point x="332" y="318" type="line"/>
      <point x="332" y="545" type="line"/>
      <point x="543" y="545" type="line"/>
      <point x="543" y="575" type="line"/>
      <point x="295" y="575" type="line"/>
      <point x="184" y="384"/>
      <point x="104" y="211"/>
    </contour>
    <contour>
      <point x="134" y="197" type="line"/>
      <point x="181" y="298"/>
      <point x="239" y="420"/>
      <point x="305" y="538" type="curve"/>
      <point x="305" y="197" type="line"/>
    </contour>
  </outline>
</glyph>
<glyph name="ampersand.c2sc" format="2">
  <advance width="394"/>
  <outline>
    <contour>
      <point x="178" y="-8" type="curve" smooth="yes"/>
      <point x="226" y="-8"/>
      <point x="274" y="22"/>
      <point x="311" y="81" type="curve"/>
      <point x="335" y="47"/>
      <point x="352" y="20"/>
      <point x="362" y="0" type="curve"/>
      <point x="394" y="0" type="line"/>
      <point x="377" y="32"/>
      <point x="355" y="66"/>
      <point x="328" y="105" type="curve"/>
      <point x="354" y="156"/>
      <point x="370" y="218"/>
      <point x="374" y="287" type="curve"/>
      <point x="346" y="290" type="line"/>
      <point x="343" y="235"/>
      <point x="329" y="174"/>
      <point x="310" y="130" type="curve"/>
      <point x="183" y="308" type="line"/>
      <point x="242" y="349"/>
      <point x="286" y="399"/>
      <point x="286" y="468" type="curve" smooth="yes"/>
      <point x="286" y="531"/>
      <point x="258" y="585"/>
      <point x="189" y="585" type="curve" smooth="yes"/>
      <point x="127" y="585"/>
      <point x="88" y="535"/>
      <point x="88" y="459" type="curve" smooth="yes"/>
      <point x="88" y="403"/>
      <point x="114" y="358"/>
      <point x="146" y="313" type="curve"/>
      <point x="84" y="270"/>
      <point x="46" y="222"/>
      <point x="46" y="140" type="curve" smooth="yes"/>
      <point x="46" y="71"/>
      <point x="86" y="-8"/>
    </contour>
    <contour>
      <point x="179" y="21" type="curve" smooth="yes"/>
      <point x="114" y="21"/>
      <point x="76" y="74"/>
      <point x="76" y="143" type="curve" smooth="yes"/>
      <point x="76" y="209"/>
      <point x="104" y="253"/>
      <point x="159" y="292" type="curve"/>
      <point x="295" y="104" type="line"/>
      <point x="266" y="52"/>
      <point x="224" y="21"/>
    </contour>
    <contour>
      <point x="168" y="328" type="curve"/>
      <point x="141" y="367"/>
      <point x="117" y="411"/>
      <point x="117" y="459" type="curve" smooth="yes"/>
      <point x="117" y="520"/>
      <point x="141" y="557"/>
      <point x="189" y="557" type="curve" smooth="yes"/>
      <point x="230" y="557"/>
      <point x="256" y="526"/>
      <point x="256" y="468" type="curve" smooth="yes"/>
      <point x="256" y="411"/>
      <point x="220" y="365"/>
    </contour>
  </outline>
</glyph>
<glyph name="brevecomb.cyr.sc" format="2">
  <anchor x="0" y="575" name="_top"/>
  <anchor x="0" y="756" name="top"/>
  <outline>
    <contour>
      <point x="0" y="642" type="curve" smooth="yes"/>
      <point x="60" y="642"/>
      <point x="98" y="685"/>
      <point x="107" y="752" type="curve"/>
      <point x="83" y="756" type="line"/>
      <point x="71" y="695"/>
      <point x="42" y="671"/>
      <point x="0" y="671" type="curve" smooth="yes"/>
      <point x="-42" y="671"/>
      <point x="-71" y="696"/>
      <point x="-83" y="756" type="curve"/>
      <point x="-107" y="752" type="line"/>
      <point x="-98" y="685"/>
      <point x="-60" y="642"/>
    </contour>
  </outline>
</glyph>
<glyph name="breveinvertedcomb.sc" format="2">
  <anchor x="0" y="575" name="_top"/>
  <anchor x="0" y="764" name="top"/>
  <outline>
    <contour>
      <point x="-95" y="649" type="curve"/>
      <point x="-70" y="649" type="line"/>
      <point x="-67" y="705"/>
      <point x="-46" y="736"/>
      <point x="0" y="736" type="curve" smooth="yes"/>
      <point x="46" y="736"/>
      <point x="67" y="705"/>
      <point x="70" y="649" type="curve"/>
      <point x="95" y="649" type="line"/>
      <point x="95" y="719"/>
      <point x="65" y="764"/>
      <point x="0" y="764" type="curve" smooth="yes"/>
      <point x="-65" y="764"/>
      <point x="-95" y="719"/>
    </contour>
  </outline>
</glyph>
<glyph name="cheabkhasian-cy.sc" format="2">
  <advance width="545"/>
  <outline>
    <contour>
      <point x="358" y="-10" type="curve" smooth="yes"/>
      <point x="402" y="-10"/>
      <point x="441" y="0"/>
      <point x="468" y="17" type="curve"/>
      <point x="459" y="46" type="line"/>
      <point x="432" y="28"/>
      <point x="400" y="20"/>
      <point x="360" y="20" type="curve" smooth="yes"/>
      <point x="241" y="20"/>
      <point x="183" y="107"/>
      <point x="183" y="286" type="curve"/>
      <point x="500" y="286" type="line"/>
      <point x="501" y="295"/>
      <point x="502" y="308"/>
      <point x="502" y="322" type="curve" smooth="yes"/>
      <point x="502" y="487"/>
      <point x="440" y="585"/>
      <point x="336" y="585" type="curve" smooth="yes"/>
      <point x="225" y="585"/>
      <point x="157" y="486"/>
      <point x="151" y="316" type="curve"/>
      <point x="83" y="317"/>
      <point x="59" y="347"/>
      <point x="59" y="385" type="curve" smooth="yes"/>
      <point x="59" y="399"/>
      <point x="62" y="414"/>
      <point x="65" y="429" type="curve"/>
      <point x="36" y="435" type="line"/>
      <point x="31" y="418"/>
      <point x="29" y="400"/>
      <point x="29" y="385" type="curve" smooth="yes"/>
      <point x="29" y="328"/>
      <point x="63" y="287"/>
      <point x="150" y="286" type="curve"/>
      <point x="150" y="88"/>
      <point x="218" y="-10"/>
    </contour>
    <contour>
      <point x="184" y="316" type="line"/>
      <point x="189" y="466"/>
      <point x="245" y="555"/>
      <point x="335" y="555" type="curve" smooth="yes"/>
      <point x="419" y="555"/>
      <point x="469" y="466"/>
      <point x="469" y="316" type="curve"/>
    </contour>
  </outline>
</glyph>
<glyph name="chedescenderabkhasian-cy.sc" format="2">
  <advance width="545"/>
  <outline>
    <contour>
      <point x="328" y="-154" type="line"/>
      <point x="358" y="-154" type="line"/>
      <point x="358" y="-9" type="line"/>
      <point x="402" y="-9"/>
      <point x="441" y="1"/>
      <point x="468" y="18" type="curve"/>
      <point x="459" y="47" type="line"/>
      <point x="432" y="29"/>
      <point x="400" y="21"/>
      <point x="360" y="21" type="curve" smooth="yes"/>
      <point x="241" y="21"/>
      <point x="183" y="108"/>
      <point x="183" y="286" type="curve"/>
      <point x="500" y="286" type="line"/>
      <point x="501" y="295"/>
      <point x="502" y="308"/>
      <point x="502" y="322" type="curve" smooth="yes"/>
      <point x="502" y="487"/>
      <point x="440" y="585"/>
      <point x="336" y="585" type="curve" smooth="yes"/>
      <point x="225" y="585"/>
      <point x="157" y="486"/>
      <point x="151" y="316" type="curve"/>
      <point x="83" y="317"/>
      <point x="59" y="347"/>
      <point x="59" y="385" type="curve" smooth="yes"/>
      <point x="59" y="399"/>
      <point x="62" y="414"/>
      <point x="65" y="429" type="curve"/>
      <point x="36" y="435" type="line"/>
      <point x="31" y="418"/>
      <point x="29" y="400"/>
      <point x="29" y="385" type="curve" smooth="yes"/>
      <point x="29" y="328"/>
      <point x="63" y="287"/>
      <point x="150" y="286" type="curve"/>
      <point x="150" y="103"/>
      <point x="208" y="6"/>
      <point x="328" y="-7" type="curve"/>
    </contour>
    <contour>
      <point x="184" y="316" type="line"/>
      <point x="189" y="466"/>
      <point x="245" y="555"/>
      <point x="335" y="555" type="curve" smooth="yes"/>
      <point x="419" y="555"/>
      <point x="469" y="466"/>
      <point x="469" y="316" type="curve"/>
    </contour>
  </outline>
</glyph>
<glyph name="chook.sc" format="2">
  <advance width="407"/>
  <anchor x="233" y="0" name="bottom"/>
  <anchor x="204" y="575" name="top"/>
  <outline>
    <contour>
      <point x="250" y="-10" type="curve" smooth="yes"/>
      <point x="295" y="-10"/>
      <point x="335" y="0"/>
      <point x="362" y="16" type="curve"/>
      <point x="353" y="45" type="line"/>
      <point x="325" y="28"/>
      <point x="293" y="20"/>
      <point x="252" y="20" type="curve" smooth="yes"/>
      <point x="142" y="20"/>
      <point x="88" y="108"/>
      <point x="88" y="287" type="curve" smooth="yes"/>
      <point x="88" y="467"/>
      <point x="140" y="555"/>
      <point x="247" y="555" type="curve" smooth="yes"/>
      <point x="282" y="555"/>
      <point x="308" y="544"/>
      <point x="334" y="528" type="curve"/>
      <point x="342" y="559" type="line" smooth="yes"/>
      <point x="353" y="603"/>
      <point x="373" y="620"/>
      <point x="409" y="620" type="curve" smooth="yes"/>
      <point x="420" y="620"/>
      <point x="433" y="618"/>
      <point x="442" y="616" type="curve"/>
      <point x="450" y="643" type="line"/>
      <point x="437" y="647"/>
      <point x="424" y="649"/>
      <point x="412" y="649" type="curve" smooth="yes"/>
      <point x="364" y="649"/>
      <point x="333" y="628"/>
      <point x="316" y="571" type="curve"/>
      <point x="297" y="580"/>
      <point x="276" y="585"/>
      <point x="247" y="585" type="curve" smooth="yes"/>
      <point x="118" y="585"/>
      <point x="55" y="487"/>
      <point x="55" y="287" type="curve" smooth="yes"/>
      <point x="55" y="88"/>
      <point x="119" y="-10"/>
    </contour>
  </outline>
</glyph>
<glyph name="dasia.sc" format="2">
  <advance width="183"/>
  <anchor x="184" y="575" name="_topleft"/>
  <outline>
    <contour>
      <point x="88" y="422" type="curve"/>
      <point x="105" y="437" type="line"/>
      <point x="79" y="461"/>
      <point x="44" y="489"/>
      <point x="37" y="531" type="curve"/>
      <point x="56" y="536"/>
      <point x="61" y="552"/>
      <point x="61" y="562" type="curve" smooth="yes"/>
      <point x="61" y="580"/>
      <point x="50" y="591"/>
      <point x="34" y="591" type="curve" smooth="yes"/>
      <point x="16" y="591"/>
      <point x="7" y="579"/>
      <point x="7" y="559" type="curve" smooth="yes"/>
      <point x="7" y="506"/>
      <point x="40" y="459"/>
    </contour>
  </outline>
</glyph>
<glyph name="dieresiscomb_acutecomb.sc" format="2">
  <anchor x="1" y="575" name="_top"/>
  <anchor x="1" y="783" name="top"/>
  <outline>
    <contour>
      <point x="-22" y="640" type="line"/>
      <point x="89" y="761" type="line"/>
      <point x="61" y="783" type="line"/>
      <point x="-41" y="655" type="line"/>
    </contour>
    <contour>
      <point x="-128" y="614" type="curve" smooth="yes"/>
      <point x="-112" y="614"/>
      <point x="-99" y="628"/>
      <point x="-99" y="644" type="curve" smooth="yes"/>
      <point x="-99" y="663"/>
      <point x="-112" y="676"/>
      <point x="-128" y="676" type="curve" smooth="yes"/>
      <point x="-143" y="676"/>
      <point x="-157" y="663"/>
      <point x="-157" y="644" type="curve" smooth="yes"/>
      <point x="-157" y="628"/>
      <point x="-143" y="614"/>
    </contour>
    <contour>
      <point x="129" y="614" type="curve" smooth="yes"/>
      <point x="145" y="614"/>
      <point x="158" y="628"/>
      <point x="158" y="644" type="curve" smooth="yes"/>
      <point x="158" y="663"/>
      <point x="145" y="676"/>
      <point x="129" y="676" type="curve" smooth="yes"/>
      <point x="114" y="676"/>
      <point x="100" y="663"/>
      <point x="100" y="644" type="curve" smooth="yes"/>
      <point x="100" y="628"/>
      <point x="114" y="614"/>
    </contour>
  </outline>
</glyph>
<glyph name="dieresiscomb_caroncomb" format="2">
  <anchor x="0" y="517" name="_top"/>
  <anchor x="0" y="831" name="top"/>
  <outline>
    <contour>
      <point x="0" y="712" type="line"/>
      <point x="109" y="810" type="line"/>
      <point x="91" y="831" type="line"/>
      <point x="0" y="760" type="line"/>
      <point x="-92" y="831" type="line"/>
      <point x="-109" y="810" type="line"/>
    </contour>
    <contour>
      <point x="-80" y="614" type="curve" smooth="yes"/>
      <point x="-64" y="614"/>
      <point x="-51" y="628"/>
      <point x="-51" y="644" type="curve" smooth="yes"/>
      <point x="-51" y="663"/>
      <point x="-64" y="676"/>
      <point x="-80" y="676" type="curve" smooth="yes"/>
      <point x="-95" y="676"/>
      <point x="-109" y="663"/>
      <point x="-109" y="644" type="curve" smooth="yes"/>
      <point x="-109" y="628"/>
      <point x="-95" y="614"/>
    </contour>
    <contour>
      <point x="77" y="614" type="curve" smooth="yes"/>
      <point x="93" y="614"/>
      <point x="106" y="628"/>
      <point x="106" y="644" type="curve" smooth="yes"/>
      <point x="106" y="663"/>
      <point x="93" y="676"/>
      <point x="77" y="676" type="curve" smooth="yes"/>
      <point x="62" y="676"/>
      <point x="48" y="663"/>
      <point x="48" y="644" type="curve" smooth="yes"/>
      <point x="48" y="628"/>
      <point x="62" y="614"/>
    </contour>
  </outline>
</glyph>
<glyph name="dieresiscomb_caroncomb.sc" format="2">
  <anchor x="1" y="575" name="_top"/>
  <anchor x="1" y="778" name="top"/>
  <outline>
    <contour>
      <point x="0" y="659" type="line"/>
      <point x="111" y="757" type="line"/>
      <point x="93" y="778" type="line"/>
      <point x="0" y="707" type="line"/>
      <point x="-94" y="778" type="line"/>
      <point x="-111" y="757" type="line"/>
    </contour>
    <contour>
      <point x="-129" y="613" type="curve" smooth="yes"/>
      <point x="-113" y="613"/>
      <point x="-100" y="627"/>
      <point x="-100" y="643" type="curve" smooth="yes"/>
      <point x="-100" y="662"/>
      <point x="-113" y="675"/>
      <point x="-129" y="675" type="curve" smooth="yes"/>
      <point x="-144" y="675"/>
      <point x="-158" y="662"/>
      <point x="-158" y="643" type="curve" smooth="yes"/>
      <point x="-158" y="627"/>
      <point x="-144" y="613"/>
    </contour>
    <contour>
      <point x="128" y="613" type="curve" smooth="yes"/>
      <point x="144" y="613"/>
      <point x="157" y="627"/>
      <point x="157" y="643" type="curve" smooth="yes"/>
      <point x="157" y="662"/>
      <point x="144" y="675"/>
      <point x="128" y="675" type="curve" smooth="yes"/>
      <point x="113" y="675"/>
      <point x="99" y="662"/>
      <point x="99" y="643" type="curve" smooth="yes"/>
      <point x="99" y="627"/>
      <point x="113" y="613"/>
    </contour>
  </outline>
</glyph>
<glyph name="dieresiscomb_gravecomb.sc" format="2">
  <anchor x="1" y="575" name="_top"/>
  <anchor x="1" y="783" name="top"/>
  <outline>
    <contour>
      <point x="23" y="640" type="line"/>
      <point x="42" y="655" type="line"/>
      <point x="-60" y="783" type="line"/>
      <point x="-88" y="761" type="line"/>
    </contour>
    <contour>
      <point x="-128" y="614" type="curve" smooth="yes"/>
      <point x="-113" y="614"/>
      <point x="-99" y="628"/>
      <point x="-99" y="644" type="curve" smooth="yes"/>
      <point x="-99" y="663"/>
      <point x="-113" y="676"/>
      <point x="-128" y="676" type="curve" smooth="yes"/>
      <point x="-144" y="676"/>
      <point x="-157" y="663"/>
      <point x="-157" y="644" type="curve" smooth="yes"/>
      <point x="-157" y="628"/>
      <point x="-144" y="614"/>
    </contour>
    <contour>
      <point x="129" y="614" type="curve" smooth="yes"/>
      <point x="144" y="614"/>
      <point x="158" y="628"/>
      <point x="158" y="644" type="curve" smooth="yes"/>
      <point x="158" y="663"/>
      <point x="144" y="676"/>
      <point x="129" y="676" type="curve" smooth="yes"/>
      <point x="113" y="676"/>
      <point x="100" y="663"/>
      <point x="100" y="644" type="curve" smooth="yes"/>
      <point x="100" y="628"/>
      <point x="113" y="614"/>
    </contour>
  </outline>
</glyph>
<glyph name="dieresiscomb_macroncomb" format="2">
  <anchor x="0" y="517" name="_top"/>
  <anchor x="0" y="789" name="top"/>
  <outline>
    <contour>
      <point x="-90" y="759" type="line"/>
      <point x="94" y="759" type="line"/>
      <point x="94" y="789" type="line"/>
      <point x="-90" y="789" type="line"/>
    </contour>
    <contour>
      <point x="-69" y="613" type="curve" smooth="yes"/>
      <point x="-54" y="613"/>
      <point x="-40" y="627"/>
      <point x="-40" y="643" type="curve" smooth="yes"/>
      <point x="-40" y="662"/>
      <point x="-54" y="675"/>
      <point x="-69" y="675" type="curve" smooth="yes"/>
      <point x="-85" y="675"/>
      <point x="-98" y="662"/>
      <point x="-98" y="643" type="curve" smooth="yes"/>
      <point x="-98" y="627"/>
      <point x="-85" y="613"/>
    </contour>
    <contour>
      <point x="69" y="613" type="curve" smooth="yes"/>
      <point x="84" y="613"/>
      <point x="98" y="627"/>
      <point x="98" y="643" type="curve" smooth="yes"/>
      <point x="98" y="662"/>
      <point x="84" y="675"/>
      <point x="69" y="675" type="curve" smooth="yes"/>
      <point x="53" y="675"/>
      <point x="40" y="662"/>
      <point x="40" y="643" type="curve" smooth="yes"/>
      <point x="40" y="627"/>
      <point x="53" y="613"/>
    </contour>
  </outline>
</glyph>
<glyph name="dieresiscomb_macroncomb.sc" format="2">
  <anchor x="1" y="575" name="_top"/>
  <anchor x="1" y="794" name="top"/>
  <outline>
    <contour>
      <point x="-90" y="764" type="line"/>
      <point x="94" y="764" type="line"/>
      <point x="94" y="794" type="line"/>
      <point x="-90" y="794" type="line"/>
    </contour>
    <contour>
      <point x="-69" y="638" type="curve" smooth="yes"/>
      <point x="-54" y="638"/>
      <point x="-40" y="652"/>
      <point x="-40" y="668" type="curve" smooth="yes"/>
      <point x="-40" y="687"/>
      <point x="-54" y="700"/>
      <point x="-69" y="700" type="curve" smooth="yes"/>
      <point x="-85" y="700"/>
      <point x="-98" y="687"/>
      <point x="-98" y="668" type="curve" smooth="yes"/>
      <point x="-98" y="652"/>
      <point x="-85" y="638"/>
    </contour>
    <contour>
      <point x="69" y="638" type="curve" smooth="yes"/>
      <point x="84" y="638"/>
      <point x="98" y="652"/>
      <point x="98" y="668" type="curve" smooth="yes"/>
      <point x="98" y="687"/>
      <point x="84" y="700"/>
      <point x="69" y="700" type="curve" smooth="yes"/>
      <point x="53" y="700"/>
      <point x="40" y="687"/>
      <point x="40" y="668" type="curve" smooth="yes"/>
      <point x="40" y="652"/>
      <point x="53" y="638"/>
    </contour>
  </outline>
</glyph>
<glyph name="eight.tosf" format="2">
  <advance width="420"/>
  <outline>
    <contour>
      <point x="211" y="-10" type="curve" smooth="yes"/>
      <point x="287" y="-10"/>
      <point x="361" y="48"/>
      <point x="361" y="166" type="curve" smooth="yes"/>
      <point x="361" y="246"/>
      <point x="308" y="300"/>
      <point x="248" y="348" type="curve"/>
      <point x="300" y="391"/>
      <point x="351" y="459"/>
      <point x="351" y="544" type="curve" smooth="yes"/>
      <point x="351" y="658"/>
      <point x="287" y="706"/>
      <point x="213" y="706" type="curve" smooth="yes"/>
      <point x="148" y="706"/>
      <point x="76" y="660"/>
      <point x="76" y="550" type="curve" smooth="yes"/>
      <point x="76" y="467"/>
      <point x="118" y="410"/>
      <point x="178" y="363" type="curve"/>
      <point x="106" y="312"/>
      <point x="58" y="253"/>
      <point x="58" y="169" type="curve" smooth="yes"/>
      <point x="58" y="65"/>
      <point x="120" y="-10"/>
    </contour>
    <contour>
      <point x="213" y="20" type="curve" smooth="yes"/>
      <point x="138" y="20"/>
      <point x="91" y="80"/>
      <point x="91" y="170" type="curve" smooth="yes"/>
      <point x="91" y="256"/>
      <point x="137" y="301"/>
      <point x="201" y="346" type="curve"/>
      <point x="266" y="298"/>
      <point x="328" y="247"/>
      <point x="328" y="165" type="curve" smooth="yes"/>
      <point x="328" y="70"/>
      <point x="275" y="20"/>
    </contour>
    <contour>
      <point x="226" y="365" type="curve"/>
      <point x="155" y="417"/>
      <point x="109" y="467"/>
      <point x="109" y="550" type="curve" smooth="yes"/>
      <point x="109" y="650"/>
      <point x="170" y="676"/>
      <point x="214" y="676" type="curve" smooth="yes"/>
      <point x="273" y="676"/>
      <point x="318" y="641"/>
      <point x="318" y="541" type="curve" smooth="yes"/>
      <point x="318" y="455"/>
      <point x="283" y="414"/>
    </contour>
  </outline>
</glyph>
<glyph name="eng.sc" format="2">
  <advance width="473"/>
  <anchor x="237" y="0" name="bottom"/>
  <anchor x="237" y="575" name="top"/>
  <outline>
    <contour>
      <point x="313" y="-187" type="curve" smooth="yes"/>
      <point x="374" y="-187"/>
      <point x="404" y="-144"/>
      <point x="404" y="-55" type="curve" smooth="yes"/>
      <point x="404" y="575" type="line"/>
      <point x="372" y="575" type="line"/>
      <point x="372" y="74" type="line"/>
      <point x="322" y="196"/>
      <point x="193" y="433"/>
      <point x="98" y="575" type="curve"/>
      <point x="69" y="575" type="line"/>
      <point x="69" y="0" type="line"/>
      <point x="101" y="0" type="line"/>
      <point x="101" y="516" type="line"/>
      <point x="173" y="412"/>
      <point x="308" y="154"/>
      <point x="372" y="5" type="curve"/>
      <point x="372" y="-55" type="line" smooth="yes"/>
      <point x="372" y="-131"/>
      <point x="353" y="-157"/>
      <point x="313" y="-157" type="curve" smooth="yes"/>
      <point x="300" y="-157"/>
      <point x="281" y="-154"/>
      <point x="269" y="-150" type="curve"/>
      <point x="264" y="-178" type="line"/>
      <point x="276" y="-183"/>
      <point x="299" y="-187"/>
    </contour>
  </outline>
</glyph>
<glyph name="eogonek.sc" format="2">
  <advance width="367"/>
  <anchor x="199" y="575" name="top"/>
  <outline>
    <contour>
      <point x="280" y="-186" type="curve" smooth="yes"/>
      <point x="295" y="-186"/>
      <point x="310" y="-184"/>
      <point x="323" y="-179" type="curve"/>
      <point x="320" y="-153" type="line"/>
      <point x="307" y="-157"/>
      <point x="296" y="-158"/>
      <point x="286" y="-158" type="curve" smooth="yes"/>
      <point x="257" y="-158"/>
      <point x="244" y="-142"/>
      <point x="244" y="-110" type="curve" smooth="yes"/>
      <point x="244" y="-75"/>
      <point x="268" y="-37"/>
      <point x="314" y="0" type="curve"/>
      <point x="314" y="30" type="line"/>
      <point x="101" y="30" type="line"/>
      <point x="101" y="288" type="line"/>
      <point x="287" y="288" type="line"/>
      <point x="287" y="318" type="line"/>
      <point x="101" y="318" type="line"/>
      <point x="101" y="545" type="line"/>
      <point x="312" y="545" type="line"/>
      <point x="312" y="575" type="line"/>
      <point x="69" y="575" type="line"/>
      <point x="69" y="0" type="line"/>
      <point x="279" y="0" type="line"/>
      <point x="235" y="-36"/>
      <point x="213" y="-78"/>
      <point x="213" y="-114" type="curve" smooth="yes"/>
      <point x="213" y="-158"/>
      <point x="239" y="-186"/>
    </contour>
  </outline>
</glyph>
